999
dxfrw 0.6.3
  0
SECTION
  2
HEADER
  9
$ACADVER
  1
AC1021
  9
$DWGCODEPAGE
  3
ANSI_1252
  9
$INSBASE
 10
0
 20
0
 30
0
  9
$EXTMIN
 10
22.18749999999999
 20
128.3333333333333
 30
0
  9
$EXTMAX
 10
676.3905566798801
 20
967.8125
 30
0
  9
$LIMMIN
 10
0
 20
0
  9
$LIMMAX
 10
420
 20
297
  9
$ORTHOMODE
 70
    0
  9
$REGENMODE
 70
    1
  9
$FILLMODE
 70
    1
  9
$QTEXTMODE
 70
    0
  9
$MIRRTEXT
 70
    0
  9
$LTSCALE
 40
1
  9
$ATTMODE
 70
    0
  9
$TEXTSIZE
 40
2.5
  9
$TRACEWID
 40
15.68
  9
$TEXTSTYLE
  7
STANDARD
  9
$CLAYER
  8
sizes
  9
$CELTYPE
  6
BYLAYER
  9
$CECOLOR
 62
  256
  9
$CELTSCALE
 40
1
  9
$DISPSILH
 70
    0
  9
$DIMSCALE
 40
2.5
  9
$DIMASZ
 40
2.5
  9
$DIMEXO
 40
0.625
  9
$DIMDLI
 40
3.75
  9
$DIMRND
 40
0
  9
$DIMDLE
 40
0
  9
$DIMEXE
 40
1.25
  9
$DIMTP
 40
0
  9
$DIMTM
 40
0
  9
$DIMTXT
 40
2.5
  9
$DIMCEN
 40
2.5
  9
$DIMTSZ
 40
0
  9
$DIMTOL
 70
    0
  9
$DIMLIM
 70
    0
  9
$DIMTIH
 70
    0
  9
$DIMTOH
 70
    0
  9
$DIMSE1
 70
    0
  9
$DIMSE2
 70
    0
  9
$DIMTAD
 70
    1
  9
$DIMZIN
 70
    8
  9
$DIMBLK
  1

  9
$DIMASO
 70
    1
  9
$DIMSHO
 70
    1
  9
$DIMPOST
  1

  9
$DIMAPOST
  1

  9
$DIMALT
 70
    0
  9
$DIMALTD
 70
    3
  9
$DIMALTF
 40
0.03937
  9
$DIMLFAC
 40
1
  9
$DIMTOFL
 70
    1
  9
$DIMTVP
 40
0
  9
$DIMTIX
 70
    0
  9
$DIMSOXD
 70
    0
  9
$DIMSAH
 70
    0
  9
$DIMBLK1
  1

  9
$DIMBLK2
  1

  9
$DIMSTYLE
  2
STANDARD
  9
$DIMCLRD
 70
    0
  9
$DIMCLRE
 70
    0
  9
$DIMCLRT
 70
    0
  9
$DIMTFAC
 40
1
  9
$DIMGAP
 40
0.625
  9
$DIMJUST
 70
    0
  9
$DIMSD1
 70
    0
  9
$DIMSD2
 70
    0
  9
$DIMTOLJ
 70
    0
  9
$DIMTZIN
 70
    8
  9
$DIMALTZ
 70
    0
  9
$DIMALTTZ
 70
    0
  9
$DIMUPT
 70
    0
  9
$DIMDEC
 70
    2
  9
$DIMTDEC
 70
    2
  9
$DIMALTU
 70
    2
  9
$DIMALTTD
 70
    3
  9
$DIMTXSTY
  7
STANDARD
  9
$DIMAUNIT
 70
    0
  9
$DIMADEC
 70
    0
  9
$DIMALTRND
 40
0
  9
$DIMAZIN
 70
    0
  9
$DIMDSEP
 70
   44
  9
$DIMATFIT
 70
    3
  9
$DIMFRAC
 70
    0
  9
$DIMLDRBLK
  1
STANDARD
  9
$DIMLUNIT
 70
    2
  9
$DIMLWD
 70
   -2
  9
$DIMLWE
 70
   -2
  9
$DIMTMOVE
 70
    0
  9
$DIMFXL
 40
1
  9
$DIMFXLON
 70
    0
  9
$DIMJOGANG
 40
0.7854
  9
$DIMTFILL
 70
    0
  9
$DIMTFILLCLR
 70
    0
  9
$DIMARCSYM
 70
    0
  9
$DIMLTYPE
  6

  9
$DIMLTEX1
  6

  9
$DIMLTEX2
  6

  9
$LUNITS
 70
    2
  9
$LUPREC
 70
    4
  9
$SKETCHINC
 40
1
  9
$FILLETRAD
 40
0
  9
$AUNITS
 70
    0
  9
$AUPREC
 70
    2
  9
$MENU
  1
.
  9
$ELEVATION
 40
0
  9
$PELEVATION
 40
0
  9
$THICKNESS
 40
0
  9
$LIMCHECK
 70
    0
  9
$CHAMFERA
 40
0
  9
$CHAMFERB
 40
0
  9
$CHAMFERC
 40
0
  9
$CHAMFERD
 40
0
  9
$SKPOLY
 70
    0
  9
$USRTIMER
 70
    1
  9
$ANGBASE
 50
0
  9
$ANGDIR
 70
    0
  9
$PDMODE
 70
   34
  9
$PDSIZE
 40
0
  9
$PLINEWID
 40
0
  9
$SPLFRAME
 70
    0
  9
$SPLINETYPE
 70
    2
  9
$SPLINESEGS
 70
    8
  9
$HANDSEED
  5
20000
  9
$SURFTAB1
 70
    6
  9
$SURFTAB2
 70
    6
  9
$SURFTYPE
 70
    6
  9
$SURFU
 70
    6
  9
$SURFV
 70
    6
  9
$UCSBASE
  2

  9
$UCSNAME
  2

  9
$UCSORG
 10
0
 20
0
 30
0
  9
$UCSXDIR
 10
1
 20
0
 30
0
  9
$UCSYDIR
 10
0
 20
1
 30
0
  9
$UCSORTHOREF
  2

  9
$UCSORTHOVIEW
 70
    0
  9
$UCSORGTOP
 10
0
 20
0
 30
0
  9
$UCSORGBOTTOM
 10
0
 20
0
 30
0
  9
$UCSORGLEFT
 10
0
 20
0
 30
0
  9
$UCSORGRIGHT
 10
0
 20
0
 30
0
  9
$UCSORGFRONT
 10
0
 20
0
 30
0
  9
$UCSORGBACK
 10
0
 20
0
 30
0
  9
$PUCSBASE
  2

  9
$PUCSNAME
  2

  9
$PUCSORG
 10
0
 20
0
 30
0
  9
$PUCSXDIR
 10
1
 20
0
 30
0
  9
$PUCSYDIR
 10
0
 20
1
 30
0
  9
$PUCSORTHOREF
  2

  9
$PUCSORTHOVIEW
 70
    0
  9
$PUCSORGTOP
 10
0
 20
0
 30
0
  9
$PUCSORGBOTTOM
 10
0
 20
0
 30
0
  9
$PUCSORGLEFT
 10
0
 20
0
 30
0
  9
$PUCSORGRIGHT
 10
0
 20
0
 30
0
  9
$PUCSORGFRONT
 10
0
 20
0
 30
0
  9
$PUCSORGBACK
 10
0
 20
0
 30
0
  9
$USERI1
 70
    0
  9
$USERI2
 70
    0
  9
$USERI3
 70
    0
  9
$USERI4
 70
    0
  9
$USERI5
 70
    0
  9
$USERR1
 40
0
  9
$USERR2
 40
0
  9
$USERR3
 40
0
  9
$USERR4
 40
0
  9
$USERR5
 40
0
  9
$WORLDVIEW
 70
    1
  9
$SHADEDGE
 70
    3
  9
$SHADEDIF
 70
   70
  9
$TILEMODE
 70
    1
  9
$MAXACTVP
 70
   64
  9
$PINSBASE
 10
25.25564871183452
 20
14.71704067797506
 30
0
  9
$PLIMCHECK
 70
    0
  9
$PEXTMIN
 10
0
 20
0
 30
0
  9
$PEXTMAX
 10
0
 20
0
 30
0
  9
$GRIDMODE
 70
    1
  9
$SNAPSTYLE
 70
    0
  9
$PLIMMIN
 10
0
 20
0
  9
$PLIMMAX
 10
210
 20
297
  9
$UNITMODE
 70
    0
  9
$VISRETAIN
 70
    1
  9
$PLINEGEN
 70
    0
  9
$PSLTSCALE
 70
    1
  9
$TREEDEPTH
 70
 3020
  9
$CMLSTYLE
  2
Standard
  9
$CMLJUST
 70
    0
  9
$CMLSCALE
 40
20
  9
$PROXYGRAPHICS
 70
    1
  9
$MEASUREMENT
 70
    1
  9
$CELWEIGHT
370
   -1
  9
$ENDCAPS
280
    0
  9
$JOINSTYLE
280
    0
  9
$LWDISPLAY
290
    0
  9
$INSUNITS
 70
    0
  9
$HYPERLINKBASE
  1

  9
$STYLESHEET
  1

  9
$XEDIT
290
    1
  9
$CEPSNTYPE
380
    0
  9
$PSTYLEMODE
290
    1
  9
$EXTNAMES
290
    1
  9
$PSVPSCALE
 40
0.25
  9
$OLESTARTUP
290
    0
  9
$SORTENTS
280
  127
  9
$INDEXCTL
280
    0
  9
$HIDETEXT
280
    1
  9
$XCLIPFRAME
290
    0
  9
$HALOGAP
280
    0
  9
$OBSCOLOR
 70
  257
  9
$OBSLTYPE
280
    0
  9
$INTERSECTIONDISPLAY
280
    0
  9
$INTERSECTIONCOLOR
 70
  257
  9
$DIMASSOC
280
    1
  9
$PROJECTNAME
  1

  9
$CAMERADISPLAY
290
    0
  9
$LENSLENGTH
 40
50
  9
$CAMERAHEIGHT
 40
0
  9
$STEPSPERSEC
 40
2
  9
$STEPSIZE
 40
50
  9
$3DDWFPREC
 40
2
  9
$PSOLWIDTH
 40
5
  9
$PSOLHEIGHT
 40
80
  9
$LOFTANG1
 40
1.570796326794897
  9
$LOFTANG2
 40
1.570796326794897
  9
$LOFTMAG1
 40
0
  9
$LOFTMAG2
 40
0
  9
$LOFTPARAM
 70
    7
  9
$LOFTNORMALS
280
    1
  9
$LATITUDE
 40
1
  9
$LONGITUDE
 40
1
  9
$NORTHDIRECTION
 40
0
  9
$TIMEZONE
 70
-8000
  9
$LIGHTGLYPHDISPLAY
280
    1
  9
$TILEMODELIGHTSYNCH
280
    1
  9
$SOLIDHIST
280
    1
  9
$SHOWHIST
280
    1
  9
$DWFFRAME
280
    2
  9
$DGNFRAME
280
    0
  9
$REALWORLDSCALE
290
    1
  9
$INTERFERECOLOR
 62
    1
  9
$CSHADOW
280
    0
  9
$SHADOWPLANELOCATION
 40
0
  0
ENDSEC
  0
SECTION
  2
CLASSES
  0
ENDSEC
  0
SECTION
  2
TABLES
  0
TABLE
  2
VPORT
  5
8
330
0
100
AcDbSymbolTable
 70
    1
  0
VPORT
  5
31
330
2
100
AcDbSymbolTableRecord
100
AcDbViewportTableRecord
  2
*ACTIVE
 70
    0
 10
0
 20
0
 11
1
 21
1
 12
726.4015685358219
 22
556.7628788777556
 13
0
 23
0
 14
10
 24
10
 15
10
 25
10
 16
0
 26
0
 36
1
 17
0
 27
0
 37
0
 40
1124.400032733593
 41
1.920696324951644
 42
50
 43
0
 44
0
 50
0
 51
0
 71
    0
 72
  100
 73
    1
 74
    3
 75
    0
 76
    1
 77
    0
 78
    0
281
    0
 65
    1
110
0
120
0
130
0
111
1
121
0
131
0
112
0
122
1
132
0
 79
    0
146
0
348
10020
 60
    7
 61
    5
292
1
282
    1
141
0
142
0
 63
  250
421
3358443
  0
ENDTAB
  0
TABLE
  2
LTYPE
  5
5
330
0
100
AcDbSymbolTable
 70
    4
  0
LTYPE
  5
14
330
5
100
AcDbSymbolTableRecord
100
AcDbLinetypeTableRecord
  2
ByBlock
 70
    0
  3

 72
   65
 73
    0
 40
0
  0
LTYPE
  5
15
330
5
100
AcDbSymbolTableRecord
100
AcDbLinetypeTableRecord
  2
ByLayer
 70
    0
  3

 72
   65
 73
    0
 40
0
  0
LTYPE
  5
16
330
5
100
AcDbSymbolTableRecord
100
AcDbLinetypeTableRecord
  2
Continuous
 70
    0
  3
Solid line
 72
   65
 73
    0
 40
0
  0
LTYPE
  5
32
330
5
100
AcDbSymbolTableRecord
100
AcDbLinetypeTableRecord
  2
DOT
 70
    0
  3
Dot . . . . . . . . . . . . . . . . . . . . . .
 72
   65
 73
    2
 40
6.35
 49
0
 74
    0
 49
-6.35
 74
    0
  0
LTYPE
  5
33
330
5
100
AcDbSymbolTableRecord
100
AcDbLinetypeTableRecord
  2
DOTTINY
 70
    0
  3
Dot (.15x) .....................................
 72
   65
 73
    2
 40
0.9525
 49
0
 74
    0
 49
-0.9525
 74
    0
  0
LTYPE
  5
34
330
5
100
AcDbSymbolTableRecord
100
AcDbLinetypeTableRecord
  2
DOT2
 70
    0
  3
Dot (.5x) .....................................
 72
   65
 73
    2
 40
3.175
 49
0
 74
    0
 49
-3.175
 74
    0
  0
LTYPE
  5
35
330
5
100
AcDbSymbolTableRecord
100
AcDbLinetypeTableRecord
  2
DOTX2
 70
    0
  3
Dot (2x) .  .  .  .  .  .  .  .  .  .  .  .  .
 72
   65
 73
    2
 40
12.7
 49
0
 74
    0
 49
-12.7
 74
    0
  0
LTYPE
  5
36
330
5
100
AcDbSymbolTableRecord
100
AcDbLinetypeTableRecord
  2
DASHED
 70
    0
  3
Dashed _ _ _ _ _ _ _ _ _ _ _ _ _ _ _ _ _
 72
   65
 73
    2
 40
19.05
 49
12.7
 74
    0
 49
-6.35
 74
    0
  0
LTYPE
  5
37
330
5
100
AcDbSymbolTableRecord
100
AcDbLinetypeTableRecord
  2
DASHEDTINY
 70
    0
  3
Dashed (.15x) _ _ _ _ _ _ _ _ _ _ _ _ _ _ _ _ _
 72
   65
 73
    2
 40
2.8575
 49
1.905
 74
    0
 49
-0.9525
 74
    0
  0
LTYPE
  5
38
330
5
100
AcDbSymbolTableRecord
100
AcDbLinetypeTableRecord
  2
DASHED2
 70
    0
  3
Dashed (.5x) _ _ _ _ _ _ _ _ _ _ _ _ _ _ _ _ _
 72
   65
 73
    2
 40
9.524999999999999
 49
6.35
 74
    0
 49
-3.175
 74
    0
  0
LTYPE
  5
39
330
5
100
AcDbSymbolTableRecord
100
AcDbLinetypeTableRecord
  2
DASHEDX2
 70
    0
  3
Dashed (2x) ____  ____  ____  ____  ____  ___
 72
   65
 73
    2
 40
38.09999999999999
 49
25.4
 74
    0
 49
-12.7
 74
    0
  0
LTYPE
  5
3A
330
5
100
AcDbSymbolTableRecord
100
AcDbLinetypeTableRecord
  2
DASHDOT
 70
    0
  3
Dash dot __ . __ . __ . __ . __ . __ . __ . __
 72
   65
 73
    4
 40
25.4
 49
12.7
 74
    0
 49
-6.35
 74
    0
 49
0
 74
    0
 49
-6.35
 74
    0
  0
LTYPE
  5
3B
330
5
100
AcDbSymbolTableRecord
100
AcDbLinetypeTableRecord
  2
DASHDOTTINY
 70
    0
  3
Dash dot (.15x) _._._._._._._._._._._._._._._.
 72
   65
 73
    4
 40
3.81
 49
1.905
 74
    0
 49
-0.9525
 74
    0
 49
0
 74
    0
 49
-0.9525
 74
    0
  0
LTYPE
  5
3C
330
5
100
AcDbSymbolTableRecord
100
AcDbLinetypeTableRecord
  2
DASHDOT2
 70
    0
  3
Dash dot (.5x) _._._._._._._._._._._._._._._.
 72
   65
 73
    4
 40
12.7
 49
6.35
 74
    0
 49
-3.175
 74
    0
 49
0
 74
    0
 49
-3.175
 74
    0
  0
LTYPE
  5
3D
330
5
100
AcDbSymbolTableRecord
100
AcDbLinetypeTableRecord
  2
DASHDOTX2
 70
    0
  3
Dash dot (2x) ____  .  ____  .  ____  .  ___
 72
   65
 73
    4
 40
50.8
 49
25.4
 74
    0
 49
-12.7
 74
    0
 49
0
 74
    0
 49
-12.7
 74
    0
  0
LTYPE
  5
3E
330
5
100
AcDbSymbolTableRecord
100
AcDbLinetypeTableRecord
  2
DIVIDE
 70
    0
  3
Divide ____ . . ____ . . ____ . . ____ . . ____
 72
   65
 73
    6
 40
31.75
 49
12.7
 74
    0
 49
-6.35
 74
    0
 49
0
 74
    0
 49
-6.35
 74
    0
 49
0
 74
    0
 49
-6.35
 74
    0
  0
LTYPE
  5
3F
330
5
100
AcDbSymbolTableRecord
100
AcDbLinetypeTableRecord
  2
DIVIDETINY
 70
    0
  3
Divide (.15x) __..__..__..__..__..__..__..__.._
 72
   65
 73
    6
 40
4.7625
 49
1.905
 74
    0
 49
-0.9525
 74
    0
 49
0
 74
    0
 49
-0.9525
 74
    0
 49
0
 74
    0
 49
-0.9525
 74
    0
  0
LTYPE
  5
40
330
5
100
AcDbSymbolTableRecord
100
AcDbLinetypeTableRecord
  2
DIVIDE2
 70
    0
  3
Divide (.5x) __..__..__..__..__..__..__..__.._
 72
   65
 73
    6
 40
15.875
 49
6.35
 74
    0
 49
-3.175
 74
    0
 49
0
 74
    0
 49
-3.175
 74
    0
 49
0
 74
    0
 49
-3.175
 74
    0
  0
LTYPE
  5
41
330
5
100
AcDbSymbolTableRecord
100
AcDbLinetypeTableRecord
  2
DIVIDEX2
 70
    0
  3
Divide (2x) ________  .  .  ________  .  .  _
 72
   65
 73
    6
 40
63.5
 49
25.4
 74
    0
 49
-12.7
 74
    0
 49
0
 74
    0
 49
-12.7
 74
    0
 49
0
 74
    0
 49
-12.7
 74
    0
  0
LTYPE
  5
42
330
5
100
AcDbSymbolTableRecord
100
AcDbLinetypeTableRecord
  2
BORDER
 70
    0
  3
Border __ __ . __ __ . __ __ . __ __ . __ __ .
 72
   65
 73
    6
 40
44.45
 49
12.7
 74
    0
 49
-6.35
 74
    0
 49
12.7
 74
    0
 49
-6.35
 74
    0
 49
0
 74
    0
 49
-6.35
 74
    0
  0
LTYPE
  5
43
330
5
100
AcDbSymbolTableRecord
100
AcDbLinetypeTableRecord
  2
BORDERTINY
 70
    0
  3
Border (.15x) __.__.__.__.__.__.__.__.__.__.__.
 72
   65
 73
    6
 40
6.6675
 49
1.905
 74
    0
 49
-0.9525
 74
    0
 49
1.905
 74
    0
 49
-0.9525
 74
    0
 49
0
 74
    0
 49
-0.9525
 74
    0
  0
LTYPE
  5
44
330
5
100
AcDbSymbolTableRecord
100
AcDbLinetypeTableRecord
  2
BORDER2
 70
    0
  3
Border (.5x) __.__.__.__.__.__.__.__.__.__.__.
 72
   65
 73
    6
 40
22.225
 49
6.35
 74
    0
 49
-3.175
 74
    0
 49
6.35
 74
    0
 49
-3.175
 74
    0
 49
0
 74
    0
 49
-3.175
 74
    0
  0
LTYPE
  5
45
330
5
100
AcDbSymbolTableRecord
100
AcDbLinetypeTableRecord
  2
BORDERX2
 70
    0
  3
Border (2x) ____  ____  .  ____  ____  .  ___
 72
   65
 73
    6
 40
88.89999999999999
 49
25.4
 74
    0
 49
-12.7
 74
    0
 49
25.4
 74
    0
 49
-12.7
 74
    0
 49
0
 74
    0
 49
-12.7
 74
    0
  0
LTYPE
  5
46
330
5
100
AcDbSymbolTableRecord
100
AcDbLinetypeTableRecord
  2
CENTER
 70
    0
  3
Center ____ _ ____ _ ____ _ ____ _ ____ _ ____
 72
   65
 73
    4
 40
50.8
 49
31.75
 74
    0
 49
-6.35
 74
    0
 49
6.35
 74
    0
 49
-6.35
 74
    0
  0
LTYPE
  5
47
330
5
100
AcDbSymbolTableRecord
100
AcDbLinetypeTableRecord
  2
CENTERTINY
 70
    0
  3
Center (.15x) ___ _ ___ _ ___ _ ___ _ ___ _ ___
 72
   65
 73
    4
 40
7.619999999999999
 49
4.7625
 74
    0
 49
-0.9525
 74
    0
 49
0.9525
 74
    0
 49
-0.9525
 74
    0
  0
LTYPE
  5
48
330
5
100
AcDbSymbolTableRecord
100
AcDbLinetypeTableRecord
  2
CENTER2
 70
    0
  3
Center (.5x) ___ _ ___ _ ___ _ ___ _ ___ _ ___
 72
   65
 73
    4
 40
28.575
 49
19.05
 74
    0
 49
-3.175
 74
    0
 49
3.175
 74
    0
 49
-3.175
 74
    0
  0
LTYPE
  5
49
330
5
100
AcDbSymbolTableRecord
100
AcDbLinetypeTableRecord
  2
CENTERX2
 70
    0
  3
Center (2x) ________  __  ________  __  _____
 72
   65
 73
    4
 40
101.6
 49
63.5
 74
    0
 49
-12.7
 74
    0
 49
12.7
 74
    0
 49
-12.7
 74
    0
  0
ENDTAB
  0
TABLE
  2
LAYER
  5
2
330
0
100
AcDbSymbolTable
 70
    1
  0
LAYER
  5
10
330
2
100
AcDbSymbolTableRecord
100
AcDbLayerTableRecord
  2
0
 70
    0
 62
    7
  6
CONTINUOUS
370
   25
390
F
  0
LAYER
  5
4A
330
2
100
AcDbSymbolTableRecord
100
AcDbLayerTableRecord
  2
ads
 70
    0
 62
    7
  6
DIVIDE2
370
    0
390
F
  0
LAYER
  5
4B
330
2
100
AcDbSymbolTableRecord
100
AcDbLayerTableRecord
  2
sizes
 70
    0
 62
    7
  6
CONTINUOUS
370
    0
390
F
  0
ENDTAB
  0
TABLE
  2
STYLE
  5
3
330
0
100
AcDbSymbolTable
 70
    3
  0
STYLE
  5
4C
330
2
100
AcDbSymbolTableRecord
100
AcDbTextStyleTableRecord
  2
unicode
 70
    0
 40
0
 41
1
 50
0
 71
    0
 42
1
  3
unicode
  4

  0
STYLE
  5
4D
330
2
100
AcDbSymbolTableRecord
100
AcDbTextStyleTableRecord
  2
Standard
 70
    0
 40
0
 41
1
 50
0
 71
    0
 42
1
  3
txt
  4

  0
ENDTAB
  0
TABLE
  2
VIEW
  5
6
330
0
100
AcDbSymbolTable
 70
    0
  0
ENDTAB
  0
TABLE
  2
UCS
  5
7
330
0
100
AcDbSymbolTable
 70
    0
  0
ENDTAB
  0
TABLE
  2
APPID
  5
9
330
0
100
AcDbSymbolTable
 70
    1
  0
APPID
  5
12
330
9
100
AcDbSymbolTableRecord
100
AcDbRegAppTableRecord
  2
ACAD
 70
    0
  0
APPID
  5
4E
330
9
100
AcDbSymbolTableRecord
100
AcDbRegAppTableRecord
  2
LibreCad
 70
    0
  0
ENDTAB
  0
TABLE
  2
DIMSTYLE
  5
A
330
0
100
AcDbSymbolTable
 70
    1
100
AcDbDimStyleTable
 71
    1
  0
DIMSTYLE
105
4F
330
A
100
AcDbSymbolTableRecord
100
AcDbDimStyleTableRecord
  2
Standard
 70
    0
 40
2.5
 41
2.5
 42
0.625
 43
0.38
 44
1.25
 45
0
 46
0
 47
0
 48
0
 49
1
140
2.5
141
0.09
142
0
143
25.4
144
1
145
0
146
1
147
0.625
148
0
 71
    0
 72
    0
 73
    0
 74
    1
 75
    0
 76
    0
 77
    0
 78
    8
 79
    0
170
    0
171
    2
172
    0
173
    0
174
    0
175
    0
176
    0
177
    0
178
    0
179
    0
271
    2
272
    4
273
    2
274
    2
275
    0
276
    0
277
    2
278
   44
279
    0
280
    0
281
    0
282
    0
283
    1
284
    0
285
    0
286
    0
288
    0
289
    3
340
STANDARD
341

371
   -2
372
   -2
  0
ENDTAB
  0
TABLE
  2
BLOCK_RECORD
  5
1
330
0
100
AcDbSymbolTable
 70
    2
  0
BLOCK_RECORD
  5
1F
330
1
100
AcDbSymbolTableRecord
100
AcDbBlockTableRecord
  2
*Model_Space
 70
    0
280
    1
281
    0
  0
BLOCK_RECORD
  5
1E
330
1
100
AcDbSymbolTableRecord
100
AcDbBlockTableRecord
  2
*Paper_Space
 70
    0
280
    1
281
    0
  0
BLOCK_RECORD
  5
50
330
1
100
AcDbSymbolTableRecord
100
AcDbBlockTableRecord
  2
*D8
 70
    0
280
    1
281
    0
  0
BLOCK_RECORD
  5
53
330
1
100
AcDbSymbolTableRecord
100
AcDbBlockTableRecord
  2
*D22
 70
    0
280
    1
281
    0
  0
BLOCK_RECORD
  5
56
330
1
100
AcDbSymbolTableRecord
100
AcDbBlockTableRecord
  2
*D18
 70
    0
280
    1
281
    0
  0
BLOCK_RECORD
  5
59
330
1
100
AcDbSymbolTableRecord
100
AcDbBlockTableRecord
  2
*D5
 70
    0
280
    1
281
    0
  0
BLOCK_RECORD
  5
5C
330
1
100
AcDbSymbolTableRecord
100
AcDbBlockTableRecord
  2
*D15
 70
    0
280
    1
281
    0
  0
BLOCK_RECORD
  5
5F
330
1
100
AcDbSymbolTableRecord
100
AcDbBlockTableRecord
  2
*D9
 70
    0
280
    1
281
    0
  0
BLOCK_RECORD
  5
62
330
1
100
AcDbSymbolTableRecord
100
AcDbBlockTableRecord
  2
*D14
 70
    0
280
    1
281
    0
  0
BLOCK_RECORD
  5
65
330
1
100
AcDbSymbolTableRecord
100
AcDbBlockTableRecord
  2
*D3
 70
    0
280
    1
281
    0
  0
BLOCK_RECORD
  5
68
330
1
100
AcDbSymbolTableRecord
100
AcDbBlockTableRecord
  2
*D28
 70
    0
280
    1
281
    0
  0
BLOCK_RECORD
  5
6B
330
1
100
AcDbSymbolTableRecord
100
AcDbBlockTableRecord
  2
*D21
 70
    0
280
    1
281
    0
  0
BLOCK_RECORD
  5
6E
330
1
100
AcDbSymbolTableRecord
100
AcDbBlockTableRecord
  2
*D29
 70
    0
280
    1
281
    0
  0
BLOCK_RECORD
  5
71
330
1
100
AcDbSymbolTableRecord
100
AcDbBlockTableRecord
  2
*D17
 70
    0
280
    1
281
    0
  0
BLOCK_RECORD
  5
74
330
1
100
AcDbSymbolTableRecord
100
AcDbBlockTableRecord
  2
*D4
 70
    0
280
    1
281
    0
  0
BLOCK_RECORD
  5
77
330
1
100
AcDbSymbolTableRecord
100
AcDbBlockTableRecord
  2
*D1
 70
    0
280
    1
281
    0
  0
BLOCK_RECORD
  5
7A
330
1
100
AcDbSymbolTableRecord
100
AcDbBlockTableRecord
  2
*D11
 70
    0
280
    1
281
    0
  0
BLOCK_RECORD
  5
7D
330
1
100
AcDbSymbolTableRecord
100
AcDbBlockTableRecord
  2
*D27
 70
    0
280
    1
281
    0
  0
BLOCK_RECORD
  5
80
330
1
100
AcDbSymbolTableRecord
100
AcDbBlockTableRecord
  2
*D2
 70
    0
280
    1
281
    0
  0
BLOCK_RECORD
  5
83
330
1
100
AcDbSymbolTableRecord
100
AcDbBlockTableRecord
  2
*D25
 70
    0
280
    1
281
    0
  0
BLOCK_RECORD
  5
86
330
1
100
AcDbSymbolTableRecord
100
AcDbBlockTableRecord
  2
*D20
 70
    0
280
    1
281
    0
  0
BLOCK_RECORD
  5
89
330
1
100
AcDbSymbolTableRecord
100
AcDbBlockTableRecord
  2
*D13
 70
    0
280
    1
281
    0
  0
BLOCK_RECORD
  5
8C
330
1
100
AcDbSymbolTableRecord
100
AcDbBlockTableRecord
  2
*D12
 70
    0
280
    1
281
    0
  0
BLOCK_RECORD
  5
8F
330
1
100
AcDbSymbolTableRecord
100
AcDbBlockTableRecord
  2
*D19
 70
    0
280
    1
281
    0
  0
BLOCK_RECORD
  5
92
330
1
100
AcDbSymbolTableRecord
100
AcDbBlockTableRecord
  2
*D16
 70
    0
280
    1
281
    0
  0
BLOCK_RECORD
  5
95
330
1
100
AcDbSymbolTableRecord
100
AcDbBlockTableRecord
  2
*D23
 70
    0
280
    1
281
    0
  0
BLOCK_RECORD
  5
98
330
1
100
AcDbSymbolTableRecord
100
AcDbBlockTableRecord
  2
*D24
 70
    0
280
    1
281
    0
  0
BLOCK_RECORD
  5
9B
330
1
100
AcDbSymbolTableRecord
100
AcDbBlockTableRecord
  2
*D7
 70
    0
280
    1
281
    0
  0
BLOCK_RECORD
  5
9E
330
1
100
AcDbSymbolTableRecord
100
AcDbBlockTableRecord
  2
*D26
 70
    0
280
    1
281
    0
  0
BLOCK_RECORD
  5
A1
330
1
100
AcDbSymbolTableRecord
100
AcDbBlockTableRecord
  2
*D6
 70
    0
280
    1
281
    0
  0
BLOCK_RECORD
  5
A4
330
1
100
AcDbSymbolTableRecord
100
AcDbBlockTableRecord
  2
*D10
 70
    0
280
    1
281
    0
  0
ENDTAB
  0
ENDSEC
  0
SECTION
  2
BLOCKS
  0
BLOCK
  5
20
330
1F
100
AcDbEntity
  8
0
100
AcDbBlockBegin
  2
*Model_Space
 70
    0
 10
0
 20
0
 30
0
  3
*Model_Space
  1

  0
ENDBLK
  5
21
330
1F
100
AcDbEntity
  8
0
100
AcDbBlockEnd
  0
BLOCK
  5
1C
330
1B
100
AcDbEntity
  8
0
100
AcDbBlockBegin
  2
*Paper_Space
 70
    0
 10
0
 20
0
 30
0
  3
*Paper_Space
  1

  0
ENDBLK
  5
1D
330
1F
100
AcDbEntity
  8
0
100
AcDbBlockEnd
  0
BLOCK
  5
51
330
50
100
AcDbEntity
  8
0
100
AcDbBlockBegin
  2
*D8
 70
    1
 10
0
 20
0
  3
*D8
  1

  0
LINE
  5
A7
100
AcDbEntity
  8
sizes
  6
ByBlock
 62
    0
370
   -2
100
AcDbLine
 10
295
 20
540
 11
332.5000000000001
 21
540
  0
SOLID
  5
A8
100
AcDbEntity
  8
sizes
  6
ByBlock
 62
    0
370
   -2
100
AcDbTrace
 10
307.5
 20
540
 30
0
 11
301.25
 21
538.9592883555679
 31
0
 12
301.25
 22
541.0407116444321
 32
0
 13
301.25
 23
541.0407116444321
 33
0
  0
SOLID
  5
A9
100
AcDbEntity
  8
sizes
  6
ByBlock
 62
    0
370
   -2
100
AcDbTrace
 10
320.0000000000001
 20
540
 30
0
 11
326.2500000000001
 21
541.0407116444321
 31
0
 12
326.2500000000001
 22
538.9592883555679
 32
0
 13
326.2500000000001
 23
538.9592883555679
 33
0
  0
MTEXT
  5
AA
100
AcDbEntity
  8
sizes
  6
CONTINUOUS
 62
    0
370
   -2
100
AcDbMText
 10
328.3333333333337
 20
544.6875
 30
0
 40
6.25
 41
13.54166666666706
 71
    5
 72
    1
  1
12,5
  7
STANDARD
210
0
220
0
230
1
 50
0
 73
    2
 44
1
  0
LINE
  5
AB
100
AcDbEntity
  8
sizes
  6
ByBlock
 62
    0
370
   -2
100
AcDbLine
 10
307.5
 20
548.4375
 11
307.5
 21
536.875
  0
LINE
  5
AC
100
AcDbEntity
  8
sizes
  6
ByBlock
 62
    0
370
   -2
100
AcDbLine
 10
320.0000000000001
 20
588.4375
 11
320.0000000000001
 21
536.875
  0
ENDBLK
  5
52
330
50
100
AcDbEntity
  8
0
100
AcDbBlockEnd
  0
BLOCK
  5
54
330
53
100
AcDbEntity
  8
0
100
AcDbBlockBegin
  2
*D22
 70
    1
 10
0
 20
0
  3
*D22
  1

  0
LINE
  5
AD
100
AcDbEntity
  8
sizes
  6
ByBlock
 62
    0
370
   -2
100
AcDbLine
 10
70
 20
550
 11
70
 21
590
  0
SOLID
  5
AE
100
AcDbEntity
  8
sizes
  6
ByBlock
 62
    0
370
   -2
100
AcDbTrace
 10
70
 20
550
 30
0
 11
68.95928835556791
 21
556.25
 31
0
 12
71.04071164443211
 22
556.25
 32
0
 13
71.04071164443211
 23
556.25
 33
0
  0
SOLID
  5
AF
100
AcDbEntity
  8
sizes
  6
ByBlock
 62
    0
370
   -2
100
AcDbTrace
 10
70
 20
590
 30
0
 11
71.04071164443211
 21
583.75
 31
0
 12
68.95928835556789
 22
583.75
 32
0
 13
68.95928835556789
 23
583.75
 33
0
  0
MTEXT
  5
B0
100
AcDbEntity
  8
sizes
  6
CONTINUOUS
 62
    0
370
   -2
100
AcDbMText
 10
65.3125
 20
570
 30
0
 40
6.25
 41
8.333333333333332
 71
    5
 72
    1
  1
40
  7
STANDARD
210
0
220
0
230
1
 50
90
 73
    2
 44
1
  0
LINE
  5
B1
100
AcDbEntity
  8
sizes
  6
ByBlock
 62
    0
370
   -2
100
AcDbLine
 10
118.4375
 20
550
 11
66.875
 21
550
  0
LINE
  5
B2
100
AcDbEntity
  8
sizes
  6
ByBlock
 62
    0
370
   -2
100
AcDbLine
 10
143.4375
 20
590
 11
66.875
 21
590
  0
ENDBLK
  5
55
330
53
100
AcDbEntity
  8
0
100
AcDbBlockEnd
  0
BLOCK
  5
57
330
56
100
AcDbEntity
  8
0
100
AcDbBlockBegin
  2
*D18
 70
    1
 10
0
 20
0
  3
*D18
  1

  0
LINE
  5
B3
100
AcDbEntity
  8
sizes
  6
ByBlock
 62
    0
370
   -2
100
AcDbLine
 10
440
 20
742.5
 11
440
 21
713.4
  0
SOLID
  5
B4
100
AcDbEntity
  8
sizes
  6
ByBlock
 62
    0
370
   -2
100
AcDbTrace
 10
440
 20
730
 30
0
 11
438.9592883555679
 21
736.25
 31
0
 12
441.0407116444321
 22
736.25
 32
0
 13
441.0407116444321
 23
736.25
 33
0
  0
SOLID
  5
B5
100
AcDbEntity
  8
sizes
  6
ByBlock
 62
    0
370
   -2
100
AcDbTrace
 10
440
 20
725.9
 30
0
 11
441.0407116444321
 21
719.65
 31
0
 12
438.9592883555679
 22
719.65
 32
0
 13
438.9592883555679
 23
719.65
 33
0
  0
MTEXT
  5
B6
100
AcDbEntity
  8
sizes
  6
CONTINUOUS
 62
    0
370
   -2
100
AcDbMText
 10
435.3125
 20
736.25
 30
0
 40
6.25
 41
9.375
 71
    5
 72
    1
  1
4,1
  7
STANDARD
210
0
220
0
230
1
 50
90
 73
    2
 44
1
  0
LINE
  5
B7
100
AcDbEntity
  8
sizes
  6
ByBlock
 62
    0
370
   -2
100
AcDbLine
 10
413.1625
 20
730
 11
443.125
 21
730
  0
LINE
  5
B8
100
AcDbEntity
  8
sizes
  6
ByBlock
 62
    0
370
   -2
100
AcDbLine
 10
413.1625
 20
725.9
 11
443.125
 21
725.9
  0
ENDBLK
  5
58
330
56
100
AcDbEntity
  8
0
100
AcDbBlockEnd
  0
BLOCK
  5
5A
330
59
100
AcDbEntity
  8
0
100
AcDbBlockBegin
  2
*D5
 70
    1
 10
0
 20
0
  3
*D5
  1

  0
LINE
  5
B9
100
AcDbEntity
  8
sizes
  6
ByBlock
 62
    0
370
   -2
100
AcDbLine
 10
455
 20
900
 11
485
 21
900
  0
SOLID
  5
BA
100
AcDbEntity
  8
sizes
  6
ByBlock
 62
    0
370
   -2
100
AcDbTrace
 10
455
 20
900
 30
0
 11
461.25
 21
901.0407116444321
 31
0
 12
461.25
 22
898.9592883555679
 32
0
 13
461.25
 23
898.9592883555679
 33
0
  0
SOLID
  5
BB
100
AcDbEntity
  8
sizes
  6
ByBlock
 62
    0
370
   -2
100
AcDbTrace
 10
485
 20
900
 30
0
 11
478.75
 21
898.9592883555679
 31
0
 12
478.75
 22
901.0407116444321
 32
0
 13
478.75
 23
901.0407116444321
 33
0
  0
MTEXT
  5
BC
100
AcDbEntity
  8
sizes
  6
CONTINUOUS
 62
    0
370
   -2
100
AcDbMText
 10
470
 20
904.6875
 30
0
 40
6.25
 41
7.638888888889277
 71
    5
 72
    1
  1
30
  7
STANDARD
210
0
220
0
230
1
 50
0
 73
    2
 44
1
  0
LINE
  5
BD
100
AcDbEntity
  8
sizes
  6
ByBlock
 62
    0
370
   -2
100
AcDbLine
 10
455
 20
866.9625000000001
 11
455
 21
903.125
  0
LINE
  5
BE
100
AcDbEntity
  8
sizes
  6
ByBlock
 62
    0
370
   -2
100
AcDbLine
 10
485
 20
886.9625000000001
 11
485
 21
903.125
  0
ENDBLK
  5
5B
330
59
100
AcDbEntity
  8
0
100
AcDbBlockEnd
  0
BLOCK
  5
5D
330
5C
100
AcDbEntity
  8
0
100
AcDbBlockBegin
  2
*D15
 70
    1
 10
0
 20
0
  3
*D15
  1

  0
LINE
  5
BF
100
AcDbEntity
  8
sizes
  6
ByBlock
 62
    0
370
   -2
100
AcDbLine
 10
120
 20
920
 11
120
 21
859.9999999999999
  0
SOLID
  5
C0
100
AcDbEntity
  8
sizes
  6
ByBlock
 62
    0
370
   -2
100
AcDbTrace
 10
120
 20
920
 30
0
 11
121.0407116444321
 21
913.75
 31
0
 12
118.9592883555679
 22
913.75
 32
0
 13
118.9592883555679
 23
913.75
 33
0
  0
SOLID
  5
C1
100
AcDbEntity
  8
sizes
  6
ByBlock
 62
    0
370
   -2
100
AcDbTrace
 10
120
 20
859.9999999999999
 30
0
 11
118.9592883555679
 21
866.2499999999999
 31
0
 12
121.0407116444321
 22
866.2499999999999
 32
0
 13
121.0407116444321
 23
866.2499999999999
 33
0
  0
MTEXT
  5
C2
100
AcDbEntity
  8
sizes
  6
CONTINUOUS
 62
    0
370
   -2
100
AcDbMText
 10
115.3125
 20
890
 30
0
 40
6.25
 41
7.638888888889277
 71
    5
 72
    1
  1
60
  7
STANDARD
210
0
220
0
230
1
 50
90
 73
    2
 44
1
  0
LINE
  5
C3
100
AcDbEntity
  8
sizes
  6
ByBlock
 62
    0
370
   -2
100
AcDbLine
 10
148.4375
 20
920
 11
116.875
 21
920
  0
LINE
  5
C4
100
AcDbEntity
  8
sizes
  6
ByBlock
 62
    0
370
   -2
100
AcDbLine
 10
132.4374999999999
 20
859.9999999999999
 11
116.875
 21
859.9999999999999
  0
ENDBLK
  5
5E
330
5C
100
AcDbEntity
  8
0
100
AcDbBlockEnd
  0
BLOCK
  5
60
330
5F
100
AcDbEntity
  8
0
100
AcDbBlockBegin
  2
*D9
 70
    1
 10
0
 20
0
  3
*D9
  1

  0
LINE
  5
C5
100
AcDbEntity
  8
sizes
  6
ByBlock
 62
    0
370
   -2
100
AcDbLine
 10
145
 20
700
 11
320.0000000000001
 21
700
  0
SOLID
  5
C6
100
AcDbEntity
  8
sizes
  6
ByBlock
 62
    0
370
   -2
100
AcDbTrace
 10
145
 20
700
 30
0
 11
151.25
 21
701.0407116444321
 31
0
 12
151.25
 22
698.9592883555679
 32
0
 13
151.25
 23
698.9592883555679
 33
0
  0
SOLID
  5
C7
100
AcDbEntity
  8
sizes
  6
ByBlock
 62
    0
370
   -2
100
AcDbTrace
 10
320.0000000000001
 20
700
 30
0
 11
313.7500000000001
 21
698.9592883555679
 31
0
 12
313.7500000000001
 22
701.0407116444321
 32
0
 13
313.7500000000001
 23
701.0407116444321
 33
0
  0
MTEXT
  5
C8
100
AcDbEntity
  8
sizes
  6
CONTINUOUS
 62
    0
370
   -2
100
AcDbMText
 10
232.5000000000001
 20
704.6875
 30
0
 40
6.25
 41
11.1111111111115
 71
    5
 72
    1
  1
175
  7
STANDARD
210
0
220
0
230
1
 50
0
 73
    2
 44
1
  0
LINE
  5
C9
100
AcDbEntity
  8
sizes
  6
ByBlock
 62
    0
370
   -2
100
AcDbLine
 10
145
 20
635.0625
 11
145
 21
703.125
  0
LINE
  5
CA
100
AcDbEntity
  8
sizes
  6
ByBlock
 62
    0
370
   -2
100
AcDbLine
 10
320.0000000000001
 20
635.0625
 11
320.0000000000001
 21
703.125
  0
ENDBLK
  5
61
330
5F
100
AcDbEntity
  8
0
100
AcDbBlockEnd
  0
BLOCK
  5
63
330
62
100
AcDbEntity
  8
0
100
AcDbBlockBegin
  2
*D14
 70
    1
 10
0
 20
0
  3
*D14
  1

  0
LINE
  5
CB
100
AcDbEntity
  8
sizes
  6
ByBlock
 62
    0
370
   -2
100
AcDbLine
 10
30.00000000000002
 20
920
 11
30
 21
550
  0
SOLID
  5
CC
100
AcDbEntity
  8
sizes
  6
ByBlock
 62
    0
370
   -2
100
AcDbTrace
 10
30.00000000000002
 20
920
 30
0
 11
31.04071164443213
 21
913.75
 31
0
 12
28.95928835556792
 22
913.75
 32
0
 13
28.95928835556792
 23
913.75
 33
0
  0
SOLID
  5
CD
100
AcDbEntity
  8
sizes
  6
ByBlock
 62
    0
370
   -2
100
AcDbTrace
 10
30
 20
550
 30
0
 11
28.9592883555679
 21
556.25
 31
0
 12
31.0407116444321
 22
556.25
 32
0
 13
31.0407116444321
 23
556.25
 33
0
  0
MTEXT
  5
CE
100
AcDbEntity
  8
sizes
  6
CONTINUOUS
 62
    0
370
   -2
100
AcDbMText
 10
25.31250000000001
 20
735
 30
0
 40
6.25
 41
12.50000000000039
 71
    5
 72
    1
  1
370
  7
STANDARD
210
0
220
0
230
1
 50
90
 73
    2
 44
1
  0
LINE
  5
CF
100
AcDbEntity
  8
sizes
  6
ByBlock
 62
    0
370
   -2
100
AcDbLine
 10
118.4375
 20
920
 11
26.87500000000002
 21
920
  0
LINE
  5
D0
100
AcDbEntity
  8
sizes
  6
ByBlock
 62
    0
370
   -2
100
AcDbLine
 10
108.4375
 20
550
 11
26.875
 21
550
  0
ENDBLK
  5
64
330
62
100
AcDbEntity
  8
0
100
AcDbBlockEnd
  0
BLOCK
  5
66
330
65
100
AcDbEntity
  8
0
100
AcDbBlockBegin
  2
*D3
 70
    1
 10
0
 20
0
  3
*D3
  1

  0
LINE
  5
D1
100
AcDbEntity
  8
sizes
  6
ByBlock
 62
    0
370
   -2
100
AcDbLine
 10
307.4999999999999
 20
810
 11
133.9999999999999
 21
810
  0
SOLID
  5
D2
100
AcDbEntity
  8
sizes
  6
ByBlock
 62
    0
370
   -2
100
AcDbTrace
 10
307.4999999999999
 20
810
 30
0
 11
301.2499999999999
 21
808.9592883555679
 31
0
 12
301.2499999999999
 22
811.0407116444321
 32
0
 13
301.2499999999999
 23
811.0407116444321
 33
0
  0
SOLID
  5
D3
100
AcDbEntity
  8
sizes
  6
ByBlock
 62
    0
370
   -2
100
AcDbTrace
 10
133.9999999999999
 20
810
 30
0
 11
140.2499999999999
 21
811.0407116444321
 31
0
 12
140.2499999999999
 22
808.9592883555679
 32
0
 13
140.2499999999999
 23
808.9592883555679
 33
0
  0
MTEXT
  5
D4
100
AcDbEntity
  8
sizes
  6
CONTINUOUS
 62
    0
370
   -2
100
AcDbMText
 10
220.7499999999999
 20
814.6875
 30
0
 40
6.25
 41
18.40277777777855
 71
    5
 72
    1
  1
173,5
  7
STANDARD
210
0
220
0
230
1
 50
360
 73
    2
 44
1
  0
LINE
  5
D5
100
AcDbEntity
  8
sizes
  6
ByBlock
 62
    0
370
   -2
100
AcDbLine
 10
307.4999999999999
 20
858.4374999999999
 11
307.4999999999999
 21
806.875
  0
LINE
  5
D6
100
AcDbEntity
  8
sizes
  6
ByBlock
 62
    0
370
   -2
100
AcDbLine
 10
133.9999999999999
 20
858.4374999999999
 11
133.9999999999999
 21
806.875
  0
ENDBLK
  5
67
330
65
100
AcDbEntity
  8
0
100
AcDbBlockEnd
  0
BLOCK
  5
69
330
68
100
AcDbEntity
  8
0
100
AcDbBlockBegin
  2
*D28
 70
    1
 10
0
 20
0
  3
*D28
  1

  0
LINE
  5
D7
100
AcDbEntity
  8
sizes
  6
ByBlock
 62
    0
370
   -2
100
AcDbLine
 10
30.00000000000002
 20
450
 11
30
 21
200
  0
SOLID
  5
D8
100
AcDbEntity
  8
sizes
  6
ByBlock
 62
    0
370
   -2
100
AcDbTrace
 10
30.00000000000002
 20
450
 30
0
 11
31.04071164443212
 21
443.75
 31
0
 12
28.95928835556792
 22
443.75
 32
0
 13
28.95928835556792
 23
443.75
 33
0
  0
SOLID
  5
D9
100
AcDbEntity
  8
sizes
  6
ByBlock
 62
    0
370
   -2
100
AcDbTrace
 10
30
 20
200
 30
0
 11
28.9592883555679
 21
206.25
 31
0
 12
31.0407116444321
 22
206.25
 32
0
 13
31.0407116444321
 23
206.25
 33
0
  0
MTEXT
  5
DA
100
AcDbEntity
  8
sizes
  6
CONTINUOUS
 62
    0
370
   -2
100
AcDbMText
 10
25.31250000000001
 20
325
 30
0
 40
6.25
 41
12.50000000000039
 71
    5
 72
    1
  1
250
  7
STANDARD
210
0
220
0
230
1
 50
90
 73
    2
 44
1
  0
LINE
  5
DB
100
AcDbEntity
  8
sizes
  6
ByBlock
 62
    0
370
   -2
100
AcDbLine
 10
128.4375
 20
450
 11
26.87500000000002
 21
450
  0
LINE
  5
DC
100
AcDbEntity
  8
sizes
  6
ByBlock
 62
    0
370
   -2
100
AcDbLine
 10
118.4375
 20
200
 11
26.875
 21
200
  0
ENDBLK
  5
6A
330
68
100
AcDbEntity
  8
0
100
AcDbBlockEnd
  0
BLOCK
  5
6C
330
6B
100
AcDbEntity
  8
0
100
AcDbBlockBegin
  2
*D21
 70
    1
 10
0
 20
0
  3
*D21
  1

  0
LINE
  5
DD
100
AcDbEntity
  8
sizes
  6
ByBlock
 62
    0
370
   -2
100
AcDbLine
 10
532
 20
550
 11
532
 21
644
  0
SOLID
  5
DE
100
AcDbEntity
  8
sizes
  6
ByBlock
 62
    0
370
   -2
100
AcDbTrace
 10
532
 20
550
 30
0
 11
530.9592883555679
 21
556.25
 31
0
 12
533.0407116444321
 22
556.25
 32
0
 13
533.0407116444321
 23
556.25
 33
0
  0
SOLID
  5
DF
100
AcDbEntity
  8
sizes
  6
ByBlock
 62
    0
370
   -2
100
AcDbTrace
 10
532
 20
644
 30
0
 11
533.0407116444321
 21
637.75
 31
0
 12
530.9592883555679
 22
637.75
 32
0
 13
530.9592883555679
 23
637.75
 33
0
  0
MTEXT
  5
E0
100
AcDbEntity
  8
sizes
  6
CONTINUOUS
 62
    0
370
   -2
100
AcDbMText
 10
527.3125
 20
597
 30
0
 40
6.25
 41
8.333333333333723
 71
    5
 72
    1
  1
94
  7
STANDARD
210
0
220
0
230
1
 50
90
 73
    2
 44
1
  0
LINE
  5
E1
100
AcDbEntity
  8
sizes
  6
ByBlock
 62
    0
370
   -2
100
AcDbLine
 10
511.5625205897288
 20
550
 11
535.125
 21
550
  0
LINE
  5
E2
100
AcDbEntity
  8
sizes
  6
ByBlock
 62
    0
370
   -2
100
AcDbLine
 10
495.5625
 20
644
 11
535.125
 21
644
  0
ENDBLK
  5
6D
330
6B
100
AcDbEntity
  8
0
100
AcDbBlockEnd
  0
BLOCK
  5
6F
330
6E
100
AcDbEntity
  8
0
100
AcDbBlockBegin
  2
*D29
 70
    1
 10
0
 20
0
  3
*D29
  1

  0
LINE
  5
E3
100
AcDbEntity
  8
sizes
  6
ByBlock
 62
    0
370
   -2
100
AcDbLine
 10
60
 20
450
 11
60
 21
418.0000000000001
  0
SOLID
  5
E4
100
AcDbEntity
  8
sizes
  6
ByBlock
 62
    0
370
   -2
100
AcDbTrace
 10
60
 20
450
 30
0
 11
61.0407116444321
 21
443.75
 31
0
 12
58.9592883555679
 22
443.75
 32
0
 13
58.9592883555679
 23
443.75
 33
0
  0
SOLID
  5
E5
100
AcDbEntity
  8
sizes
  6
ByBlock
 62
    0
370
   -2
100
AcDbTrace
 10
60
 20
418.0000000000001
 30
0
 11
58.9592883555679
 21
424.2500000000001
 31
0
 12
61.0407116444321
 22
424.2500000000001
 32
0
 13
61.0407116444321
 23
424.2500000000001
 33
0
  0
MTEXT
  5
E6
100
AcDbEntity
  8
sizes
  6
CONTINUOUS
 62
    0
370
   -2
100
AcDbMText
 10
55.3125
 20
434
 30
0
 40
6.25
 41
7.638888888889277
 71
    5
 72
    1
  1
32
  7
STANDARD
210
0
220
0
230
1
 50
90
 73
    2
 44
1
  0
LINE
  5
E7
100
AcDbEntity
  8
sizes
  6
ByBlock
 62
    0
370
   -2
100
AcDbLine
 10
118.4375
 20
450
 11
56.875
 21
450
  0
LINE
  5
E8
100
AcDbEntity
  8
sizes
  6
ByBlock
 62
    0
370
   -2
100
AcDbLine
 10
161.4375
 20
418.0000000000001
 11
56.875
 21
418.0000000000001
  0
ENDBLK
  5
70
330
6E
100
AcDbEntity
  8
0
100
AcDbBlockEnd
  0
BLOCK
  5
72
330
71
100
AcDbEntity
  8
0
100
AcDbBlockBegin
  2
*D17
 70
    1
 10
0
 20
0
  3
*D17
  1

  0
LINE
  5
E9
100
AcDbEntity
  8
sizes
  6
ByBlock
 62
    0
370
   -2
100
AcDbLine
 10
370
 20
725.9
 11
370
 21
710
  0
SOLID
  5
EA
100
AcDbEntity
  8
sizes
  6
ByBlock
 62
    0
370
   -2
100
AcDbTrace
 10
370
 20
725.9
 30
0
 11
371.0407116444321
 21
719.65
 31
0
 12
368.9592883555679
 22
719.65
 32
0
 13
368.9592883555679
 23
719.65
 33
0
  0
SOLID
  5
EB
100
AcDbEntity
  8
sizes
  6
ByBlock
 62
    0
370
   -2
100
AcDbTrace
 10
370
 20
710
 30
0
 11
368.9592883555679
 21
716.25
 31
0
 12
371.0407116444321
 22
716.25
 32
0
 13
371.0407116444321
 23
716.25
 33
0
  0
MTEXT
  5
EC
100
AcDbEntity
  8
sizes
  6
CONTINUOUS
 62
    0
370
   -2
100
AcDbMText
 10
365.3125
 20
717.95
 30
0
 40
6.25
 41
13.54166666666706
 71
    5
 72
    1
  1
15,9
  7
STANDARD
210
0
220
0
230
1
 50
90
 73
    2
 44
1
  0
LINE
  5
ED
100
AcDbEntity
  8
sizes
  6
ByBlock
 62
    0
370
   -2
100
AcDbLine
 10
309.0624999999999
 20
725.9
 11
373.125
 21
725.9
  0
LINE
  5
EE
100
AcDbEntity
  8
sizes
  6
ByBlock
 62
    0
370
   -2
100
AcDbLine
 10
337.0625
 20
710
 11
373.125
 21
710
  0
ENDBLK
  5
73
330
71
100
AcDbEntity
  8
0
100
AcDbBlockEnd
  0
BLOCK
  5
75
330
74
100
AcDbEntity
  8
0
100
AcDbBlockBegin
  2
*D4
 70
    1
 10
0
 20
0
  3
*D4
  1

  0
LINE
  5
EF
100
AcDbEntity
  8
sizes
  6
ByBlock
 62
    0
370
   -2
100
AcDbLine
 10
481
 20
840
 11
455
 21
840
  0
SOLID
  5
F0
100
AcDbEntity
  8
sizes
  6
ByBlock
 62
    0
370
   -2
100
AcDbTrace
 10
481
 20
840
 30
0
 11
474.75
 21
838.9592883555679
 31
0
 12
474.75
 22
841.0407116444321
 32
0
 13
474.75
 23
841.0407116444321
 33
0
  0
SOLID
  5
F1
100
AcDbEntity
  8
sizes
  6
ByBlock
 62
    0
370
   -2
100
AcDbTrace
 10
455
 20
840
 30
0
 11
461.25
 21
841.0407116444321
 31
0
 12
461.25
 22
838.9592883555679
 32
0
 13
461.25
 23
838.9592883555679
 33
0
  0
MTEXT
  5
F2
100
AcDbEntity
  8
sizes
  6
CONTINUOUS
 62
    0
370
   -2
100
AcDbMText
 10
468
 20
844.6875
 30
0
 40
6.25
 41
7.638888888889277
 71
    5
 72
    1
  1
26
  7
STANDARD
210
0
220
0
230
1
 50
360
 73
    2
 44
1
  0
LINE
  5
F3
100
AcDbEntity
  8
sizes
  6
ByBlock
 62
    0
370
   -2
100
AcDbLine
 10
481
 20
858.4375
 11
481
 21
836.875
  0
LINE
  5
F4
100
AcDbEntity
  8
sizes
  6
ByBlock
 62
    0
370
   -2
100
AcDbLine
 10
455
 20
863.8375000000001
 11
455
 21
836.875
  0
ENDBLK
  5
76
330
74
100
AcDbEntity
  8
0
100
AcDbBlockEnd
  0
BLOCK
  5
78
330
77
100
AcDbEntity
  8
0
100
AcDbBlockBegin
  2
*D1
 70
    1
 10
0
 20
0
  3
*D1
  1

  0
LINE
  5
F5
100
AcDbEntity
  8
sizes
  6
ByBlock
 62
    0
370
   -2
100
AcDbLine
 10
307.4999999999999
 20
960
 11
100
 21
960
  0
SOLID
  5
F6
100
AcDbEntity
  8
sizes
  6
ByBlock
 62
    0
370
   -2
100
AcDbTrace
 10
307.4999999999999
 20
960
 30
0
 11
301.2499999999999
 21
958.9592883555679
 31
0
 12
301.2499999999999
 22
961.0407116444321
 32
0
 13
301.2499999999999
 23
961.0407116444321
 33
0
  0
SOLID
  5
F7
100
AcDbEntity
  8
sizes
  6
ByBlock
 62
    0
370
   -2
100
AcDbTrace
 10
100
 20
960
 30
0
 11
106.25
 21
961.0407116444321
 31
0
 12
106.25
 22
958.9592883555679
 32
0
 13
106.25
 23
958.9592883555679
 33
0
  0
MTEXT
  5
F8
100
AcDbEntity
  8
sizes
  6
CONTINUOUS
 62
    0
370
   -2
100
AcDbMText
 10
203.75
 20
964.6875
 30
0
 40
6.25
 41
19.79166666666706
 71
    5
 72
    1
  1
207,5
  7
STANDARD
210
0
220
0
230
1
 50
360
 73
    2
 44
1
  0
LINE
  5
F9
100
AcDbEntity
  8
sizes
  6
ByBlock
 62
    0
370
   -2
100
AcDbLine
 10
307.4999999999999
 20
921.5625
 11
307.4999999999999
 21
963.125
  0
LINE
  5
FA
100
AcDbEntity
  8
sizes
  6
ByBlock
 62
    0
370
   -2
100
AcDbLine
 10
100
 20
901.5625
 11
100
 21
963.125
  0
ENDBLK
  5
79
330
77
100
AcDbEntity
  8
0
100
AcDbBlockEnd
  0
BLOCK
  5
7B
330
7A
100
AcDbEntity
  8
0
100
AcDbBlockBegin
  2
*D11
 70
    1
 10
0
 20
0
  3
*D11
  1

  0
LINE
  5
FB
100
AcDbEntity
  8
sizes
  6
ByBlock
 62
    0
370
   -2
100
AcDbLine
 10
515
 20
670
 11
493.75
 21
670
  0
SOLID
  5
FC
100
AcDbEntity
  8
sizes
  6
ByBlock
 62
    0
370
   -2
100
AcDbTrace
 10
515
 20
670
 30
0
 11
508.75
 21
668.9592883555679
 31
0
 12
508.75
 22
671.0407116444321
 32
0
 13
508.75
 23
671.0407116444321
 33
0
  0
SOLID
  5
FD
100
AcDbEntity
  8
sizes
  6
ByBlock
 62
    0
370
   -2
100
AcDbTrace
 10
493.75
 20
670
 30
0
 11
500
 21
671.0407116444321
 31
0
 12
500
 22
668.9592883555679
 32
0
 13
500
 23
668.9592883555679
 33
0
  0
MTEXT
  5
FE
100
AcDbEntity
  8
sizes
  6
CONTINUOUS
 62
    0
370
   -2
100
AcDbMText
 10
504.375
 20
674.6875
 30
0
 40
6.25
 41
18.40277777777816
 71
    5
 72
    1
  1
21,25
  7
STANDARD
210
0
220
0
230
1
 50
360
 73
    2
 44
1
  0
LINE
  5
FF
100
AcDbEntity
  8
sizes
  6
ByBlock
 62
    0
370
   -2
100
AcDbLine
 10
515
 20
649.7875672771365
 11
515
 21
673.125
  0
LINE
  5
100
100
AcDbEntity
  8
sizes
  6
ByBlock
 62
    0
370
   -2
100
AcDbLine
 10
493.75
 20
645.5625
 11
493.75
 21
673.125
  0
ENDBLK
  5
7C
330
7A
100
AcDbEntity
  8
0
100
AcDbBlockEnd
  0
BLOCK
  5
7E
330
7D
100
AcDbEntity
  8
0
100
AcDbBlockBegin
  2
*D27
 70
    1
 10
0
 20
0
  3
*D27
  1

  0
LINE
  5
101
100
AcDbEntity
  8
sizes
  6
ByBlock
 62
    0
370
   -2
100
AcDbLine
 10
257
 20
220
 11
156
 21
220
  0
SOLID
  5
102
100
AcDbEntity
  8
sizes
  6
ByBlock
 62
    0
370
   -2
100
AcDbTrace
 10
257
 20
220
 30
0
 11
250.75
 21
218.9592883555679
 31
0
 12
250.75
 22
221.0407116444321
 32
0
 13
250.75
 23
221.0407116444321
 33
0
  0
SOLID
  5
103
100
AcDbEntity
  8
sizes
  6
ByBlock
 62
    0
370
   -2
100
AcDbTrace
 10
156
 20
220
 30
0
 11
162.25
 21
221.0407116444321
 31
0
 12
162.25
 22
218.9592883555679
 32
0
 13
162.25
 23
218.9592883555679
 33
0
  0
MTEXT
  5
104
100
AcDbEntity
  8
sizes
  6
CONTINUOUS
 62
    0
370
   -2
100
AcDbMText
 10
206.5
 20
224.6875
 30
0
 40
6.25
 41
9.722222222222221
 71
    5
 72
    1
  1
101
  7
STANDARD
210
0
220
0
230
1
 50
360
 73
    2
 44
1
  0
LINE
  5
105
100
AcDbEntity
  8
sizes
  6
ByBlock
 62
    0
370
   -2
100
AcDbLine
 10
257
 20
253.9375
 11
257
 21
216.875
  0
LINE
  5
106
100
AcDbEntity
  8
sizes
  6
ByBlock
 62
    0
370
   -2
100
AcDbLine
 10
156
 20
253.9375
 11
156
 21
216.875
  0
ENDBLK
  5
7F
330
7D
100
AcDbEntity
  8
0
100
AcDbBlockEnd
  0
BLOCK
  5
81
330
80
100
AcDbEntity
  8
0
100
AcDbBlockBegin
  2
*D2
 70
    1
 10
0
 20
0
  3
*D2
  1

  0
LINE
  5
107
100
AcDbEntity
  8
sizes
  6
ByBlock
 62
    0
370
   -2
100
AcDbLine
 10
307.4999999999999
 20
900
 11
279.5
 21
900
  0
SOLID
  5
108
100
AcDbEntity
  8
sizes
  6
ByBlock
 62
    0
370
   -2
100
AcDbTrace
 10
307.4999999999999
 20
900
 30
0
 11
301.2499999999999
 21
898.9592883555679
 31
0
 12
301.2499999999999
 22
901.0407116444321
 32
0
 13
301.2499999999999
 23
901.0407116444321
 33
0
  0
SOLID
  5
109
100
AcDbEntity
  8
sizes
  6
ByBlock
 62
    0
370
   -2
100
AcDbTrace
 10
279.5
 20
900
 30
0
 11
285.75
 21
901.0407116444321
 31
0
 12
285.75
 22
898.9592883555679
 32
0
 13
285.75
 23
898.9592883555679
 33
0
  0
MTEXT
  5
10A
100
AcDbEntity
  8
sizes
  6
CONTINUOUS
 62
    0
370
   -2
100
AcDbMText
 10
293.5
 20
904.6875
 30
0
 40
6.25
 41
7.638888888888888
 71
    5
 72
    1
  1
28
  7
STANDARD
210
0
220
0
230
1
 50
360
 73
    2
 44
1
  0
LINE
  5
10B
100
AcDbEntity
  8
sizes
  6
ByBlock
 62
    0
370
   -2
100
AcDbLine
 10
307.4999999999999
 20
918.4375
 11
307.4999999999999
 21
896.875
  0
LINE
  5
10C
100
AcDbEntity
  8
sizes
  6
ByBlock
 62
    0
370
   -2
100
AcDbLine
 10
279.5
 20
881.5625
 11
279.5
 21
903.125
  0
ENDBLK
  5
82
330
80
100
AcDbEntity
  8
0
100
AcDbBlockEnd
  0
BLOCK
  5
84
330
83
100
AcDbEntity
  8
0
100
AcDbBlockBegin
  2
*D25
 70
    1
 10
0
 20
0
  3
*D25
  1

  0
LINE
  5
10D
100
AcDbEntity
  8
sizes
  6
ByBlock
 62
    0
370
   -2
100
AcDbLine
 10
307.5
 20
440
 11
250
 21
440
  0
SOLID
  5
10E
100
AcDbEntity
  8
sizes
  6
ByBlock
 62
    0
370
   -2
100
AcDbTrace
 10
307.5
 20
440
 30
0
 11
301.25
 21
438.9592883555679
 31
0
 12
301.25
 22
441.0407116444321
 32
0
 13
301.25
 23
441.0407116444321
 33
0
  0
SOLID
  5
10F
100
AcDbEntity
  8
sizes
  6
ByBlock
 62
    0
370
   -2
100
AcDbTrace
 10
250
 20
440
 30
0
 11
256.25
 21
441.0407116444321
 31
0
 12
256.25
 22
438.9592883555679
 32
0
 13
256.25
 23
438.9592883555679
 33
0
  0
MTEXT
  5
110
100
AcDbEntity
  8
sizes
  6
CONTINUOUS
 62
    0
370
   -2
100
AcDbMText
 10
278.75
 20
444.6875
 30
0
 40
6.25
 41
14.93055555555633
 71
    5
 72
    1
  1
57,5
  7
STANDARD
210
0
220
0
230
1
 50
360
 73
    2
 44
1
  0
LINE
  5
111
100
AcDbEntity
  8
sizes
  6
ByBlock
 62
    0
370
   -2
100
AcDbLine
 10
307.5
 20
448.4375
 11
307.5
 21
436.875
  0
LINE
  5
112
100
AcDbEntity
  8
sizes
  6
ByBlock
 62
    0
370
   -2
100
AcDbLine
 10
250
 20
419.5625000000001
 11
250
 21
443.125
  0
ENDBLK
  5
85
330
83
100
AcDbEntity
  8
0
100
AcDbBlockEnd
  0
BLOCK
  5
87
330
86
100
AcDbEntity
  8
0
100
AcDbBlockBegin
  2
*D20
 70
    1
 10
0
 20
0
  3
*D20
  1

  0
LINE
  5
113
100
AcDbEntity
  8
sizes
  6
ByBlock
 62
    0
370
   -2
100
AcDbLine
 10
510
 20
860
 11
510
 21
885.4000000000001
  0
SOLID
  5
114
100
AcDbEntity
  8
sizes
  6
ByBlock
 62
    0
370
   -2
100
AcDbTrace
 10
510
 20
860
 30
0
 11
508.9592883555679
 21
866.25
 31
0
 12
511.0407116444321
 22
866.25
 32
0
 13
511.0407116444321
 23
866.25
 33
0
  0
SOLID
  5
115
100
AcDbEntity
  8
sizes
  6
ByBlock
 62
    0
370
   -2
100
AcDbTrace
 10
510
 20
885.4000000000001
 30
0
 11
511.0407116444321
 21
879.1500000000001
 31
0
 12
508.9592883555679
 22
879.1500000000001
 32
0
 13
508.9592883555679
 23
879.1500000000001
 33
0
  0
MTEXT
  5
116
100
AcDbEntity
  8
sizes
  6
CONTINUOUS
 62
    0
370
   -2
100
AcDbMText
 10
505.3125
 20
872.7
 30
0
 40
6.25
 41
15.62500000000039
 71
    5
 72
    1
  1
25,4
  7
STANDARD
210
0
220
0
230
1
 50
90
 73
    2
 44
1
  0
LINE
  5
117
100
AcDbEntity
  8
sizes
  6
ByBlock
 62
    0
370
   -2
100
AcDbLine
 10
482.5625
 20
860
 11
513.125
 21
860
  0
LINE
  5
118
100
AcDbEntity
  8
sizes
  6
ByBlock
 62
    0
370
   -2
100
AcDbLine
 10
486.5625
 20
885.4000000000001
 11
513.125
 21
885.4000000000001
  0
ENDBLK
  5
88
330
86
100
AcDbEntity
  8
0
100
AcDbBlockEnd
  0
BLOCK
  5
8A
330
89
100
AcDbEntity
  8
0
100
AcDbBlockBegin
  2
*D13
 70
    1
 10
0
 20
0
  3
*D13
  1

  0
LINE
  5
119
100
AcDbEntity
  8
sizes
  6
ByBlock
 62
    0
370
   -2
100
AcDbLine
 10
587.5
 20
420
 11
622.5
 21
420
  0
SOLID
  5
11A
100
AcDbEntity
  8
sizes
  6
ByBlock
 62
    0
370
   -2
100
AcDbTrace
 10
600
 20
420
 30
0
 11
593.75
 21
418.9592883555679
 31
0
 12
593.75
 22
421.0407116444321
 32
0
 13
593.75
 23
421.0407116444321
 33
0
  0
SOLID
  5
11B
100
AcDbEntity
  8
sizes
  6
ByBlock
 62
    0
370
   -2
100
AcDbTrace
 10
610
 20
420
 30
0
 11
616.25
 21
421.0407116444321
 31
0
 12
616.25
 22
418.9592883555679
 32
0
 13
616.25
 23
418.9592883555679
 33
0
  0
MTEXT
  5
11C
100
AcDbEntity
  8
sizes
  6
CONTINUOUS
 62
    0
370
   -2
100
AcDbMText
 10
605
 20
424.6875
 30
0
 40
6.25
 41
6.25
 71
    5
 72
    1
  1
10
  7
STANDARD
210
0
220
0
230
1
 50
0
 73
    2
 44
1
  0
LINE
  5
11D
100
AcDbEntity
  8
sizes
  6
ByBlock
 62
    0
370
   -2
100
AcDbLine
 10
600
 20
448.4375
 11
600
 21
416.875
  0
LINE
  5
11E
100
AcDbEntity
  8
sizes
  6
ByBlock
 62
    0
370
   -2
100
AcDbLine
 10
610
 20
448.4375
 11
610
 21
416.875
  0
ENDBLK
  5
8B
330
89
100
AcDbEntity
  8
0
100
AcDbBlockEnd
  0
BLOCK
  5
8D
330
8C
100
AcDbEntity
  8
0
100
AcDbBlockBegin
  2
*D12
 70
    1
 10
0
 20
0
  3
*D12
  1

  0
LINE
  5
11F
100
AcDbEntity
  8
sizes
  6
ByBlock
 62
    0
370
   -2
100
AcDbLine
 10
506.25
 20
680
 11
468.75
 21
680
  0
SOLID
  5
120
100
AcDbEntity
  8
sizes
  6
ByBlock
 62
    0
370
   -2
100
AcDbTrace
 10
493.75
 20
680
 30
0
 11
500
 21
681.0407116444321
 31
0
 12
500
 22
678.9592883555679
 32
0
 13
500
 23
678.9592883555679
 33
0
  0
SOLID
  5
121
100
AcDbEntity
  8
sizes
  6
ByBlock
 62
    0
370
   -2
100
AcDbTrace
 10
481.25
 20
680
 30
0
 11
475
 21
678.9592883555679
 31
0
 12
475
 22
681.0407116444321
 32
0
 13
475
 23
681.0407116444321
 33
0
  0
MTEXT
  5
122
100
AcDbEntity
  8
sizes
  6
CONTINUOUS
 62
    0
370
   -2
100
AcDbMText
 10
502.0833333333335
 20
684.6875
 30
0
 40
6.25
 41
13.54166666666706
 71
    5
 72
    1
  1
12,5
  7
STANDARD
210
0
220
0
230
1
 50
360
 73
    2
 44
1
  0
LINE
  5
123
100
AcDbEntity
  8
sizes
  6
ByBlock
 62
    0
370
   -2
100
AcDbLine
 10
493.75
 20
645.5625
 11
493.75
 21
683.125
  0
LINE
  5
124
100
AcDbEntity
  8
sizes
  6
ByBlock
 62
    0
370
   -2
100
AcDbLine
 10
481.25
 20
645.5625
 11
481.25
 21
683.125
  0
ENDBLK
  5
8E
330
8C
100
AcDbEntity
  8
0
100
AcDbBlockEnd
  0
BLOCK
  5
90
330
8F
100
AcDbEntity
  8
0
100
AcDbBlockBegin
  2
*D19
 70
    1
 10
0
 20
0
  3
*D19
  1

  0
LINE
  5
125
100
AcDbEntity
  8
sizes
  6
ByBlock
 62
    0
370
   -2
100
AcDbLine
 10
120
 20
860
 11
120
 21
725.9
  0
SOLID
  5
126
100
AcDbEntity
  8
sizes
  6
ByBlock
 62
    0
370
   -2
100
AcDbTrace
 10
120
 20
860
 30
0
 11
121.0407116444321
 21
853.75
 31
0
 12
118.9592883555679
 22
853.75
 32
0
 13
118.9592883555679
 23
853.75
 33
0
  0
SOLID
  5
127
100
AcDbEntity
  8
sizes
  6
ByBlock
 62
    0
370
   -2
100
AcDbTrace
 10
120
 20
725.9
 30
0
 11
118.9592883555679
 21
732.15
 31
0
 12
121.0407116444321
 22
732.15
 32
0
 13
121.0407116444321
 23
732.15
 33
0
  0
MTEXT
  5
128
100
AcDbEntity
  8
sizes
  6
CONTINUOUS
 62
    0
370
   -2
100
AcDbMText
 10
115.3125
 20
792.95
 30
0
 40
6.25
 41
17.70833333333372
 71
    5
 72
    1
  1
134,1
  7
STANDARD
210
0
220
0
230
1
 50
90
 73
    2
 44
1
  0
LINE
  5
129
100
AcDbEntity
  8
sizes
  6
ByBlock
 62
    0
370
   -2
100
AcDbLine
 10
138.4375
 20
860
 11
116.875
 21
860
  0
LINE
  5
12A
100
AcDbEntity
  8
sizes
  6
ByBlock
 62
    0
370
   -2
100
AcDbLine
 10
132.4375
 20
725.9
 11
116.875
 21
725.9
  0
ENDBLK
  5
91
330
8F
100
AcDbEntity
  8
0
100
AcDbBlockEnd
  0
BLOCK
  5
93
330
92
100
AcDbEntity
  8
0
100
AcDbBlockBegin
  2
*D16
 70
    1
 10
0
 20
0
  3
*D16
  1

  0
LINE
  5
12B
100
AcDbEntity
  8
sizes
  6
ByBlock
 62
    0
370
   -2
100
AcDbLine
 10
250
 20
859.9999999999999
 11
250
 21
880
  0
SOLID
  5
12C
100
AcDbEntity
  8
sizes
  6
ByBlock
 62
    0
370
   -2
100
AcDbTrace
 10
250
 20
859.9999999999999
 30
0
 11
248.9592883555679
 21
866.2499999999999
 31
0
 12
251.0407116444321
 22
866.2499999999999
 32
0
 13
251.0407116444321
 23
866.2499999999999
 33
0
  0
SOLID
  5
12D
100
AcDbEntity
  8
sizes
  6
ByBlock
 62
    0
370
   -2
100
AcDbTrace
 10
250
 20
880
 30
0
 11
251.0407116444321
 21
873.75
 31
0
 12
248.9592883555679
 22
873.75
 32
0
 13
248.9592883555679
 23
873.75
 33
0
  0
MTEXT
  5
12E
100
AcDbEntity
  8
sizes
  6
CONTINUOUS
 62
    0
370
   -2
100
AcDbMText
 10
245.3125
 20
870
 30
0
 40
6.25
 41
7.638888888888888
 71
    5
 72
    1
  1
20
  7
STANDARD
210
0
220
0
230
1
 50
90
 73
    2
 44
1
  0
LINE
  5
12F
100
AcDbEntity
  8
sizes
  6
ByBlock
 62
    0
370
   -2
100
AcDbLine
 10
305.9374999999999
 20
859.9999999999999
 11
246.875
 21
859.9999999999999
  0
LINE
  5
130
100
AcDbEntity
  8
sizes
  6
ByBlock
 62
    0
370
   -2
100
AcDbLine
 10
277.9375
 20
880
 11
246.875
 21
880
  0
ENDBLK
  5
94
330
92
100
AcDbEntity
  8
0
100
AcDbBlockEnd
  0
BLOCK
  5
96
330
95
100
AcDbEntity
  8
0
100
AcDbBlockBegin
  2
*D23
 70
    1
 10
0
 20
0
  3
*D23
  1

  0
LINE
  5
131
100
AcDbEntity
  8
sizes
  6
CONTINUOUS
 62
    7
370
    0
100
AcDbLine
 10
500
 20
650
 11
540
 21
660
  0
SOLID
  5
132
100
AcDbEntity
  8
sizes
  6
CONTINUOUS
 62
    7
370
    0
100
AcDbTrace
 10
500
 20
650
 30
0
 11
505.8109809767434
 21
652.5254862531368
 31
0
 12
506.3158002750732
 22
650.5062090598174
 32
0
 13
506.3158002750732
 23
650.5062090598174
 33
0
  0
ENDBLK
  5
97
330
95
100
AcDbEntity
  8
0
100
AcDbBlockEnd
  0
BLOCK
  5
99
330
98
100
AcDbEntity
  8
0
100
AcDbBlockBegin
  2
*D24
 70
    1
 10
0
 20
0
  3
*D24
  1

  0
LINE
  5
133
100
AcDbEntity
  8
sizes
  6
CONTINUOUS
 62
    7
370
    0
100
AcDbLine
 10
490
 20
890
 11
550
 21
900
  0
SOLID
  5
134
100
AcDbEntity
  8
sizes
  6
CONTINUOUS
 62
    7
370
    0
100
AcDbTrace
 10
490
 20
890
 30
0
 11
495.9938700835294
 21
892.0540453131877
 31
0
 12
496.3360539643724
 22
890.0009420281293
 32
0
 13
496.3360539643724
 23
890.0009420281293
 33
0
  0
ENDBLK
  5
9A
330
98
100
AcDbEntity
  8
0
100
AcDbBlockEnd
  0
BLOCK
  5
9C
330
9B
100
AcDbEntity
  8
0
100
AcDbBlockBegin
  2
*D7
 70
    1
 10
0
 20
0
  3
*D7
  1

  0
LINE
  5
135
100
AcDbEntity
  8
sizes
  6
ByBlock
 62
    0
370
   -2
100
AcDbLine
 10
307.5000000000001
 20
760
 11
203.4
 21
760
  0
SOLID
  5
136
100
AcDbEntity
  8
sizes
  6
ByBlock
 62
    0
370
   -2
100
AcDbTrace
 10
307.5000000000001
 20
760
 30
0
 11
301.2500000000001
 21
758.9592883555679
 31
0
 12
301.2500000000001
 22
761.0407116444321
 32
0
 13
301.2500000000001
 23
761.0407116444321
 33
0
  0
SOLID
  5
137
100
AcDbEntity
  8
sizes
  6
ByBlock
 62
    0
370
   -2
100
AcDbTrace
 10
203.4
 20
760
 30
0
 11
209.65
 21
761.0407116444321
 31
0
 12
209.65
 22
758.9592883555679
 32
0
 13
209.65
 23
758.9592883555679
 33
0
  0
MTEXT
  5
138
100
AcDbEntity
  8
sizes
  6
CONTINUOUS
 62
    0
370
   -2
100
AcDbMText
 10
255.45
 20
764.6875
 30
0
 40
6.25
 41
17.70833333333334
 71
    5
 72
    1
  1
104,1
  7
STANDARD
210
0
220
0
230
1
 50
360
 73
    2
 44
1
  0
LINE
  5
139
100
AcDbEntity
  8
sizes
  6
ByBlock
 62
    0
370
   -2
100
AcDbLine
 10
307.5000000000001
 20
727.4625
 11
307.5000000000001
 21
763.125
  0
LINE
  5
13A
100
AcDbEntity
  8
sizes
  6
ByBlock
 62
    0
370
   -2
100
AcDbLine
 10
203.4
 20
731.5625
 11
203.4
 21
763.125
  0
ENDBLK
  5
9D
330
9B
100
AcDbEntity
  8
0
100
AcDbBlockEnd
  0
BLOCK
  5
9F
330
9E
100
AcDbEntity
  8
0
100
AcDbBlockBegin
  2
*D26
 70
    1
 10
0
 20
0
  3
*D26
  1

  0
LINE
  5
13B
100
AcDbEntity
  8
sizes
  6
ByBlock
 62
    0
370
   -2
100
AcDbLine
 10
250
 20
470
 11
163
 21
470
  0
SOLID
  5
13C
100
AcDbEntity
  8
sizes
  6
ByBlock
 62
    0
370
   -2
100
AcDbTrace
 10
250
 20
470
 30
0
 11
243.75
 21
468.9592883555679
 31
0
 12
243.75
 22
471.0407116444321
 32
0
 13
243.75
 23
471.0407116444321
 33
0
  0
SOLID
  5
13D
100
AcDbEntity
  8
sizes
  6
ByBlock
 62
    0
370
   -2
100
AcDbTrace
 10
163
 20
470
 30
0
 11
169.25
 21
471.0407116444321
 31
0
 12
169.25
 22
468.9592883555679
 32
0
 13
169.25
 23
468.9592883555679
 33
0
  0
MTEXT
  5
13E
100
AcDbEntity
  8
sizes
  6
CONTINUOUS
 62
    0
370
   -2
100
AcDbMText
 10
206.5
 20
474.6875
 30
0
 40
6.25
 41
7.638888888888888
 71
    5
 72
    1
  1
87
  7
STANDARD
210
0
220
0
230
1
 50
360
 73
    2
 44
1
  0
LINE
  5
13F
100
AcDbEntity
  8
sizes
  6
ByBlock
 62
    0
370
   -2
100
AcDbLine
 10
250
 20
419.5625000000001
 11
250
 21
473.125
  0
LINE
  5
140
100
AcDbEntity
  8
sizes
  6
ByBlock
 62
    0
370
   -2
100
AcDbLine
 10
163
 20
419.5625000000001
 11
163
 21
473.125
  0
ENDBLK
  5
A0
330
9E
100
AcDbEntity
  8
0
100
AcDbBlockEnd
  0
BLOCK
  5
A2
330
A1
100
AcDbEntity
  8
0
100
AcDbBlockBegin
  2
*D6
 70
    1
 10
0
 20
0
  3
*D6
  1

  0
LINE
  5
141
100
AcDbEntity
  8
sizes
  6
ByBlock
 62
    0
370
   -2
100
AcDbLine
 10
307.5000000000001
 20
740
 11
272.8000000000001
 21
740
  0
SOLID
  5
142
100
AcDbEntity
  8
sizes
  6
ByBlock
 62
    0
370
   -2
100
AcDbTrace
 10
307.5000000000001
 20
740
 30
0
 11
301.2500000000001
 21
738.9592883555679
 31
0
 12
301.2500000000001
 22
741.0407116444321
 32
0
 13
301.2500000000001
 23
741.0407116444321
 33
0
  0
SOLID
  5
143
100
AcDbEntity
  8
sizes
  6
ByBlock
 62
    0
370
   -2
100
AcDbTrace
 10
272.8000000000001
 20
740
 30
0
 11
279.0500000000001
 21
741.0407116444321
 31
0
 12
279.0500000000001
 22
738.9592883555679
 32
0
 13
279.0500000000001
 23
738.9592883555679
 33
0
  0
MTEXT
  5
144
100
AcDbEntity
  8
sizes
  6
CONTINUOUS
 62
    0
370
   -2
100
AcDbMText
 10
290.1500000000001
 20
744.6875
 30
0
 40
6.25
 41
15.62500000000039
 71
    5
 72
    1
  1
34,7
  7
STANDARD
210
0
220
0
230
1
 50
360
 73
    2
 44
1
  0
LINE
  5
145
100
AcDbEntity
  8
sizes
  6
ByBlock
 62
    0
370
   -2
100
AcDbLine
 10
307.5000000000001
 20
727.4625
 11
307.5000000000001
 21
743.125
  0
LINE
  5
146
100
AcDbEntity
  8
sizes
  6
ByBlock
 62
    0
370
   -2
100
AcDbLine
 10
272.8000000000001
 20
731.5625
 11
272.8000000000001
 21
743.125
  0
ENDBLK
  5
A3
330
A1
100
AcDbEntity
  8
0
100
AcDbBlockEnd
  0
BLOCK
  5
A5
330
A4
100
AcDbEntity
  8
0
100
AcDbBlockBegin
  2
*D10
 70
    1
 10
0
 20
0
  3
*D10
  1

  0
LINE
  5
147
100
AcDbEntity
  8
sizes
  6
ByBlock
 62
    0
370
   -2
100
AcDbLine
 10
307.5
 20
560
 11
157.5
 21
560
  0
SOLID
  5
148
100
AcDbEntity
  8
sizes
  6
ByBlock
 62
    0
370
   -2
100
AcDbTrace
 10
307.5
 20
560
 30
0
 11
301.25
 21
558.9592883555679
 31
0
 12
301.25
 22
561.0407116444321
 32
0
 13
301.25
 23
561.0407116444321
 33
0
  0
SOLID
  5
149
100
AcDbEntity
  8
sizes
  6
ByBlock
 62
    0
370
   -2
100
AcDbTrace
 10
157.5
 20
560
 30
0
 11
163.75
 21
561.0407116444321
 31
0
 12
163.75
 22
558.9592883555679
 32
0
 13
163.75
 23
558.9592883555679
 33
0
  0
MTEXT
  5
14A
100
AcDbEntity
  8
sizes
  6
CONTINUOUS
 62
    0
370
   -2
100
AcDbMText
 10
232.5
 20
564.6875
 30
0
 40
6.25
 41
11.1111111111115
 71
    5
 72
    1
  1
150
  7
STANDARD
210
0
220
0
230
1
 50
360
 73
    2
 44
1
  0
LINE
  5
14B
100
AcDbEntity
  8
sizes
  6
ByBlock
 62
    0
370
   -2
100
AcDbLine
 10
307.5
 20
581.4375
 11
307.5
 21
556.875
  0
LINE
  5
14C
100
AcDbEntity
  8
sizes
  6
ByBlock
 62
    0
370
   -2
100
AcDbLine
 10
157.5
 20
581.4375
 11
157.5
 21
556.875
  0
ENDBLK
  5
A6
330
A4
100
AcDbEntity
  8
0
100
AcDbBlockEnd
  0
ENDSEC
  0
SECTION
  2
ENTITIES
  0
LWPOLYLINE
  5
14D
100
AcDbEntity
  8
0
  6
ByLayer
 62
  256
370
   -1
100
AcDbPolyline
 90
    4
 70
    1
 43
0
 10
600
 20
500
 10
610
 20
500
 10
610
 20
450
 10
600
 20
450
  0
LWPOLYLINE
  5
14E
100
AcDbEntity
  8
0
  6
ByLayer
 62
  256
370
   -1
100
AcDbPolyline
 90
    4
 70
    1
 43
0
 10
320.0000000000001
 20
590
 10
320.0000000000001
 20
677
 10
145
 20
677
 10
145
 20
590
  0
LINE
  5
14F
100
AcDbEntity
  8
0
  6
ByLayer
 62
  256
370
   -1
100
AcDbLine
 10
481
 20
860.0000000000001
 11
133.9999999999999
 21
859.9999999999999
  0
LINE
  5
150
100
AcDbEntity
  8
0
  6
ByLayer
 62
  256
370
   -1
100
AcDbLine
 10
133.9999999999999
 20
859.9999999999999
 11
134
 21
725.9
  0
LINE
  5
151
100
AcDbEntity
  8
0
  6
ByLayer
 62
  256
370
   -1
100
AcDbLine
 10
481
 20
725.9
 11
481
 21
860.0000000000001
  0
LINE
  5
152
100
AcDbEntity
  8
0
  6
ByLayer
 62
  256
370
   -1
100
AcDbLine
 10
134
 20
725.9
 11
203.4
 21
725.9
  0
LINE
  5
153
100
AcDbEntity
  8
0
  6
ByLayer
 62
  256
370
   -1
100
AcDbLine
 10
272.8000000000001
 20
725.9
 11
342.2000000000001
 21
725.9
  0
LINE
  5
154
100
AcDbEntity
  8
0
  6
ByLayer
 62
  256
370
   -1
100
AcDbLine
 10
411.6
 20
725.9
 11
481
 21
725.9
  0
LINE
  5
155
100
AcDbEntity
  8
0
  6
ByLayer
 62
  256
370
   -1
100
AcDbLine
 10
411.6
 20
725.9
 11
411.6
 21
730
  0
LINE
  5
156
100
AcDbEntity
  8
0
  6
ByLayer
 62
  256
370
   -1
100
AcDbLine
 10
342.2000000000001
 20
725.9
 11
342.2000000000001
 21
730
  0
LINE
  5
157
100
AcDbEntity
  8
0
  6
ByLayer
 62
  256
370
   -1
100
AcDbLine
 10
272.8000000000001
 20
725.9
 11
272.8000000000001
 21
730
  0
LINE
  5
158
100
AcDbEntity
  8
0
  6
ByLayer
 62
  256
370
   -1
100
AcDbLine
 10
203.4
 20
730
 11
272.8000000000001
 21
730
  0
LINE
  5
159
100
AcDbEntity
  8
0
  6
ByLayer
 62
  256
370
   -1
100
AcDbLine
 10
342.2000000000001
 20
730
 11
411.6
 21
730
  0
LINE
  5
15A
100
AcDbEntity
  8
0
  6
ByLayer
 62
  256
370
   -1
100
AcDbLine
 10
203.4
 20
725.9
 11
203.4
 21
730
  0
CIRCLE
  5
15B
100
AcDbEntity
  8
0
  6
ByLayer
 62
  256
370
   -1
100
AcDbCircle
 10
335.5
 20
710
 40
2.5
  0
CIRCLE
  5
15C
100
AcDbEntity
  8
0
  6
ByLayer
 62
  256
370
   -1
100
AcDbCircle
 10
279.5
 20
710
 40
2.5
  0
CIRCLE
  5
15D
100
AcDbEntity
  8
0
  6
ByLayer
 62
  256
370
   -1
100
AcDbCircle
 10
335.5
 20
880
 40
2.5
  0
CIRCLE
  5
15E
100
AcDbEntity
  8
0
  6
ByLayer
 62
  256
370
   -1
100
AcDbCircle
 10
279.5
 20
880
 40
2.5
  0
CIRCLE
  5
15F
100
AcDbEntity
  8
0
  6
ByLayer
 62
  256
370
   -1
100
AcDbCircle
 10
307.5
 20
684
 40
2.5
  0
CIRCLE
  5
160
100
AcDbEntity
  8
0
  6
ByLayer
 62
  256
370
   -1
100
AcDbCircle
 10
307.5
 20
583
 40
2.5
  0
CIRCLE
  5
161
100
AcDbEntity
  8
0
  6
ByLayer
 62
  256
370
   -1
100
AcDbCircle
 10
157.5
 20
583
 40
2.5
  0
CIRCLE
  5
162
100
AcDbEntity
  8
0
  6
ByLayer
 62
  256
370
   -1
100
AcDbCircle
 10
157.5
 20
684
 40
2.5
  0
LWPOLYLINE
  5
163
100
AcDbEntity
  8
0
  6
ByLayer
 62
  256
370
   -1
100
AcDbPolyline
 90
    8
 70
    1
 43
0
 10
355
 20
580
 10
365
 20
580
 42
0.414213562373095
 10
370
 20
585
 10
370
 20
605
 42
0.414213562373095
 10
365
 20
610
 10
355
 20
610
 42
0.414213562373095
 10
350
 20
605
 10
350
 20
585
 42
0.414213562373095
  0
LWPOLYLINE
  5
164
100
AcDbEntity
  8
0
  6
ByLayer
 62
  256
370
   -1
100
AcDbPolyline
 90
    8
 70
    1
 43
0
 10
405.0000000000001
 20
580
 10
415.0000000000001
 20
580
 42
0.414213562373095
 10
420.0000000000001
 20
585
 10
420.0000000000001
 20
605
 42
0.414213562373095
 10
415.0000000000001
 20
610
 10
405.0000000000001
 20
610
 42
0.414213562373095
 10
400.0000000000001
 20
605
 10
400.0000000000001
 20
585
 42
0.414213562373095
  0
LWPOLYLINE
  5
165
100
AcDbEntity
  8
0
  6
ByLayer
 62
  256
370
   -1
100
AcDbPolyline
 90
    8
 70
    1
 43
0
 10
455
 20
580
 10
465
 20
580
 42
0.414213562373095
 10
470
 20
585
 10
470
 20
605
 42
0.414213562373095
 10
465
 20
610
 10
455
 20
610
 42
0.414213562373095
 10
450.0000000000001
 20
605
 10
450
 20
585
 42
0.414213562373095
  0
LWPOLYLINE
  5
166
100
AcDbEntity
  8
0
  6
ByLayer
 62
  256
370
   -1
100
AcDbPolyline
 90
    8
 70
    1
 43
0
 10
430.0000000000001
 20
630
 10
440.0000000000001
 20
630
 42
0.414213562373095
 10
445.0000000000001
 20
635
 10
445.0000000000001
 20
655
 42
0.414213562373095
 10
440.0000000000001
 20
660
 10
430.0000000000001
 20
660
 42
0.414213562373095
 10
425.0000000000001
 20
655
 10
425.0000000000001
 20
635
 42
0.414213562373095
  0
LWPOLYLINE
  5
167
100
AcDbEntity
  8
0
  6
ByLayer
 62
  256
370
   -1
100
AcDbPolyline
 90
    8
 70
    1
 43
0
 10
380
 20
630
 10
390
 20
630
 42
0.414213562373095
 10
395
 20
635
 10
395
 20
655
 42
0.414213562373095
 10
390
 20
660
 10
380
 20
660
 42
0.414213562373095
 10
375
 20
655
 10
375
 20
635
 42
0.414213562373095
  0
LWPOLYLINE
  5
168
100
AcDbEntity
  8
0
  6
ByLayer
 62
  256
370
   -1
100
AcDbPolyline
 90
    8
 70
    1
 43
0
 10
100
 20
555
 10
99.99999999999993
 20
914.9999999999999
 42
-0.4142135623730966
 10
104.9999999999999
 20
919.9999999999999
 10
510
 20
920.0000000000001
 42
-0.414213562373095
 10
515
 20
915.0000000000001
 10
515
 20
555
 42
-0.414213562373095
 10
510
 20
550
 10
105
 20
550
 42
-0.414213562373095
  0
CIRCLE
  5
169
100
AcDbEntity
  8
0
  6
ByLayer
 62
  256
370
   -1
100
AcDbCircle
 10
455
 20
865.4000000000001
 40
1.6
  0
CIRCLE
  5
16A
100
AcDbEntity
  8
0
  6
ByLayer
 62
  256
370
   -1
100
AcDbCircle
 10
485
 20
885.4000000000001
 40
1.6
  0
LWPOLYLINE
  5
16B
100
AcDbEntity
  8
ads
  6
ByLayer
 62
  256
370
   -1
100
AcDbPolyline
 90
    4
 70
    1
 43
0
 10
450
 20
860.4000000000001
 10
450
 20
890.4000000000001
 10
490
 20
890.4000000000001
 10
490
 20
860.4000000000001
  0
LWPOLYLINE
  5
16C
100
AcDbEntity
  8
ads
  6
ByLayer
 62
  256
370
   -1
100
AcDbPolyline
 90
    4
 70
    1
 43
0
 10
460
 20
650
 10
500
 20
650
 10
500
 20
630
 10
460
 20
630
  0
LWPOLYLINE
  5
16D
100
AcDbEntity
  8
ads
  6
ByLayer
 62
  256
370
   -1
100
AcDbPolyline
 90
    4
 70
    1
 43
0
 10
475
 20
638
 10
500
 20
638
 10
500
 20
650
 10
475
 20
650
  0
LINE
  5
16E
100
AcDbEntity
  8
ads
  6
ByLayer
 62
  256
370
   -1
100
AcDbLine
 10
475
 20
644
 11
500
 21
644
  0
LINE
  5
16F
100
AcDbEntity
  8
ads
  6
ByLayer
 62
  256
370
   -1
100
AcDbLine
 10
481.25
 20
650
 11
481.25
 21
638
  0
LINE
  5
170
100
AcDbEntity
  8
ads
  6
ByLayer
 62
  256
370
   -1
100
AcDbLine
 10
493.75
 20
638
 11
493.75
 21
650
  0
CIRCLE
  5
171
100
AcDbEntity
  8
ads
  6
ByLayer
 62
  256
370
   -1
100
AcDbCircle
 10
493.75
 20
644
 40
3.4
  0
CIRCLE
  5
172
100
AcDbEntity
  8
ads
  6
ByLayer
 62
  256
370
   -1
100
AcDbCircle
 10
481.25
 20
644
 40
3.4
  0
CIRCLE
  5
173
100
AcDbEntity
  8
ads
  6
ByLayer
 62
  256
370
   -1
100
AcDbCircle
 10
493.75
 20
644
 40
1.8
  0
CIRCLE
  5
174
100
AcDbEntity
  8
ads
  6
ByLayer
 62
  256
370
   -1
100
AcDbCircle
 10
481.25
 20
644
 40
1.8
  0
CIRCLE
  5
175
100
AcDbEntity
  8
0
  6
ByLayer
 62
  256
370
   -1
100
AcDbCircle
 10
481.25
 20
644
 40
1.25
  0
CIRCLE
  5
176
100
AcDbEntity
  8
0
  6
ByLayer
 62
  256
370
   -1
100
AcDbCircle
 10
493.75
 20
644
 40
1.25
  0
LINE
  5
177
100
AcDbEntity
  8
ads
  6
ByLayer
 62
  256
370
   -1
100
AcDbLine
 10
130
 20
633.5
 11
330
 21
633.5
  0
LINE
  5
178
100
AcDbEntity
  8
ads
  6
ByLayer
 62
  256
370
   -1
100
AcDbLine
 10
232.5000000000001
 20
690
 11
232.5000000000001
 21
580
  0
DIMENSION
  5
179
100
AcDbEntity
  8
sizes
  6
ByLayer
 62
  256
370
   -1
100
AcDbDimension
  2
*D1
 10
100
 20
960
 30
0
 11
203.75
 21
964.6875
 31
0
 70
   32
 71
    5
  3
Standard
 53
0
210
0
220
0
230
1
100
AcDbAlignedDimension
 13
307.4999999999999
 23
920
 33
0
 14
100
 24
900
 34
0
100
AcDbRotatedDimension
  0
DIMENSION
  5
17A
100
AcDbEntity
  8
sizes
  6
ByLayer
 62
  256
370
   -1
100
AcDbDimension
  2
*D2
 10
279.5
 20
900
 30
0
 11
293.5
 21
904.6875
 31
0
 70
   32
 71
    5
  3
Standard
 53
0
210
0
220
0
230
1
100
AcDbAlignedDimension
 13
307.4999999999999
 23
920
 33
0
 14
279.5
 24
880
 34
0
100
AcDbRotatedDimension
  0
DIMENSION
  5
17B
100
AcDbEntity
  8
sizes
  6
ByLayer
 62
  256
370
   -1
100
AcDbDimension
  2
*D3
 10
133.9999999999999
 20
810
 30
0
 11
220.7499999999999
 21
814.6875
 31
0
 70
   32
 71
    5
  3
Standard
 53
0
210
0
220
0
230
1
100
AcDbAlignedDimension
 13
307.4999999999999
 23
859.9999999999999
 33
0
 14
133.9999999999999
 24
859.9999999999999
 34
0
100
AcDbRotatedDimension
  0
DIMENSION
  5
17C
100
AcDbEntity
  8
sizes
  6
ByLayer
 62
  256
370
   -1
100
AcDbDimension
  2
*D4
 10
455
 20
840
 30
0
 11
468
 21
844.6875
 31
0
 70
   32
 71
    5
  3
Standard
 53
0
210
0
220
0
230
1
100
AcDbAlignedDimension
 13
481
 23
860
 33
0
 14
455
 24
865.4000000000001
 34
0
100
AcDbRotatedDimension
  0
DIMENSION
  5
17D
100
AcDbEntity
  8
sizes
  6
ByLayer
 62
  256
370
   -1
100
AcDbDimension
  2
*D5
 10
485
 20
900
 30
0
 11
470
 21
904.6875
 31
0
 70
   32
 71
    5
  3
Standard
 53
0
210
0
220
0
230
1
100
AcDbAlignedDimension
 13
455
 23
865.4000000000001
 33
0
 14
485
 24
885.4000000000001
 34
0
100
AcDbRotatedDimension
  0
DIMENSION
  5
17E
100
AcDbEntity
  8
sizes
  6
ByLayer
 62
  256
370
   -1
100
AcDbDimension
  2
*D6
 10
272.8000000000001
 20
740
 30
0
 11
290.1500000000001
 21
744.6875
 31
0
 70
   32
 71
    5
  3
Standard
 53
0
210
0
220
0
230
1
100
AcDbAlignedDimension
 13
307.5000000000001
 23
725.9
 33
0
 14
272.8000000000001
 24
730
 34
0
100
AcDbRotatedDimension
  0
DIMENSION
  5
17F
100
AcDbEntity
  8
sizes
  6
ByLayer
 62
  256
370
   -1
100
AcDbDimension
  2
*D7
 10
203.4
 20
760
 30
0
 11
255.45
 21
764.6875
 31
0
 70
   32
 71
    5
  3
Standard
 53
0
210
0
220
0
230
1
100
AcDbAlignedDimension
 13
307.5000000000001
 23
725.9
 33
0
 14
203.4
 24
730
 34
0
100
AcDbRotatedDimension
  0
DIMENSION
  5
180
100
AcDbEntity
  8
sizes
  6
ByLayer
 62
  256
370
   -1
100
AcDbDimension
  2
*D8
 10
320.0000000000001
 20
540
 30
0
 11
313.7500000000001
 21
544.6875
 31
0
 70
   32
 71
    5
  3
Standard
 53
0
210
0
220
0
230
1
100
AcDbAlignedDimension
 13
307.5
 23
550
 33
0
 14
320.0000000000001
 24
590
 34
0
100
AcDbRotatedDimension
  0
DIMENSION
  5
181
100
AcDbEntity
  8
sizes
  6
ByLayer
 62
  256
370
   -1
100
AcDbDimension
  2
*D9
 10
320.0000000000001
 20
700
 30
0
 11
232.5000000000001
 21
704.6875
 31
0
 70
   32
 71
    5
  3
Standard
 53
0
210
0
220
0
230
1
100
AcDbAlignedDimension
 13
145
 23
633.5
 33
0
 14
320.0000000000001
 24
633.5
 34
0
100
AcDbRotatedDimension
  0
DIMENSION
  5
182
100
AcDbEntity
  8
sizes
  6
ByLayer
 62
  256
370
   -1
100
AcDbDimension
  2
*D10
 10
157.5
 20
560
 30
0
 11
232.5
 21
564.6875
 31
0
 70
   32
 71
    5
  3
Standard
 53
0
210
0
220
0
230
1
100
AcDbAlignedDimension
 13
307.5
 23
583
 33
0
 14
157.5
 24
583
 34
0
100
AcDbRotatedDimension
  0
DIMENSION
  5
183
100
AcDbEntity
  8
sizes
  6
ByLayer
 62
  256
370
   -1
100
AcDbDimension
  2
*D11
 10
493.75
 20
670
 30
0
 11
504.375
 21
674.6875
 31
0
 70
   32
 71
    5
  3
Standard
 53
0
210
0
220
0
230
1
100
AcDbAlignedDimension
 13
515
 23
648.2250672771365
 33
0
 14
493.75
 24
644
 34
0
100
AcDbRotatedDimension
  0
DIMENSION
  5
184
100
AcDbEntity
  8
sizes
  6
ByLayer
 62
  256
370
   -1
100
AcDbDimension
  2
*D12
 10
481.25
 20
680
 30
0
 11
487.5
 21
684.6875
 31
0
 70
   32
 71
    5
  3
Standard
 53
0
210
0
220
0
230
1
100
AcDbAlignedDimension
 13
493.75
 23
644
 33
0
 14
481.25
 24
644
 34
0
100
AcDbRotatedDimension
  0
DIMENSION
  5
185
100
AcDbEntity
  8
sizes
  6
ByLayer
 62
  256
370
   -1
100
AcDbDimension
  2
*D13
 10
610
 20
420
 30
0
 11
605
 21
424.6875
 31
0
 70
   32
 71
    5
  3
Standard
 53
0
210
0
220
0
230
1
100
AcDbAlignedDimension
 13
600
 23
450
 33
0
 14
610
 24
450
 34
0
100
AcDbRotatedDimension
  0
DIMENSION
  5
186
100
AcDbEntity
  8
sizes
  6
ByLayer
 62
  256
370
   -1
100
AcDbDimension
  2
*D14
 10
30
 20
550
 30
0
 11
25.31250000000001
 21
735
 31
0
 70
   32
 71
    5
  3
Standard
 53
0
210
0
220
0
230
1
100
AcDbAlignedDimension
 13
120
 23
920
 33
0
 14
110
 24
550
 34
0
 50
90
100
AcDbRotatedDimension
  0
DIMENSION
  5
187
100
AcDbEntity
  8
sizes
  6
ByLayer
 62
  256
370
   -1
100
AcDbDimension
  2
*D15
 10
120
 20
859.9999999999999
 30
0
 11
115.3125
 21
890
 31
0
 70
   32
 71
    5
  3
Standard
 53
0
210
0
220
0
230
1
100
AcDbAlignedDimension
 13
150
 23
920
 33
0
 14
133.9999999999999
 24
859.9999999999999
 34
0
 50
90
100
AcDbRotatedDimension
  0
DIMENSION
  5
188
100
AcDbEntity
  8
sizes
  6
ByLayer
 62
  256
370
   -1
100
AcDbDimension
  2
*D16
 10
250
 20
880
 30
0
 11
245.3125
 21
870
 31
0
 70
   32
 71
    5
  3
Standard
 53
0
210
0
220
0
230
1
100
AcDbAlignedDimension
 13
307.4999999999999
 23
859.9999999999999
 33
0
 14
279.5
 24
880
 34
0
 50
90
100
AcDbRotatedDimension
  0
DIMENSION
  5
189
100
AcDbEntity
  8
sizes
  6
ByLayer
 62
  256
370
   -1
100
AcDbDimension
  2
*D17
 10
370
 20
710
 30
0
 11
365.3125
 21
717.95
 31
0
 70
   32
 71
    5
  3
Standard
 53
0
210
0
220
0
230
1
100
AcDbAlignedDimension
 13
307.4999999999999
 23
725.9
 33
0
 14
335.5
 24
710
 34
0
 50
90
100
AcDbRotatedDimension
  0
DIMENSION
  5
18A
100
AcDbEntity
  8
sizes
  6
ByLayer
 62
  256
370
   -1
100
AcDbDimension
  2
*D18
 10
440
 20
725.9
 30
0
 11
435.3125
 21
727.95
 31
0
 70
   32
 71
    5
  3
Standard
 53
0
210
0
220
0
230
1
100
AcDbAlignedDimension
 13
411.6
 23
730
 33
0
 14
411.6
 24
725.9
 34
0
 50
90
100
AcDbRotatedDimension
  0
DIMENSION
  5
18B
100
AcDbEntity
  8
sizes
  6
ByLayer
 62
  256
370
   -1
100
AcDbDimension
  2
*D19
 10
120
 20
725.9
 30
0
 11
115.3125
 21
792.95
 31
0
 70
   32
 71
    5
  3
Standard
 53
0
210
0
220
0
230
1
100
AcDbAlignedDimension
 13
140
 23
860
 33
0
 14
134
 24
725.9
 34
0
 50
90
100
AcDbRotatedDimension
  0
DIMENSION
  5
18C
100
AcDbEntity
  8
sizes
  6
ByLayer
 62
  256
370
   -1
100
AcDbDimension
  2
*D20
 10
510
 20
885.4000000000001
 30
0
 11
505.3125
 21
872.7
 31
0
 70
   32
 71
    5
  3
Standard
 53
0
210
0
220
0
230
1
100
AcDbAlignedDimension
 13
481
 23
860
 33
0
 14
485
 24
885.4000000000001
 34
0
 50
90
100
AcDbRotatedDimension
  0
DIMENSION
  5
18D
100
AcDbEntity
  8
sizes
  6
ByLayer
 62
  256
370
   -1
100
AcDbDimension
  2
*D21
 10
532
 20
644
 30
0
 11
527.3125
 21
597
 31
0
 70
   32
 71
    5
  3
Standard
 53
0
210
0
220
0
230
1
100
AcDbAlignedDimension
 13
510.0000205897288
 23
550
 33
0
 14
494
 24
644
 34
0
 50
90
100
AcDbRotatedDimension
  0
DIMENSION
  5
18E
100
AcDbEntity
  8
sizes
  6
ByLayer
 62
  256
370
   -1
100
AcDbDimension
  2
*D22
 10
70
 20
590
 30
0
 11
65.3125
 21
570
 31
0
 70
   32
 71
    5
  3
Standard
 53
0
210
0
220
0
230
1
100
AcDbAlignedDimension
 13
120
 23
550
 33
0
 14
145
 24
590
 34
0
 50
90
100
AcDbRotatedDimension
  0
MTEXT
  5
18F
100
AcDbEntity
  8
sizes
  6
ByLayer
 62
  256
370
   -1
100
AcDbMText
 10
569.7916666666666
 20
668.3333333333334
 30
0
 40
5
 41
71.25
 71
    5
 72
    1
  1
Place of the magnet:\P25x12x4
  7
unicode
210
0
220
0
230
1
 50
0
 73
    2
 44
1
  0
LEADER
  5
190
100
AcDbEntity
  8
sizes
  6
ByLayer
 62
  256
370
   -1
100
AcDbLeader
  3
Standard
 71
    1
 72
    0
 73
    3
 74
    0
 75
    0
 40
1
 41
10
 76
2
 76
2
 10
500
 20
650
 30
0
 10
540
 20
660
 30
0
  0
LEADER
  5
191
100
AcDbEntity
  8
sizes
  6
ByLayer
 62
  256
370
   -1
100
AcDbLeader
  3
Standard
 71
    1
 72
    0
 73
    3
 74
    0
 75
    0
 40
1
 41
10
 76
2
 76
2
 10
490
 20
890
 30
0
 10
550
 20
900
 30
0
  0
MTEXT
  5
192
100
AcDbEntity
  8
sizes
  6
ByLayer
 62
  256
370
   -1
100
AcDbMText
 10
560
 20
910
 30
0
 40
5
 41
68.47555780420456
 71
    5
 72
    1
  1
Place of the sensor
  7
unicode
210
0
220
0
230
1
 50
0
 73
    2
 44
1
  0
LWPOLYLINE
  5
193
100
AcDbEntity
  8
0
  6
ByLayer
 62
  256
370
   -1
100
AcDbPolyline
 90
    4
 70
    1
 43
0
 10
163
 20
243
 10
163
 20
418
 10
250.0000000000001
 20
418
 10
250.0000000000001
 20
243
  0
CIRCLE
  5
194
100
AcDbEntity
  8
0
  6
ByLayer
 62
  256
370
   -1
100
AcDbCircle
 10
257
 20
255.5
 40
2.5
  0
CIRCLE
  5
195
100
AcDbEntity
  8
0
  6
ByLayer
 62
  256
370
   -1
100
AcDbCircle
 10
156
 20
255.5
 40
2.5
  0
CIRCLE
  5
196
100
AcDbEntity
  8
0
  6
ByLayer
 62
  256
370
   -1
100
AcDbCircle
 10
155.9999999999999
 20
405.5
 40
2.5
  0
CIRCLE
  5
197
100
AcDbEntity
  8
0
  6
ByLayer
 62
  256
370
   -1
100
AcDbCircle
 10
256.9999999999999
 20
405.5
 40
2.5
  0
LWPOLYLINE
  5
198
100
AcDbEntity
  8
0
  6
ByLayer
 62
  256
370
   -1
100
AcDbPolyline
 90
    8
 70
    1
 43
0
 10
470.0000000000001
 20
220.0000000000001
 10
460.0000000000001
 20
220.0000000000001
 42
-0.414213562373095
 10
455.0000000000001
 20
225
 10
455.0000000000001
 20
255
 42
-0.414213562373095
 10
460.0000000000001
 20
260
 10
470.0000000000001
 20
260.0000000000001
 42
-0.414213562373095
 10
475.0000000000001
 20
255.0000000000001
 10
475.0000000000001
 20
225.0000000000001
 42
-0.414213562373095
  0
LWPOLYLINE
  5
199
100
AcDbEntity
  8
0
  6
ByLayer
 62
  256
370
   -1
100
AcDbPolyline
 90
    8
 70
    1
 43
0
 10
410.0000000000001
 20
220
 10
400.0000000000001
 20
220
 42
-0.414213562373095
 10
395.0000000000001
 20
225
 10
395.0000000000001
 20
255
 42
-0.414213562373095
 10
400.0000000000001
 20
260
 10
410.0000000000001
 20
260
 42
-0.414213562373095
 10
415.0000000000001
 20
255
 10
415.0000000000001
 20
225
 42
-0.414213562373095
  0
LWPOLYLINE
  5
19A
100
AcDbEntity
  8
0
  6
ByLayer
 62
  256
370
   -1
100
AcDbPolyline
 90
    8
 70
    1
 43
0
 10
350.0000000000001
 20
220
 10
340.0000000000001
 20
220
 42
-0.414213562373095
 10
335.0000000000001
 20
225
 10
335.0000000000001
 20
255
 42
-0.414213562373095
 10
340.0000000000001
 20
260
 10
350.0000000000001
 20
260
 42
-0.414213562373095
 10
355.0000000000001
 20
255
 10
355.0000000000001
 20
225
 42
-0.414213562373095
  0
LWPOLYLINE
  5
19B
100
AcDbEntity
  8
0
  6
ByLayer
 62
  256
370
   -1
100
AcDbPolyline
 90
    8
 70
    1
 43
0
 10
290.0000000000001
 20
220
 10
280.0000000000001
 20
220
 42
-0.414213562373095
 10
275.0000000000001
 20
225
 10
275.0000000000001
 20
255
 42
-0.414213562373095
 10
280.0000000000001
 20
260
 10
290.0000000000001
 20
260
 42
-0.414213562373095
 10
295.0000000000001
 20
255
 10
295.0000000000001
 20
225
 42
-0.414213562373095
  0
LWPOLYLINE
  5
19C
100
AcDbEntity
  8
0
  6
ByLayer
 62
  256
370
   -1
100
AcDbPolyline
 90
    8
 70
    1
 43
0
 10
440.0000000000001
 20
280
 10
430.0000000000001
 20
280
 42
-0.414213562373095
 10
425.0000000000001
 20
285
 10
425.0000000000001
 20
315
 42
-0.414213562373095
 10
430.0000000000001
 20
320
 10
440.0000000000001
 20
320
 42
-0.414213562373095
 10
445.0000000000001
 20
315
 10
445.0000000000001
 20
285
 42
-0.414213562373095
  0
LWPOLYLINE
  5
19D
100
AcDbEntity
  8
0
  6
ByLayer
 62
  256
370
   -1
100
AcDbPolyline
 90
    8
 70
    1
 43
0
 10
380.0000000000002
 20
280
 10
370.0000000000002
 20
280
 42
-0.414213562373095
 10
365.0000000000002
 20
285
 10
365.0000000000002
 20
315
 42
-0.414213562373095
 10
370.0000000000002
 20
320
 10
380.0000000000002
 20
320
 42
-0.414213562373095
 10
385.0000000000002
 20
315
 10
385.0000000000002
 20
285
 42
-0.414213562373095
  0
LWPOLYLINE
  5
19E
100
AcDbEntity
  8
0
  6
ByLayer
 62
  256
370
   -1
100
AcDbPolyline
 90
    8
 70
    1
 43
0
 10
320.0000000000001
 20
280
 10
310.0000000000001
 20
280
 42
-0.414213562373095
 10
305.0000000000001
 20
285
 10
305.0000000000001
 20
315
 42
-0.414213562373095
 10
310.0000000000001
 20
320
 10
320.0000000000001
 20
320
 42
-0.414213562373095
 10
325.0000000000001
 20
315
 10
325.0000000000001
 20
285
 42
-0.414213562373095
  0
LWPOLYLINE
  5
19F
100
AcDbEntity
  8
0
  6
ByLayer
 62
  256
370
   -1
100
AcDbPolyline
 90
    8
 70
    1
 43
0
 10
470.0000000000001
 20
340
 10
460.0000000000001
 20
340
 42
-0.414213562373095
 10
455.0000000000001
 20
345
 10
455
 20
375
 42
-0.414213562373095
 10
460
 20
380
 10
470
 20
380
 42
-0.414213562373095
 10
475
 20
375
 10
475.0000000000001
 20
345
 42
-0.414213562373095
  0
LWPOLYLINE
  5
1A0
100
AcDbEntity
  8
0
  6
ByLayer
 62
  256
370
   -1
100
AcDbPolyline
 90
    8
 70
    1
 43
0
 10
410.0000000000001
 20
340
 10
400.0000000000001
 20
340
 42
-0.414213562373095
 10
395.0000000000001
 20
345
 10
395.0000000000001
 20
375
 42
-0.414213562373095
 10
400.0000000000001
 20
380
 10
410.0000000000001
 20
380
 42
-0.414213562373095
 10
415.0000000000001
 20
375
 10
415.0000000000001
 20
345
 42
-0.414213562373095
  0
LWPOLYLINE
  5
1A1
100
AcDbEntity
  8
0
  6
ByLayer
 62
  256
370
   -1
100
AcDbPolyline
 90
    8
 70
    1
 43
0
 10
350.0000000000001
 20
340
 10
340.0000000000001
 20
340
 42
-0.414213562373095
 10
335.0000000000001
 20
345
 10
335
 20
375
 42
-0.414213562373095
 10
340
 20
380
 10
350
 20
380
 42
-0.414213562373095
 10
355
 20
375
 10
355.0000000000001
 20
345
 42
-0.414213562373095
  0
LWPOLYLINE
  5
1A2
100
AcDbEntity
  8
0
  6
ByLayer
 62
  256
370
   -1
100
AcDbPolyline
 90
    8
 70
    1
 43
0
 10
290.0000000000001
 20
340
 10
280.0000000000001
 20
340
 42
-0.414213562373095
 10
275.0000000000001
 20
345
 10
275
 20
375
 42
-0.414213562373095
 10
280
 20
380
 10
290
 20
380
 42
-0.414213562373095
 10
295
 20
375
 10
295.0000000000001
 20
345
 42
-0.414213562373095
  0
LWPOLYLINE
  5
1A3
100
AcDbEntity
  8
0
  6
ByLayer
 62
  256
370
   -1
100
AcDbPolyline
 90
    8
 70
    1
 43
0
 10
440.0000000000001
 20
400
 10
430.0000000000001
 20
400
 42
-0.414213562373095
 10
425.0000000000001
 20
405
 10
425.0000000000001
 20
425
 42
-0.414213562373095
 10
430.0000000000001
 20
430
 10
440.0000000000001
 20
430
 42
-0.414213562373095
 10
445.0000000000001
 20
425
 10
445.0000000000001
 20
405
 42
-0.414213562373095
  0
LWPOLYLINE
  5
1A4
100
AcDbEntity
  8
0
  6
ByLayer
 62
  256
370
   -1
100
AcDbPolyline
 90
    8
 70
    1
 43
0
 10
380
 20
400
 10
370
 20
400
 42
-0.414213562373095
 10
365
 20
405
 10
365
 20
425
 42
-0.414213562373095
 10
370
 20
430
 10
380
 20
430
 42
-0.414213562373095
 10
385
 20
425
 10
385
 20
405
 42
-0.414213562373095
  0
LWPOLYLINE
  5
1A5
100
AcDbEntity
  8
0
  6
ByLayer
 62
  256
370
   -1
100
AcDbPolyline
 90
    8
 70
    1
 43
0
 10
320.0000000000001
 20
400
 10
310
 20
400
 42
-0.414213562373095
 10
305
 20
405
 10
305
 20
425
 42
-0.414213562373095
 10
310
 20
430
 10
320.0000000000001
 20
430
 42
-0.414213562373095
 10
325.0000000000001
 20
425
 10
325.0000000000001
 20
405
 42
-0.414213562373095
  0
LWPOLYLINE
  5
1A6
100
AcDbEntity
  8
0
  6
ByLayer
 62
  256
370
   -1
100
AcDbPolyline
 90
    8
 70
    1
 43
0
 10
515
 20
205
 10
515
 20
445.0000000000001
 42
0.414213562373095
 10
510
 20
450.0000000000001
 10
105
 20
449.9999999999999
 42
0.414213562373095
 10
100
 20
444.9999999999999
 10
100.0000000000001
 20
205
 42
0.414213562373095
 10
105.0000000000001
 20
200
 10
510
 20
200
 42
0.4142135623730958
  0
LINE
  5
1A7
100
AcDbEntity
  8
ads
  6
ByLayer
 62
  256
370
   -1
100
AcDbLine
 10
206.5
 20
430
 11
206.5
 21
230
  0
LINE
  5
1A8
100
AcDbEntity
  8
ads
  6
ByLayer
 62
  256
370
   -1
100
AcDbLine
 10
150
 20
330.5
 11
260
 21
330.5
  0
DIMENSION
  5
1A9
100
AcDbEntity
  8
sizes
  6
ByLayer
 62
  256
370
   -1
100
AcDbDimension
  2
*D25
 10
250
 20
440
 30
0
 11
278.75
 21
444.6875
 31
0
 70
   32
 71
    5
  3
Standard
 53
0
210
0
220
0
230
1
100
AcDbAlignedDimension
 13
307.5
 23
450
 33
0
 14
250
 24
418.0000000000001
 34
0
100
AcDbRotatedDimension
  0
DIMENSION
  5
1AA
100
AcDbEntity
  8
sizes
  6
ByLayer
 62
  256
370
   -1
100
AcDbDimension
  2
*D26
 10
163
 20
470
 30
0
 11
206.5
 21
474.6875
 31
0
 70
   32
 71
    5
  3
Standard
 53
0
210
0
220
0
230
1
100
AcDbAlignedDimension
 13
250
 23
418.0000000000001
 33
0
 14
163
 24
418.0000000000001
 34
0
100
AcDbRotatedDimension
  0
DIMENSION
  5
1AB
100
AcDbEntity
  8
sizes
  6
ByLayer
 62
  256
370
   -1
100
AcDbDimension
  2
*D27
 10
156
 20
220
 30
0
 11
206.5
 21
224.6875
 31
0
 70
   32
 71
    5
  3
Standard
 53
0
210
0
220
0
230
1
100
AcDbAlignedDimension
 13
257
 23
255.5
 33
0
 14
156
 24
255.5
 34
0
100
AcDbRotatedDimension
  0
DIMENSION
  5
1AC
100
AcDbEntity
  8
sizes
  6
ByLayer
 62
  256
370
   -1
100
AcDbDimension
  2
*D28
 10
30
 20
200
 30
0
 11
25.31250000000001
 21
325
 31
0
 70
   32
 71
    5
  3
Standard
 53
0
210
0
220
0
230
1
100
AcDbAlignedDimension
 13
130
 23
450
 33
0
 14
120
 24
200
 34
0
 50
90
100
AcDbRotatedDimension
  0
DIMENSION
  5
1AD
100
AcDbEntity
  8
sizes
  6
ByLayer
 62
  256
370
   -1
100
AcDbDimension
  2
*D29
 10
60
 20
418.0000000000001
 30
0
 11
55.3125
 21
434
 31
0
 70
   32
 71
    5
  3
Standard
 53
0
210
0
220
0
230
1
100
AcDbAlignedDimension
 13
120
 23
450
 33
0
 14
163
 24
418.0000000000001
 34
0
 50
90
100
AcDbRotatedDimension
  0
LINE
  5
1AE
100
AcDbEntity
  8
ads
  6
ByLayer
 62
  256
370
   -1
100
AcDbLine
 10
307.4999999999999
 20
960
 11
307.5000000000001
 21
150
  0
MTEXT
  5
1AF
100
AcDbEntity
  8
sizes
  6
ByLayer
 62
  256
370
   -1
100
AcDbMText
 10
600
 20
150
 30
0
 40
10
 41
152.7588911375379
 71
    5
 72
    1
  1
Material: Plexiglass\P(or other transparent)\PWidth: 8 mm
  7
unicode
210
0
220
0
230
1
 50
0
 73
    2
 44
1
  0
MTEXT
  5
1B0
100
AcDbEntity
  8
sizes
  6
ByLayer
 62
  256
370
   -1
100
AcDbMText
 10
120
 20
170
 30
0
 40
10
 41
31.94778002642677
 71
    5
 72
    1
  1
1 pcs
  7
unicode
210
0
220
0
230
1
 50
0
 73
    2
 44
1
  0
MTEXT
  5
1B1
100
AcDbEntity
  8
sizes
  6
ByLayer
 62
  256
370
   -1
100
AcDbMText
 10
120
 20
520
 30
0
 40
10
 41
31.94778002642677
 71
    5
 72
    1
  1
1 pcs
  7
unicode
210
0
220
0
230
1
 50
0
 73
    2
 44
1
  0
MTEXT
  5
1B2
100
AcDbEntity
  8
sizes
  6
ByLayer
 62
  256
370
   -1
100
AcDbMText
 10
600
 20
390
 30
0
 40
10
 41
39.72555780420455
 71
    5
 72
    1
  1
12 pcs
  7
unicode
210
0
220
0
230
1
 50
0
 73
    2
 44
1
  0
MTEXT
  5
1B3
100
AcDbEntity
  8
sizes
  6
ByLayer
 62
  256
370
   -1
100
AcDbMText
 10
470
 20
520
 30
0
 40
10
 41
94.16666666666667
 71
    5
 72
    1
  1
Wheel half-lid
  7
unicode
210
0
220
0
230
1
 50
0
 73
    2
 44
1
  0
MTEXT
  5
1B4
100
AcDbEntity
  8
sizes
  6
ByLayer
 62
  256
370
   -1
100
AcDbMText
 10
460
 20
170
 30
0
 40
10
 41
89.73023179333831
 71
    5
 72
    1
  1
Small half-lid
  7
unicode
210
0
220
0
230
1
 50
0
 73
    2
 44
1
  0
MTEXT
  5
1B5
100
AcDbEntity
  8
sizes
  6
ByLayer
 62
  256
370
   -1
100
AcDbMText
 10
600
 20
360
 30
0
 40
10
 41
85.2811133597601
 71
    5
 72
    1
  1
The treshold
  7
unicode
210
0
220
0
230
1
 50
0
 73
    2
 44
1
  0
ENDSEC
  0
SECTION
  2
OBJECTS
  0
DICTIONARY
  5
C
330
0
100
AcDbDictionary
281
    1
  3
ACAD_GROUP
350
D
  0
DICTIONARY
  5
D
330
C
100
AcDbDictionary
281
    1
  0
ENDSEC
  0
EOF
