999
dxfrw 0.6.3
  0
SECTION
  2
HEADER
  9
$ACADVER
  1
AC1021
  9
$DWGCODEPAGE
  3
ANSI_1252
  9
$INSBASE
 10
0
 20
0
 30
0
  9
$EXTMIN
 10
10000000000
 20
10000000000
 30
0
  9
$EXTMAX
 10
-10000000000
 20
-10000000000
 30
0
  9
$LIMMIN
 10
0
 20
0
  9
$LIMMAX
 10
420
 20
297
  9
$ORTHOMODE
 70
    0
  9
$REGENMODE
 70
    1
  9
$FILLMODE
 70
    1
  9
$QTEXTMODE
 70
    0
  9
$MIRRTEXT
 70
    0
  9
$LTSCALE
 40
1
  9
$ATTMODE
 70
    0
  9
$TEXTSIZE
 40
2.5
  9
$TRACEWID
 40
15.68
  9
$TEXTSTYLE
  7
STANDARD
  9
$CLAYER
  8
sizes
  9
$CELTYPE
  6
BYLAYER
  9
$CECOLOR
 62
  256
  9
$CELTSCALE
 40
1
  9
$DISPSILH
 70
    0
  9
$DIMSCALE
 40
2.5
  9
$DIMASZ
 40
2.5
  9
$DIMEXO
 40
0.625
  9
$DIMDLI
 40
3.75
  9
$DIMRND
 40
0
  9
$DIMDLE
 40
0
  9
$DIMEXE
 40
1.25
  9
$DIMTP
 40
0
  9
$DIMTM
 40
0
  9
$DIMTXT
 40
5
  9
$DIMCEN
 40
2.5
  9
$DIMTSZ
 40
0
  9
$DIMTOL
 70
    0
  9
$DIMLIM
 70
    0
  9
$DIMTIH
 70
    0
  9
$DIMTOH
 70
    0
  9
$DIMSE1
 70
    0
  9
$DIMSE2
 70
    0
  9
$DIMTAD
 70
    1
  9
$DIMZIN
 70
    8
  9
$DIMBLK
  1

  9
$DIMASO
 70
    1
  9
$DIMSHO
 70
    1
  9
$DIMPOST
  1

  9
$DIMAPOST
  1

  9
$DIMALT
 70
    0
  9
$DIMALTD
 70
    3
  9
$DIMALTF
 40
0.03937
  9
$DIMLFAC
 40
1
  9
$DIMTOFL
 70
    1
  9
$DIMTVP
 40
0
  9
$DIMTIX
 70
    0
  9
$DIMSOXD
 70
    0
  9
$DIMSAH
 70
    0
  9
$DIMBLK1
  1

  9
$DIMBLK2
  1

  9
$DIMSTYLE
  2
STANDARD
  9
$DIMCLRD
 70
    0
  9
$DIMCLRE
 70
    0
  9
$DIMCLRT
 70
    0
  9
$DIMTFAC
 40
1
  9
$DIMGAP
 40
0.625
  9
$DIMJUST
 70
    0
  9
$DIMSD1
 70
    0
  9
$DIMSD2
 70
    0
  9
$DIMTOLJ
 70
    0
  9
$DIMTZIN
 70
    8
  9
$DIMALTZ
 70
    0
  9
$DIMALTTZ
 70
    0
  9
$DIMUPT
 70
    0
  9
$DIMDEC
 70
    2
  9
$DIMTDEC
 70
    2
  9
$DIMALTU
 70
    2
  9
$DIMALTTD
 70
    3
  9
$DIMTXSTY
  7
standard
  9
$DIMAUNIT
 70
    0
  9
$DIMADEC
 70
    0
  9
$DIMALTRND
 40
0
  9
$DIMAZIN
 70
    0
  9
$DIMDSEP
 70
   44
  9
$DIMATFIT
 70
    3
  9
$DIMFRAC
 70
    0
  9
$DIMLDRBLK
  1
STANDARD
  9
$DIMLUNIT
 70
    2
  9
$DIMLWD
 70
   -2
  9
$DIMLWE
 70
   -2
  9
$DIMTMOVE
 70
    0
  9
$DIMFXL
 40
1
  9
$DIMFXLON
 70
    0
  9
$DIMJOGANG
 40
0.7854
  9
$DIMTFILL
 70
    0
  9
$DIMTFILLCLR
 70
    0
  9
$DIMARCSYM
 70
    0
  9
$DIMLTYPE
  6

  9
$DIMLTEX1
  6

  9
$DIMLTEX2
  6

  9
$LUNITS
 70
    2
  9
$LUPREC
 70
    4
  9
$SKETCHINC
 40
1
  9
$FILLETRAD
 40
0
  9
$AUNITS
 70
    0
  9
$AUPREC
 70
    2
  9
$MENU
  1
.
  9
$ELEVATION
 40
0
  9
$PELEVATION
 40
0
  9
$THICKNESS
 40
0
  9
$LIMCHECK
 70
    0
  9
$CHAMFERA
 40
0
  9
$CHAMFERB
 40
0
  9
$CHAMFERC
 40
0
  9
$CHAMFERD
 40
0
  9
$SKPOLY
 70
    0
  9
$USRTIMER
 70
    1
  9
$ANGBASE
 50
0
  9
$ANGDIR
 70
    0
  9
$PDMODE
 70
   34
  9
$PDSIZE
 40
0
  9
$PLINEWID
 40
0
  9
$SPLFRAME
 70
    0
  9
$SPLINETYPE
 70
    2
  9
$SPLINESEGS
 70
    8
  9
$HANDSEED
  5
20000
  9
$SURFTAB1
 70
    6
  9
$SURFTAB2
 70
    6
  9
$SURFTYPE
 70
    6
  9
$SURFU
 70
    6
  9
$SURFV
 70
    6
  9
$UCSBASE
  2

  9
$UCSNAME
  2

  9
$UCSORG
 10
0
 20
0
 30
0
  9
$UCSXDIR
 10
1
 20
0
 30
0
  9
$UCSYDIR
 10
0
 20
1
 30
0
  9
$UCSORTHOREF
  2

  9
$UCSORTHOVIEW
 70
    0
  9
$UCSORGTOP
 10
0
 20
0
 30
0
  9
$UCSORGBOTTOM
 10
0
 20
0
 30
0
  9
$UCSORGLEFT
 10
0
 20
0
 30
0
  9
$UCSORGRIGHT
 10
0
 20
0
 30
0
  9
$UCSORGFRONT
 10
0
 20
0
 30
0
  9
$UCSORGBACK
 10
0
 20
0
 30
0
  9
$PUCSBASE
  2

  9
$PUCSNAME
  2

  9
$PUCSORG
 10
0
 20
0
 30
0
  9
$PUCSXDIR
 10
1
 20
0
 30
0
  9
$PUCSYDIR
 10
0
 20
1
 30
0
  9
$PUCSORTHOREF
  2

  9
$PUCSORTHOVIEW
 70
    0
  9
$PUCSORGTOP
 10
0
 20
0
 30
0
  9
$PUCSORGBOTTOM
 10
0
 20
0
 30
0
  9
$PUCSORGLEFT
 10
0
 20
0
 30
0
  9
$PUCSORGRIGHT
 10
0
 20
0
 30
0
  9
$PUCSORGFRONT
 10
0
 20
0
 30
0
  9
$PUCSORGBACK
 10
0
 20
0
 30
0
  9
$USERI1
 70
    0
  9
$USERI2
 70
    0
  9
$USERI3
 70
    0
  9
$USERI4
 70
    0
  9
$USERI5
 70
    0
  9
$USERR1
 40
0
  9
$USERR2
 40
0
  9
$USERR3
 40
0
  9
$USERR4
 40
0
  9
$USERR5
 40
0
  9
$WORLDVIEW
 70
    1
  9
$SHADEDGE
 70
    3
  9
$SHADEDIF
 70
   70
  9
$TILEMODE
 70
    1
  9
$MAXACTVP
 70
   64
  9
$PINSBASE
 10
49.37747336377475
 20
108.9383561643835
 30
0
  9
$PLIMCHECK
 70
    0
  9
$PEXTMIN
 10
0
 20
0
 30
0
  9
$PEXTMAX
 10
0
 20
0
 30
0
  9
$GRIDMODE
 70
    1
  9
$SNAPSTYLE
 70
    0
  9
$GRIDUNIT
 10
0
 20
0
  9
$PLIMMIN
 10
0
 20
0
  9
$PLIMMAX
 10
297
 20
210
  9
$UNITMODE
 70
    0
  9
$VISRETAIN
 70
    1
  9
$PLINEGEN
 70
    0
  9
$PSLTSCALE
 70
    1
  9
$TREEDEPTH
 70
 3020
  9
$CMLSTYLE
  2
Standard
  9
$CMLJUST
 70
    0
  9
$CMLSCALE
 40
20
  9
$PROXYGRAPHICS
 70
    1
  9
$MEASUREMENT
 70
    1
  9
$CELWEIGHT
370
   -1
  9
$ENDCAPS
280
    0
  9
$JOINSTYLE
280
    0
  9
$LWDISPLAY
290
    0
  9
$INSUNITS
 70
    0
  9
$HYPERLINKBASE
  1

  9
$STYLESHEET
  1

  9
$XEDIT
290
    1
  9
$CEPSNTYPE
380
    0
  9
$PSTYLEMODE
290
    1
  9
$EXTNAMES
290
    1
  9
$PSVPSCALE
 40
0.2191780821917808
  9
$OLESTARTUP
290
    0
  9
$SORTENTS
280
  127
  9
$INDEXCTL
280
    0
  9
$HIDETEXT
280
    1
  9
$XCLIPFRAME
290
    0
  9
$HALOGAP
280
    0
  9
$OBSCOLOR
 70
  257
  9
$OBSLTYPE
280
    0
  9
$INTERSECTIONDISPLAY
280
    0
  9
$INTERSECTIONCOLOR
 70
  257
  9
$DIMASSOC
280
    1
  9
$PROJECTNAME
  1

  9
$CAMERADISPLAY
290
    0
  9
$LENSLENGTH
 40
50
  9
$CAMERAHEIGHT
 40
0
  9
$STEPSPERSEC
 40
2
  9
$STEPSIZE
 40
50
  9
$3DDWFPREC
 40
2
  9
$PSOLWIDTH
 40
5
  9
$PSOLHEIGHT
 40
80
  9
$LOFTANG1
 40
1.570796326794897
  9
$LOFTANG2
 40
1.570796326794897
  9
$LOFTMAG1
 40
0
  9
$LOFTMAG2
 40
0
  9
$LOFTPARAM
 70
    7
  9
$LOFTNORMALS
280
    1
  9
$LATITUDE
 40
1
  9
$LONGITUDE
 40
1
  9
$NORTHDIRECTION
 40
0
  9
$TIMEZONE
 70
-8000
  9
$LIGHTGLYPHDISPLAY
280
    1
  9
$TILEMODELIGHTSYNCH
280
    1
  9
$SOLIDHIST
280
    1
  9
$SHOWHIST
280
    1
  9
$DWFFRAME
280
    2
  9
$DGNFRAME
280
    0
  9
$REALWORLDSCALE
290
    1
  9
$INTERFERECOLOR
 62
    1
  9
$CSHADOW
280
    0
  9
$SHADOWPLANELOCATION
 40
0
  0
ENDSEC
  0
SECTION
  2
CLASSES
  0
ENDSEC
  0
SECTION
  2
TABLES
  0
TABLE
  2
VPORT
  5
8
330
0
100
AcDbSymbolTable
 70
    1
  0
VPORT
  5
31
330
2
100
AcDbSymbolTableRecord
100
AcDbViewportTableRecord
  2
*ACTIVE
 70
    0
 10
0
 20
0
 11
1
 21
1
 12
729.7757438526332
 22
252.7714866975601
 13
0
 23
0
 14
10
 24
10
 15
10
 25
10
 16
0
 26
0
 36
1
 17
0
 27
0
 37
0
 40
1017.201385984536
 41
1.949899799599198
 42
50
 43
0
 44
0
 50
0
 51
0
 71
    0
 72
  100
 73
    1
 74
    3
 75
    0
 76
    1
 77
    0
 78
    0
281
    0
 65
    1
110
0
120
0
130
0
111
1
121
0
131
0
112
0
122
1
132
0
 79
    0
146
0
348
10020
 60
    7
 61
    5
292
1
282
    1
141
0
142
0
 63
  250
421
3358443
  0
ENDTAB
  0
TABLE
  2
LTYPE
  5
5
330
0
100
AcDbSymbolTable
 70
    4
  0
LTYPE
  5
14
330
5
100
AcDbSymbolTableRecord
100
AcDbLinetypeTableRecord
  2
ByBlock
 70
    0
  3

 72
   65
 73
    0
 40
0
  0
LTYPE
  5
15
330
5
100
AcDbSymbolTableRecord
100
AcDbLinetypeTableRecord
  2
ByLayer
 70
    0
  3

 72
   65
 73
    0
 40
0
  0
LTYPE
  5
16
330
5
100
AcDbSymbolTableRecord
100
AcDbLinetypeTableRecord
  2
Continuous
 70
    0
  3
Solid line
 72
   65
 73
    0
 40
0
  0
LTYPE
  5
32
330
5
100
AcDbSymbolTableRecord
100
AcDbLinetypeTableRecord
  2
DOT
 70
    0
  3
Dot . . . . . . . . . . . . . . . . . . . . . .
 72
   65
 73
    2
 40
6.35
 49
0
 74
    0
 49
-6.35
 74
    0
  0
LTYPE
  5
33
330
5
100
AcDbSymbolTableRecord
100
AcDbLinetypeTableRecord
  2
DOTTINY
 70
    0
  3
Dot (.15x) .....................................
 72
   65
 73
    2
 40
0.9525
 49
0
 74
    0
 49
-0.9525
 74
    0
  0
LTYPE
  5
34
330
5
100
AcDbSymbolTableRecord
100
AcDbLinetypeTableRecord
  2
DOT2
 70
    0
  3
Dot (.5x) .....................................
 72
   65
 73
    2
 40
3.175
 49
0
 74
    0
 49
-3.175
 74
    0
  0
LTYPE
  5
35
330
5
100
AcDbSymbolTableRecord
100
AcDbLinetypeTableRecord
  2
DOTX2
 70
    0
  3
Dot (2x) .  .  .  .  .  .  .  .  .  .  .  .  .
 72
   65
 73
    2
 40
12.7
 49
0
 74
    0
 49
-12.7
 74
    0
  0
LTYPE
  5
36
330
5
100
AcDbSymbolTableRecord
100
AcDbLinetypeTableRecord
  2
DASHED
 70
    0
  3
Dashed _ _ _ _ _ _ _ _ _ _ _ _ _ _ _ _ _
 72
   65
 73
    2
 40
19.05
 49
12.7
 74
    0
 49
-6.35
 74
    0
  0
LTYPE
  5
37
330
5
100
AcDbSymbolTableRecord
100
AcDbLinetypeTableRecord
  2
DASHEDTINY
 70
    0
  3
Dashed (.15x) _ _ _ _ _ _ _ _ _ _ _ _ _ _ _ _ _
 72
   65
 73
    2
 40
2.8575
 49
1.905
 74
    0
 49
-0.9525
 74
    0
  0
LTYPE
  5
38
330
5
100
AcDbSymbolTableRecord
100
AcDbLinetypeTableRecord
  2
DASHED2
 70
    0
  3
Dashed (.5x) _ _ _ _ _ _ _ _ _ _ _ _ _ _ _ _ _
 72
   65
 73
    2
 40
9.524999999999999
 49
6.35
 74
    0
 49
-3.175
 74
    0
  0
LTYPE
  5
39
330
5
100
AcDbSymbolTableRecord
100
AcDbLinetypeTableRecord
  2
DASHEDX2
 70
    0
  3
Dashed (2x) ____  ____  ____  ____  ____  ___
 72
   65
 73
    2
 40
38.09999999999999
 49
25.4
 74
    0
 49
-12.7
 74
    0
  0
LTYPE
  5
3A
330
5
100
AcDbSymbolTableRecord
100
AcDbLinetypeTableRecord
  2
DASHDOT
 70
    0
  3
Dash dot __ . __ . __ . __ . __ . __ . __ . __
 72
   65
 73
    4
 40
25.4
 49
12.7
 74
    0
 49
-6.35
 74
    0
 49
0
 74
    0
 49
-6.35
 74
    0
  0
LTYPE
  5
3B
330
5
100
AcDbSymbolTableRecord
100
AcDbLinetypeTableRecord
  2
DASHDOTTINY
 70
    0
  3
Dash dot (.15x) _._._._._._._._._._._._._._._.
 72
   65
 73
    4
 40
3.81
 49
1.905
 74
    0
 49
-0.9525
 74
    0
 49
0
 74
    0
 49
-0.9525
 74
    0
  0
LTYPE
  5
3C
330
5
100
AcDbSymbolTableRecord
100
AcDbLinetypeTableRecord
  2
DASHDOT2
 70
    0
  3
Dash dot (.5x) _._._._._._._._._._._._._._._.
 72
   65
 73
    4
 40
12.7
 49
6.35
 74
    0
 49
-3.175
 74
    0
 49
0
 74
    0
 49
-3.175
 74
    0
  0
LTYPE
  5
3D
330
5
100
AcDbSymbolTableRecord
100
AcDbLinetypeTableRecord
  2
DASHDOTX2
 70
    0
  3
Dash dot (2x) ____  .  ____  .  ____  .  ___
 72
   65
 73
    4
 40
50.8
 49
25.4
 74
    0
 49
-12.7
 74
    0
 49
0
 74
    0
 49
-12.7
 74
    0
  0
LTYPE
  5
3E
330
5
100
AcDbSymbolTableRecord
100
AcDbLinetypeTableRecord
  2
DIVIDE
 70
    0
  3
Divide ____ . . ____ . . ____ . . ____ . . ____
 72
   65
 73
    6
 40
31.75
 49
12.7
 74
    0
 49
-6.35
 74
    0
 49
0
 74
    0
 49
-6.35
 74
    0
 49
0
 74
    0
 49
-6.35
 74
    0
  0
LTYPE
  5
3F
330
5
100
AcDbSymbolTableRecord
100
AcDbLinetypeTableRecord
  2
DIVIDETINY
 70
    0
  3
Divide (.15x) __..__..__..__..__..__..__..__.._
 72
   65
 73
    6
 40
4.7625
 49
1.905
 74
    0
 49
-0.9525
 74
    0
 49
0
 74
    0
 49
-0.9525
 74
    0
 49
0
 74
    0
 49
-0.9525
 74
    0
  0
LTYPE
  5
40
330
5
100
AcDbSymbolTableRecord
100
AcDbLinetypeTableRecord
  2
DIVIDE2
 70
    0
  3
Divide (.5x) __..__..__..__..__..__..__..__.._
 72
   65
 73
    6
 40
15.875
 49
6.35
 74
    0
 49
-3.175
 74
    0
 49
0
 74
    0
 49
-3.175
 74
    0
 49
0
 74
    0
 49
-3.175
 74
    0
  0
LTYPE
  5
41
330
5
100
AcDbSymbolTableRecord
100
AcDbLinetypeTableRecord
  2
DIVIDEX2
 70
    0
  3
Divide (2x) ________  .  .  ________  .  .  _
 72
   65
 73
    6
 40
63.5
 49
25.4
 74
    0
 49
-12.7
 74
    0
 49
0
 74
    0
 49
-12.7
 74
    0
 49
0
 74
    0
 49
-12.7
 74
    0
  0
LTYPE
  5
42
330
5
100
AcDbSymbolTableRecord
100
AcDbLinetypeTableRecord
  2
BORDER
 70
    0
  3
Border __ __ . __ __ . __ __ . __ __ . __ __ .
 72
   65
 73
    6
 40
44.45
 49
12.7
 74
    0
 49
-6.35
 74
    0
 49
12.7
 74
    0
 49
-6.35
 74
    0
 49
0
 74
    0
 49
-6.35
 74
    0
  0
LTYPE
  5
43
330
5
100
AcDbSymbolTableRecord
100
AcDbLinetypeTableRecord
  2
BORDERTINY
 70
    0
  3
Border (.15x) __.__.__.__.__.__.__.__.__.__.__.
 72
   65
 73
    6
 40
6.6675
 49
1.905
 74
    0
 49
-0.9525
 74
    0
 49
1.905
 74
    0
 49
-0.9525
 74
    0
 49
0
 74
    0
 49
-0.9525
 74
    0
  0
LTYPE
  5
44
330
5
100
AcDbSymbolTableRecord
100
AcDbLinetypeTableRecord
  2
BORDER2
 70
    0
  3
Border (.5x) __.__.__.__.__.__.__.__.__.__.__.
 72
   65
 73
    6
 40
22.225
 49
6.35
 74
    0
 49
-3.175
 74
    0
 49
6.35
 74
    0
 49
-3.175
 74
    0
 49
0
 74
    0
 49
-3.175
 74
    0
  0
LTYPE
  5
45
330
5
100
AcDbSymbolTableRecord
100
AcDbLinetypeTableRecord
  2
BORDERX2
 70
    0
  3
Border (2x) ____  ____  .  ____  ____  .  ___
 72
   65
 73
    6
 40
88.89999999999999
 49
25.4
 74
    0
 49
-12.7
 74
    0
 49
25.4
 74
    0
 49
-12.7
 74
    0
 49
0
 74
    0
 49
-12.7
 74
    0
  0
LTYPE
  5
46
330
5
100
AcDbSymbolTableRecord
100
AcDbLinetypeTableRecord
  2
CENTER
 70
    0
  3
Center ____ _ ____ _ ____ _ ____ _ ____ _ ____
 72
   65
 73
    4
 40
50.8
 49
31.75
 74
    0
 49
-6.35
 74
    0
 49
6.35
 74
    0
 49
-6.35
 74
    0
  0
LTYPE
  5
47
330
5
100
AcDbSymbolTableRecord
100
AcDbLinetypeTableRecord
  2
CENTERTINY
 70
    0
  3
Center (.15x) ___ _ ___ _ ___ _ ___ _ ___ _ ___
 72
   65
 73
    4
 40
7.619999999999999
 49
4.7625
 74
    0
 49
-0.9525
 74
    0
 49
0.9525
 74
    0
 49
-0.9525
 74
    0
  0
LTYPE
  5
48
330
5
100
AcDbSymbolTableRecord
100
AcDbLinetypeTableRecord
  2
CENTER2
 70
    0
  3
Center (.5x) ___ _ ___ _ ___ _ ___ _ ___ _ ___
 72
   65
 73
    4
 40
28.575
 49
19.05
 74
    0
 49
-3.175
 74
    0
 49
3.175
 74
    0
 49
-3.175
 74
    0
  0
LTYPE
  5
49
330
5
100
AcDbSymbolTableRecord
100
AcDbLinetypeTableRecord
  2
CENTERX2
 70
    0
  3
Center (2x) ________  __  ________  __  _____
 72
   65
 73
    4
 40
101.6
 49
63.5
 74
    0
 49
-12.7
 74
    0
 49
12.7
 74
    0
 49
-12.7
 74
    0
  0
ENDTAB
  0
TABLE
  2
LAYER
  5
2
330
0
100
AcDbSymbolTable
 70
    1
  0
LAYER
  5
10
330
2
100
AcDbSymbolTableRecord
100
AcDbLayerTableRecord
  2
0
 70
    0
 62
    7
  6
CONTINUOUS
370
   18
390
F
  0
LAYER
  5
4A
330
2
100
AcDbSymbolTableRecord
100
AcDbLayerTableRecord
  2
noname
 70
    0
 62
    7
  6
CENTER
370
   18
390
F
  0
LAYER
  5
4B
330
2
100
AcDbSymbolTableRecord
100
AcDbLayerTableRecord
  2
sizes
 70
    0
 62
   16
420
8388608
  6
CONTINUOUS
370
   35
390
F
  0
ENDTAB
  0
TABLE
  2
STYLE
  5
3
330
0
100
AcDbSymbolTable
 70
    3
  0
STYLE
  5
4C
330
2
100
AcDbSymbolTableRecord
100
AcDbTextStyleTableRecord
  2
unicode
 70
    0
 40
0
 41
1
 50
0
 71
    0
 42
1
  3
unicode
  4

  0
STYLE
  5
4D
330
2
100
AcDbSymbolTableRecord
100
AcDbTextStyleTableRecord
  2
Standard
 70
    0
 40
0
 41
1
 50
0
 71
    0
 42
1
  3
txt
  4

  0
ENDTAB
  0
TABLE
  2
VIEW
  5
6
330
0
100
AcDbSymbolTable
 70
    0
  0
ENDTAB
  0
TABLE
  2
UCS
  5
7
330
0
100
AcDbSymbolTable
 70
    0
  0
ENDTAB
  0
TABLE
  2
APPID
  5
9
330
0
100
AcDbSymbolTable
 70
    1
  0
APPID
  5
12
330
9
100
AcDbSymbolTableRecord
100
AcDbRegAppTableRecord
  2
ACAD
 70
    0
  0
APPID
  5
4E
330
9
100
AcDbSymbolTableRecord
100
AcDbRegAppTableRecord
  2
LibreCad
 70
    0
  0
ENDTAB
  0
TABLE
  2
DIMSTYLE
  5
A
330
0
100
AcDbSymbolTable
 70
    1
100
AcDbDimStyleTable
 71
    1
  0
DIMSTYLE
105
4F
330
A
100
AcDbSymbolTableRecord
100
AcDbDimStyleTableRecord
  2
Standard
 70
    0
 40
2.5
 41
2.5
 42
0.625
 43
0.38
 44
1.25
 45
0
 46
0
 47
0
 48
0
 49
1
140
5
141
0.09
142
0
143
25.4
144
1
145
0
146
1
147
0.625
148
0
 71
    0
 72
    0
 73
    0
 74
    1
 75
    0
 76
    0
 77
    0
 78
    8
 79
    0
170
    0
171
    2
172
    0
173
    0
174
    0
175
    0
176
    0
177
    0
178
    0
179
    0
271
    2
272
    4
273
    2
274
    2
275
    0
276
    0
277
    2
278
   44
279
    0
280
    0
281
    0
282
    0
283
    1
284
    0
285
    0
286
    0
288
    0
289
    3
340
standard
341

371
   -2
372
   -2
  0
ENDTAB
  0
TABLE
  2
BLOCK_RECORD
  5
1
330
0
100
AcDbSymbolTable
 70
    2
  0
BLOCK_RECORD
  5
1F
330
1
100
AcDbSymbolTableRecord
100
AcDbBlockTableRecord
  2
*Model_Space
 70
    0
280
    1
281
    0
  0
BLOCK_RECORD
  5
1E
330
1
100
AcDbSymbolTableRecord
100
AcDbBlockTableRecord
  2
*Paper_Space
 70
    0
280
    1
281
    0
  0
BLOCK_RECORD
  5
50
330
1
100
AcDbSymbolTableRecord
100
AcDbBlockTableRecord
  2
*D13
 70
    0
280
    1
281
    0
  0
BLOCK_RECORD
  5
53
330
1
100
AcDbSymbolTableRecord
100
AcDbBlockTableRecord
  2
*D12
 70
    0
280
    1
281
    0
  0
BLOCK_RECORD
  5
56
330
1
100
AcDbSymbolTableRecord
100
AcDbBlockTableRecord
  2
*D1
 70
    0
280
    1
281
    0
  0
BLOCK_RECORD
  5
59
330
1
100
AcDbSymbolTableRecord
100
AcDbBlockTableRecord
  2
*D11
 70
    0
280
    1
281
    0
  0
BLOCK_RECORD
  5
5C
330
1
100
AcDbSymbolTableRecord
100
AcDbBlockTableRecord
  2
*D8
 70
    0
280
    1
281
    0
  0
BLOCK_RECORD
  5
5F
330
1
100
AcDbSymbolTableRecord
100
AcDbBlockTableRecord
  2
*D2
 70
    0
280
    1
281
    0
  0
BLOCK_RECORD
  5
62
330
1
100
AcDbSymbolTableRecord
100
AcDbBlockTableRecord
  2
*D7
 70
    0
280
    1
281
    0
  0
BLOCK_RECORD
  5
65
330
1
100
AcDbSymbolTableRecord
100
AcDbBlockTableRecord
  2
*D10
 70
    0
280
    1
281
    0
  0
BLOCK_RECORD
  5
68
330
1
100
AcDbSymbolTableRecord
100
AcDbBlockTableRecord
  2
*D3
 70
    0
280
    1
281
    0
  0
BLOCK_RECORD
  5
6B
330
1
100
AcDbSymbolTableRecord
100
AcDbBlockTableRecord
  2
*D4
 70
    0
280
    1
281
    0
  0
BLOCK_RECORD
  5
6E
330
1
100
AcDbSymbolTableRecord
100
AcDbBlockTableRecord
  2
*D9
 70
    0
280
    1
281
    0
  0
BLOCK_RECORD
  5
71
330
1
100
AcDbSymbolTableRecord
100
AcDbBlockTableRecord
  2
*D6
 70
    0
280
    1
281
    0
  0
BLOCK_RECORD
  5
74
330
1
100
AcDbSymbolTableRecord
100
AcDbBlockTableRecord
  2
*D5
 70
    0
280
    1
281
    0
  0
ENDTAB
  0
ENDSEC
  0
SECTION
  2
BLOCKS
  0
BLOCK
  5
20
330
1F
100
AcDbEntity
  8
0
100
AcDbBlockBegin
  2
*Model_Space
 70
    0
 10
0
 20
0
 30
0
  3
*Model_Space
  1

  0
ENDBLK
  5
21
330
1F
100
AcDbEntity
  8
0
100
AcDbBlockEnd
  0
BLOCK
  5
1C
330
1B
100
AcDbEntity
  8
0
100
AcDbBlockBegin
  2
*Paper_Space
 70
    0
 10
0
 20
0
 30
0
  3
*Paper_Space
  1

  0
ENDBLK
  5
1D
330
1F
100
AcDbEntity
  8
0
100
AcDbBlockEnd
  0
BLOCK
  5
51
330
50
100
AcDbEntity
  8
0
100
AcDbBlockBegin
  2
*D13
 70
    1
 10
0
 20
0
  3
*D13
  1

  0
LINE
  5
77
100
AcDbEntity
  8
sizes
  6
CONTINUOUS
 62
    7
370
    0
100
AcDbLine
 10
617.4999999999997
 20
-250.3108891324551
 11
670
 21
-280
  0
SOLID
  5
78
100
AcDbEntity
  8
sizes
  6
CONTINUOUS
 62
    7
370
    0
100
AcDbTrace
 10
617.4999999999997
 20
-250.3108891324551
 30
0
 11
623.4526314341203
 21
-252.4815479578752
 31
0
 12
622.4280545326948
 22
-254.2933330114871
 32
0
 13
622.4280545326948
 23
-254.2933330114871
 33
0
  0
ENDBLK
  5
52
330
50
100
AcDbEntity
  8
0
100
AcDbBlockEnd
  0
BLOCK
  5
54
330
53
100
AcDbEntity
  8
0
100
AcDbBlockBegin
  2
*D12
 70
    1
 10
0
 20
0
  3
*D12
  1

  0
LINE
  5
79
100
AcDbEntity
  8
sizes
  6
ByBlock
 62
    0
370
   -2
100
AcDbLine
 10
586.9185245480488
 20
-206.9185245480489
 11
613.0814754519512
 21
-233.0814754519511
  0
SOLID
  5
7A
100
AcDbEntity
  8
sizes
  6
ByBlock
 62
    0
370
   -2
100
AcDbTrace
 10
595.7573593128807
 20
-215.7573593128807
 30
0
 11
590.602047669427
 21
-212.0738361915026
 31
0
 12
592.0738361915024
 22
-210.6020476694271
 32
0
 13
592.0738361915024
 23
-210.6020476694271
 33
0
  0
SOLID
  5
7B
100
AcDbEntity
  8
sizes
  6
ByBlock
 62
    0
370
   -2
100
AcDbTrace
 10
604.2426406871193
 20
-224.2426406871193
 30
0
 11
609.397952330573
 21
-227.9261638084974
 31
0
 12
607.9261638084976
 22
-229.3979523305729
 32
0
 13
607.9261638084976
 23
-229.3979523305729
 33
0
  0
MTEXT
  5
7C
100
AcDbEntity
  8
sizes
  6
CONTINUOUS
 62
    0
370
   -2
100
AcDbMText
 10
615.2911841431592
 20
-224.2426406871193
 30
0
 40
12.5
 41
12.5
 71
    5
 72
    1
  1
12
  7
standard
210
0
220
0
230
1
 50
315.0000000000002
 73
    2
 44
1
  0
ENDBLK
  5
55
330
53
100
AcDbEntity
  8
0
100
AcDbBlockEnd
  0
BLOCK
  5
57
330
56
100
AcDbEntity
  8
0
100
AcDbBlockBegin
  2
*D1
 70
    1
 10
0
 20
0
  3
*D1
  1

  0
LINE
  5
7D
100
AcDbEntity
  8
sizes
  6
ByBlock
 62
    0
370
   -2
100
AcDbLine
 10
342.5
 20
150
 11
382.5000000000003
 21
150
  0
SOLID
  5
7E
100
AcDbEntity
  8
sizes
  6
ByBlock
 62
    0
370
   -2
100
AcDbTrace
 10
355
 20
150
 30
0
 11
348.75
 21
148.9592883555679
 31
0
 12
348.75
 22
151.0407116444321
 32
0
 13
348.75
 23
151.0407116444321
 33
0
  0
SOLID
  5
7F
100
AcDbEntity
  8
sizes
  6
ByBlock
 62
    0
370
   -2
100
AcDbTrace
 10
370.0000000000003
 20
150
 30
0
 11
376.2500000000003
 21
151.0407116444321
 31
0
 12
376.2500000000003
 22
148.9592883555679
 32
0
 13
376.2500000000003
 23
148.9592883555679
 33
0
  0
MTEXT
  5
80
100
AcDbEntity
  8
sizes
  6
CONTINUOUS
 62
    0
370
   -2
100
AcDbMText
 10
362.5000000000002
 20
157.8125
 30
0
 40
12.5
 41
12.50000000000077
 71
    5
 72
    1
  1
15
  7
standard
210
0
220
0
230
1
 50
0
 73
    2
 44
1
  0
LINE
  5
81
100
AcDbEntity
  8
sizes
  6
ByBlock
 62
    0
370
   -2
100
AcDbLine
 10
355
 20
198.4374999999999
 11
355
 21
146.875
  0
LINE
  5
82
100
AcDbEntity
  8
sizes
  6
ByBlock
 62
    0
370
   -2
100
AcDbLine
 10
370.0000000000003
 20
198.4374999999999
 11
370.0000000000003
 21
146.875
  0
ENDBLK
  5
58
330
56
100
AcDbEntity
  8
0
100
AcDbBlockEnd
  0
BLOCK
  5
5A
330
59
100
AcDbEntity
  8
0
100
AcDbBlockBegin
  2
*D11
 70
    1
 10
0
 20
0
  3
*D11
  1

  0
LINE
  5
83
100
AcDbEntity
  8
sizes
  6
CONTINUOUS
 62
    7
370
    0
100
AcDbLine
 10
677.9322794224581
 20
-73.43069958541821
 11
700
 21
-50
  0
LINE
  5
84
100
AcDbEntity
  8
sizes
  6
CONTINUOUS
 62
    7
370
    0
100
AcDbLine
 10
700
 20
-50
 11
740
 21
-50
  0
SOLID
  5
85
100
AcDbEntity
  8
sizes
  6
CONTINUOUS
 62
    7
370
    0
100
AcDbTrace
 10
677.9322794224581
 20
-73.43069958541821
 30
0
 11
681.4597843826443
 21
-68.16740313901525
 31
0
 12
682.9749830016331
 22
-69.59446167055519
 32
0
 13
682.9749830016331
 23
-69.59446167055519
 33
0
  0
ENDBLK
  5
5B
330
59
100
AcDbEntity
  8
0
100
AcDbBlockEnd
  0
BLOCK
  5
5D
330
5C
100
AcDbEntity
  8
0
100
AcDbBlockBegin
  2
*D8
 70
    1
 10
0
 20
0
  3
*D8
  1

  0
SOLID
  5
86
100
AcDbEntity
  8
sizes
  6
ByBlock
 62
    0
370
   -2
100
AcDbTrace
 10
720.2081528017131
 20
-99.79184719828693
 30
0
 11
716.524629680335
 21
-104.9471588417406
 31
0
 12
715.0528411582595
 22
-103.4753703196651
 32
0
 13
715.0528411582595
 23
-103.4753703196651
 33
0
  0
LINE
  5
87
100
AcDbEntity
  8
sizes
  6
ByBlock
 62
    0
370
   -2
100
AcDbLine
 10
600.0000000000001
 20
-220.0000000000001
 11
720.2081528017131
 21
-99.79184719828692
  0
MTEXT
  5
88
100
AcDbEntity
  8
sizes
  6
CONTINUOUS
 62
    0
370
   -2
100
AcDbMText
 10
654.5798046728366
 20
-154.3716518711236
 30
0
 40
12.5
 41
22.22222222222222
 71
    5
 72
    1
  1
170
  7
standard
210
0
220
0
230
1
 50
45.00000000000005
 73
    2
 44
1
  0
ENDBLK
  5
5E
330
5C
100
AcDbEntity
  8
0
100
AcDbBlockEnd
  0
BLOCK
  5
60
330
5F
100
AcDbEntity
  8
0
100
AcDbBlockBegin
  2
*D2
 70
    1
 10
0
 20
0
  3
*D2
  1

  0
SOLID
  5
89
100
AcDbEntity
  8
sizes
  6
ByBlock
 62
    0
370
   -2
100
AcDbTrace
 10
273.4854725704276
 20
63.52697951206278
 30
0
 11
269.6060321501838
 21
68.53652268012064
 31
0
 12
271.4386652027337
 22
69.52332509303211
 32
0
 13
271.4386652027337
 23
69.52332509303211
 33
0
  0
LINE
  5
8A
100
AcDbEntity
  8
sizes
  6
ByBlock
 62
    0
370
   -2
100
AcDbLine
 10
200
 20
200
 11
273.4854725704276
 21
63.52697951206278
  0
MTEXT
  5
8B
100
AcDbEntity
  8
sizes
  6
CONTINUOUS
 62
    0
370
   -2
100
AcDbMText
 10
243.6214167533558
 20
135.4673946234925
 30
0
 40
12.5
 41
22.22222222222377
 71
    5
 72
    1
  1
155
  7
standard
210
0
220
0
230
1
 50
298.3007557660064
 73
    2
 44
1
  0
ENDBLK
  5
61
330
5F
100
AcDbEntity
  8
0
100
AcDbBlockEnd
  0
BLOCK
  5
63
330
62
100
AcDbEntity
  8
0
100
AcDbBlockBegin
  2
*D7
 70
    1
 10
0
 20
0
  3
*D7
  1

  0
LINE
  5
8C
100
AcDbEntity
  8
sizes
  6
CONTINUOUS
 62
    7
370
    0
100
AcDbLine
 10
677.9322794224581
 20
346.5693004145818
 11
700
 21
370
  0
LINE
  5
8D
100
AcDbEntity
  8
sizes
  6
CONTINUOUS
 62
    7
370
    0
100
AcDbLine
 10
700
 20
370
 11
740
 21
370
  0
SOLID
  5
8E
100
AcDbEntity
  8
sizes
  6
CONTINUOUS
 62
    7
370
    0
100
AcDbTrace
 10
677.9322794224581
 20
346.5693004145818
 30
0
 11
681.4597843826443
 21
351.8325968609847
 31
0
 12
682.9749830016331
 22
350.4055383294448
 32
0
 13
682.9749830016331
 23
350.4055383294448
 33
0
  0
ENDBLK
  5
64
330
62
100
AcDbEntity
  8
0
100
AcDbBlockEnd
  0
BLOCK
  5
66
330
65
100
AcDbEntity
  8
0
100
AcDbBlockBegin
  2
*D10
 70
    1
 10
0
 20
0
  3
*D10
  1

  0
LINE
  5
8F
100
AcDbEntity
  8
sizes
  6
CONTINUOUS
 62
    7
370
    0
100
AcDbLine
 10
740
 20
-130
 11
790
 21
-80
  0
LINE
  5
90
100
AcDbEntity
  8
sizes
  6
CONTINUOUS
 62
    7
370
    0
100
AcDbLine
 10
790
 20
-80
 11
810
 21
-80
  0
SOLID
  5
91
100
AcDbEntity
  8
sizes
  6
CONTINUOUS
 62
    7
370
    0
100
AcDbTrace
 10
740
 20
-130
 30
0
 11
743.6835231213781
 21
-124.8446883565463
 31
0
 12
745.1553116434536
 22
-126.3164768786218
 32
0
 13
745.1553116434536
 23
-126.3164768786218
 33
0
  0
ENDBLK
  5
67
330
65
100
AcDbEntity
  8
0
100
AcDbBlockEnd
  0
BLOCK
  5
69
330
68
100
AcDbEntity
  8
0
100
AcDbBlockBegin
  2
*D3
 70
    1
 10
0
 20
0
  3
*D3
  1

  0
SOLID
  5
92
100
AcDbEntity
  8
sizes
  6
ByBlock
 62
    0
370
   -2
100
AcDbTrace
 10
325.3162038341261
 20
85.12681315205096
 30
0
 11
320.0057559685439
 21
88.58292718283613
 31
0
 12
321.412224947199
 22
90.11725697773262
 32
0
 13
321.412224947199
 23
90.11725697773262
 33
0
  0
LINE
  5
93
100
AcDbEntity
  8
sizes
  6
ByBlock
 62
    0
370
   -2
100
AcDbLine
 10
200.0000000000001
 20
199.9999999999999
 11
325.3162038341261
 21
85.12681315205096
  0
MTEXT
  5
94
100
AcDbEntity
  8
sizes
  6
CONTINUOUS
 62
    0
370
   -2
100
AcDbMText
 10
267.9372005773549
 20
148.3224232963437
 30
0
 40
12.5
 41
22.22222222222222
 71
    5
 72
    1
  1
170
  7
standard
210
0
220
0
230
1
 50
317.4895529219991
 73
    2
 44
1
  0
ENDBLK
  5
6A
330
68
100
AcDbEntity
  8
0
100
AcDbBlockEnd
  0
BLOCK
  5
6C
330
6B
100
AcDbEntity
  8
0
100
AcDbBlockBegin
  2
*D4
 70
    1
 10
0
 20
0
  3
*D4
  1

  0
LINE
  5
95
100
AcDbEntity
  8
sizes
  6
ByBlock
 62
    0
370
   -2
100
AcDbLine
 10
791.5625000000001
 20
199.9999999999999
 11
793.1250000000001
 21
199.9999999999999
  0
LINE
  5
96
100
AcDbEntity
  8
sizes
  6
ByBlock
 62
    0
370
   -2
100
AcDbLine
 10
761.1689418701028
 20
211.270030289285
 11
792.6545572064286
 21
213.471718991834
  0
ARC
  5
97
100
AcDbEntity
  8
sizes
  6
ByBlock
 62
    0
370
   -2
100
AcDbCircle
 10
600
 20
199.9999999999999
 40
190.0000000000001
100
AcDbArc
 50
0
 51
3.999999999999955
  0
SOLID
  5
98
100
AcDbEntity
  8
sizes
  6
ByBlock
 62
    0
370
   -2
100
AcDbTrace
 10
790.0000000000001
 20
199.9999999999999
 30
0
 11
788.8566376989003
 21
206.2320384606707
 31
0
 12
790.9377794650346
 22
206.2662708528929
 32
0
 13
790.9377794650346
 23
206.2662708528929
 33
0
  0
SOLID
  5
99
100
AcDbEntity
  8
sizes
  6
ByBlock
 62
    0
370
   -2
100
AcDbTrace
 10
789.5371695493667
 20
213.2537300113835
 30
0
 11
790.9097775889804
 21
207.068139667977
 31
0
 12
788.8313174486212
 22
206.9571155608451
 32
0
 13
788.8313174486212
 23
206.9571155608451
 33
0
  0
MTEXT
  5
9A
100
AcDbEntity
  8
sizes
  6
CONTINUOUS
 62
    0
370
   -2
100
AcDbMText
 10
791.4458053008457
 20
206.6854348370726
 30
0
 40
12.5
 41
15.27777777777778
 71
    8
 72
    1
  1
4%%D
  7
standard
210
0
220
0
230
1
 50
272
 73
    2
 44
1
  0
ENDBLK
  5
6D
330
6B
100
AcDbEntity
  8
0
100
AcDbBlockEnd
  0
BLOCK
  5
6F
330
6E
100
AcDbEntity
  8
0
100
AcDbBlockBegin
  2
*D9
 70
    1
 10
0
 20
0
  3
*D9
  1

  0
SOLID
  5
9B
100
AcDbEntity
  8
sizes
  6
ByBlock
 62
    0
370
   -2
100
AcDbTrace
 10
745.028254385605
 20
-168.2041948622839
 30
0
 11
739.4923966429396
 21
-171.2863791169689
 31
0
 12
738.7923382333349
 22
-169.3262155700759
 32
0
 13
738.7923382333349
 23
-169.3262155700759
 33
0
  0
LINE
  5
9C
100
AcDbEntity
  8
sizes
  6
ByBlock
 62
    0
370
   -2
100
AcDbLine
 10
600.0000000000001
 20
-220.0000000000001
 11
745.028254385605
 21
-168.2041948622839
  0
MTEXT
  5
9D
100
AcDbEntity
  8
sizes
  6
CONTINUOUS
 62
    0
370
   -2
100
AcDbMText
 10
669.8864990912544
 20
-186.7447387468073
 30
0
 40
12.5
 41
23.61111111111189
 71
    5
 72
    1
  1
154
  7
standard
210
0
220
0
230
1
 50
19.65382405805337
 73
    2
 44
1
  0
ENDBLK
  5
70
330
6E
100
AcDbEntity
  8
0
100
AcDbBlockEnd
  0
BLOCK
  5
72
330
71
100
AcDbEntity
  8
0
100
AcDbBlockBegin
  2
*D6
 70
    1
 10
0
 20
0
  3
*D6
  1

  0
LINE
  5
9E
100
AcDbEntity
  8
sizes
  6
CONTINUOUS
 62
    7
370
    0
100
AcDbLine
 10
283.0000000000002
 20
343.7602170282167
 11
305.0677205775421
 21
367.1909166136349
  0
LINE
  5
9F
100
AcDbEntity
  8
sizes
  6
CONTINUOUS
 62
    7
370
    0
100
AcDbLine
 10
305.0677205775421
 20
367.1909166136349
 11
345.0677205775421
 21
367.1909166136349
  0
SOLID
  5
A0
100
AcDbEntity
  8
sizes
  6
CONTINUOUS
 62
    7
370
    0
100
AcDbTrace
 10
283.0000000000002
 20
343.7602170282167
 30
0
 11
286.5275049601865
 21
349.0235134746196
 31
0
 12
288.0427035791752
 22
347.5964549430797
 32
0
 13
288.0427035791752
 23
347.5964549430797
 33
0
  0
ENDBLK
  5
73
330
71
100
AcDbEntity
  8
0
100
AcDbBlockEnd
  0
BLOCK
  5
75
330
74
100
AcDbEntity
  8
0
100
AcDbBlockBegin
  2
*D5
 70
    1
 10
0
 20
0
  3
*D5
  1

  0
LINE
  5
A1
100
AcDbEntity
  8
sizes
  6
CONTINUOUS
 62
    7
370
    0
100
AcDbLine
 10
756.5036161174089
 20
233.2658705308413
 11
770
 21
250
  0
LINE
  5
A2
100
AcDbEntity
  8
sizes
  6
CONTINUOUS
 62
    7
370
    0
100
AcDbLine
 10
770
 20
250
 11
789
 21
250
  0
SOLID
  5
A3
100
AcDbEntity
  8
sizes
  6
CONTINUOUS
 62
    7
370
    0
100
AcDbTrace
 10
756.5036161174089
 20
233.2658705308413
 30
0
 11
759.6171888433489
 21
238.7841352587371
 31
0
 12
761.2373429697152
 22
237.4774510909886
 32
0
 13
761.2373429697152
 23
237.4774510909886
 33
0
  0
ENDBLK
  5
76
330
74
100
AcDbEntity
  8
0
100
AcDbBlockEnd
  0
ENDSEC
  0
SECTION
  2
ENTITIES
  0
HATCH
  5
A4
100
AcDbEntity
  8
0
  6
ByLayer
 62
  256
370
   -1
100
AcDbHatch
 10
0
 20
0
 30
0
210
0
220
0
230
1
  2
kerpele
 70
    0
 71
    0
 91
    1
 92
    0
 93
    9
 72
    2
 10
600.0000000000001
 20
-220.0000000000001
 40
154
 50
0
 51
360
 73
    1
 72
    2
 10
599.9999999999999
 20
-385.0000000000002
 40
5.100000000000136
 50
0
 51
180
 73
    1
 72
    1
 10
594.8999999999997
 20
-385.0000000000002
 11
594.8999999999984
 21
-389.9234827797501
 72
    2
 10
599.9999999999995
 20
-220.0000000000003
 40
169.9999999999998
 50
91.71913132087822
 51
268.2808686791218
 73
    0
 72
    1
 10
594.8999999999983
 20
-50.07651722025054
 11
594.9
 21
-54.99999999999995
 72
    2
 10
600
 20
-54.99999999999997
 40
5.100000000000023
 50
179.9999999999998
 51
359.9999999999997
 73
    1
 72
    1
 10
605.1
 20
-55
 11
605.1000000000016
 21
-50.07651722025014
 72
    2
 10
600
 20
-220.0000000000001
 40
169.9999999999999
 50
271.7191313208784
 51
88.28086867912162
 73
    0
 72
    1
 10
605.1000000000016
 20
-389.92348277975
 11
605.1
 21
-385.0000000000002
 97
    0
 75
    0
 76
    1
 52
0
 41
0.5
 77
    0
 78
    0
 98
    0
  0
CIRCLE
  5
A5
100
AcDbEntity
  8
0
  6
ByLayer
 62
  256
370
   -1
100
AcDbCircle
 10
600.0000000000001
 20
199.9999999999999
 40
170
  0
CIRCLE
  5
A6
100
AcDbEntity
  8
0
  6
ByLayer
 62
  256
370
   -1
100
AcDbCircle
 10
759.9999999999999
 20
199.9999999999998
 40
1.000000000000114
  0
CIRCLE
  5
A7
100
AcDbEntity
  8
0
  6
ByLayer
 62
  256
370
   -1
100
AcDbCircle
 10
759.6102480415718
 20
211.1610357990598
 40
1.000000000000114
  0
CIRCLE
  5
A8
100
AcDbEntity
  8
0
  6
ByLayer
 62
  256
370
   -1
100
AcDbCircle
 10
758.4428909986511
 20
222.2676961536102
 40
1.000000000000114
  0
CIRCLE
  5
A9
100
AcDbEntity
  8
0
  6
ByLayer
 62
  256
370
   -1
100
AcDbCircle
 10
756.5036161174089
 20
233.2658705308413
 40
1.000000000000114
  0
CIRCLE
  5
AA
100
AcDbEntity
  8
0
  6
ByLayer
 62
  256
370
   -1
100
AcDbCircle
 10
753.801871350131
 20
244.1019769307196
 40
1.000000000000114
  0
CIRCLE
  5
AB
100
AcDbEntity
  8
0
  6
ByLayer
 62
  256
370
   -1
100
AcDbCircle
 10
750.3508193257454
 20
254.7232229321068
 40
1.000000000000114
  0
CIRCLE
  5
AC
100
AcDbEntity
  8
0
  6
ByLayer
 62
  256
370
   -1
100
AcDbCircle
 10
746.1672732228162
 20
265.0778628921278
 40
1.000000000000114
  0
CIRCLE
  5
AD
100
AcDbEntity
  8
0
  6
ByLayer
 62
  256
370
   -1
100
AcDbCircle
 10
741.2716148574284
 20
275.1154500457423
 40
1.000000000000114
  0
CIRCLE
  5
AE
100
AcDbEntity
  8
0
  6
ByLayer
 62
  256
370
   -1
100
AcDbCircle
 10
735.6876953850282
 20
284.7870822773125
 40
1.000000000000114
  0
CIRCLE
  5
AF
100
AcDbEntity
  8
0
  6
ByLayer
 62
  256
370
   -1
100
AcDbCircle
 10
729.4427190999917
 20
294.0456403667954
 40
1.000000000000114
  0
CIRCLE
  5
B0
100
AcDbEntity
  8
0
  6
ByLayer
 62
  256
370
   -1
100
AcDbCircle
 10
722.5671108990366
 20
302.846017549846
 40
1.000000000000114
  0
CIRCLE
  5
B1
100
AcDbEntity
  8
0
  6
ByLayer
 62
  256
370
   -1
100
AcDbCircle
 10
715.0943680541843
 20
311.1453392734393
 40
1.000000000000114
  0
CIRCLE
  5
B2
100
AcDbEntity
  8
0
  6
ByLayer
 62
  256
370
   -1
100
AcDbCircle
 10
707.0608970174176
 20
318.9031720763828
 40
1.000000000000114
  0
CIRCLE
  5
B3
100
AcDbEntity
  8
0
  6
ByLayer
 62
  256
370
   -1
100
AcDbCircle
 10
698.5058360521057
 20
326.0817205770753
 40
1.000000000000114
  0
CIRCLE
  5
B4
100
AcDbEntity
  8
0
  6
ByLayer
 62
  256
370
   -1
100
AcDbCircle
 10
689.4708645553196
 20
332.6460116088064
 40
1.000000000000114
  0
CIRCLE
  5
B5
100
AcDbEntity
  8
0
  6
ByLayer
 62
  256
370
   -1
100
AcDbCircle
 10
680.0000000000002
 20
338.5640646055099
 40
1.000000000000114
  0
CIRCLE
  5
B6
100
AcDbEntity
  8
0
  6
ByLayer
 62
  256
370
   -1
100
AcDbCircle
 10
670.1393834862527
 20
343.8070474078665
 40
1.000000000000114
  0
CIRCLE
  5
B7
100
AcDbEntity
  8
0
  6
ByLayer
 62
  256
370
   -1
100
AcDbCircle
 10
659.9370549465464
 20
348.3494167306858
 40
1.000000000000114
  0
CIRCLE
  5
B8
100
AcDbEntity
  8
0
  6
ByLayer
 62
  256
370
   -1
100
AcDbCircle
 10
649.4427190999919
 20
352.1690426072244
 40
1.000000000000114
  0
CIRCLE
  5
B9
100
AcDbEntity
  8
0
  6
ByLayer
 62
  256
370
   -1
100
AcDbCircle
 10
638.7075032959472
 20
355.2473162041592
 40
1.000000000000114
  0
CIRCLE
  5
BA
100
AcDbEntity
  8
0
  6
ByLayer
 62
  256
370
   -1
100
AcDbCircle
 10
627.7837084267092
 20
357.5692404819531
 40
1.000000000000114
  0
CIRCLE
  5
BB
100
AcDbEntity
  8
0
  6
ByLayer
 62
  256
370
   -1
100
AcDbCircle
 10
616.7245541228249
 20
359.1235032589236
 40
1.000000000000114
  0
CIRCLE
  5
BC
100
AcDbEntity
  8
0
  6
ByLayer
 62
  256
370
   -1
100
AcDbCircle
 10
605.5839194724006
 20
359.9025323230552
 40
1.000000000000114
  0
CIRCLE
  5
BD
100
AcDbEntity
  8
0
  6
ByLayer
 62
  256
370
   -1
100
AcDbCircle
 10
594.4160805276003
 20
359.9025323230552
 40
1.000000000000114
  0
CIRCLE
  5
BE
100
AcDbEntity
  8
0
  6
ByLayer
 62
  256
370
   -1
100
AcDbCircle
 10
583.2754458771759
 20
359.1235032589236
 40
1.000000000000114
  0
CIRCLE
  5
BF
100
AcDbEntity
  8
0
  6
ByLayer
 62
  256
370
   -1
100
AcDbCircle
 10
572.2162915732916
 20
357.5692404819532
 40
1.000000000000114
  0
CIRCLE
  5
C0
100
AcDbEntity
  8
0
  6
ByLayer
 62
  256
370
   -1
100
AcDbCircle
 10
561.2924967040536
 20
355.2473162041594
 40
1.000000000000114
  0
CIRCLE
  5
C1
100
AcDbEntity
  8
0
  6
ByLayer
 62
  256
370
   -1
100
AcDbCircle
 10
550.5572809000089
 20
352.1690426072245
 40
1.000000000000114
  0
CIRCLE
  5
C2
100
AcDbEntity
  8
0
  6
ByLayer
 62
  256
370
   -1
100
AcDbCircle
 10
540.0629450534545
 20
348.349416730686
 40
1.000000000000114
  0
CIRCLE
  5
C3
100
AcDbEntity
  8
0
  6
ByLayer
 62
  256
370
   -1
100
AcDbCircle
 10
529.8606165137481
 20
343.8070474078668
 40
1.000000000000114
  0
CIRCLE
  5
C4
100
AcDbEntity
  8
0
  6
ByLayer
 62
  256
370
   -1
100
AcDbCircle
 10
520.0000000000005
 20
338.5640646055102
 40
1.000000000000114
  0
CIRCLE
  5
C5
100
AcDbEntity
  8
0
  6
ByLayer
 62
  256
370
   -1
100
AcDbCircle
 10
510.529135444681
 20
332.6460116088068
 40
1.000000000000114
  0
CIRCLE
  5
C6
100
AcDbEntity
  8
0
  6
ByLayer
 62
  256
370
   -1
100
AcDbCircle
 10
501.4941639478952
 20
326.0817205770757
 40
1.000000000000114
  0
CIRCLE
  5
C7
100
AcDbEntity
  8
0
  6
ByLayer
 62
  256
370
   -1
100
AcDbCircle
 10
492.9391029825832
 20
318.9031720763833
 40
1.000000000000114
  0
CIRCLE
  5
C8
100
AcDbEntity
  8
0
  6
ByLayer
 62
  256
370
   -1
100
AcDbCircle
 10
484.9056319458163
 20
311.1453392734397
 40
1.000000000000114
  0
CIRCLE
  5
C9
100
AcDbEntity
  8
0
  6
ByLayer
 62
  256
370
   -1
100
AcDbCircle
 10
477.432889100964
 20
302.8460175498465
 40
1.000000000000114
  0
CIRCLE
  5
CA
100
AcDbEntity
  8
0
  6
ByLayer
 62
  256
370
   -1
100
AcDbCircle
 10
470.5572809000089
 20
294.045640366796
 40
1.000000000000114
  0
CIRCLE
  5
CB
100
AcDbEntity
  8
0
  6
ByLayer
 62
  256
370
   -1
100
AcDbCircle
 10
464.3123046149723
 20
284.787082277313
 40
1.000000000000114
  0
CIRCLE
  5
CC
100
AcDbEntity
  8
0
  6
ByLayer
 62
  256
370
   -1
100
AcDbCircle
 10
458.7283851425722
 20
275.1154500457428
 40
1.000000000000114
  0
CIRCLE
  5
CD
100
AcDbEntity
  8
0
  6
ByLayer
 62
  256
370
   -1
100
AcDbCircle
 10
453.8327267771843
 20
265.0778628921284
 40
1.000000000000114
  0
CIRCLE
  5
CE
100
AcDbEntity
  8
0
  6
ByLayer
 62
  256
370
   -1
100
AcDbCircle
 10
449.6491806742551
 20
254.7232229321073
 40
1.000000000000114
  0
CIRCLE
  5
CF
100
AcDbEntity
  8
0
  6
ByLayer
 62
  256
370
   -1
100
AcDbCircle
 10
446.1981286498694
 20
244.1019769307202
 40
1.000000000000114
  0
CIRCLE
  5
D0
100
AcDbEntity
  8
0
  6
ByLayer
 62
  256
370
   -1
100
AcDbCircle
 10
443.4963838825915
 20
233.2658705308419
 40
1.000000000000114
  0
CIRCLE
  5
D1
100
AcDbEntity
  8
0
  6
ByLayer
 62
  256
370
   -1
100
AcDbCircle
 10
441.5571090013491
 20
222.2676961536108
 40
1.000000000000114
  0
CIRCLE
  5
D2
100
AcDbEntity
  8
0
  6
ByLayer
 62
  256
370
   -1
100
AcDbCircle
 10
440.3897519584285
 20
211.1610357990605
 40
1.000000000000114
  0
CIRCLE
  5
D3
100
AcDbEntity
  8
0
  6
ByLayer
 62
  256
370
   -1
100
AcDbCircle
 10
440.0000000000003
 20
200.0000000000005
 40
1.000000000000114
  0
CIRCLE
  5
D4
100
AcDbEntity
  8
0
  6
ByLayer
 62
  256
370
   -1
100
AcDbCircle
 10
440.3897519584284
 20
188.8389642009404
 40
1.000000000000114
  0
CIRCLE
  5
D5
100
AcDbEntity
  8
0
  6
ByLayer
 62
  256
370
   -1
100
AcDbCircle
 10
441.557109001349
 20
177.73230384639
 40
1.000000000000114
  0
CIRCLE
  5
D6
100
AcDbEntity
  8
0
  6
ByLayer
 62
  256
370
   -1
100
AcDbCircle
 10
443.4963838825914
 20
166.7341294691589
 40
1.000000000000114
  0
CIRCLE
  5
D7
100
AcDbEntity
  8
0
  6
ByLayer
 62
  256
370
   -1
100
AcDbCircle
 10
446.1981286498692
 20
155.8980230692806
 40
1.000000000000114
  0
CIRCLE
  5
D8
100
AcDbEntity
  8
0
  6
ByLayer
 62
  256
370
   -1
100
AcDbCircle
 10
449.6491806742549
 20
145.2767770678935
 40
1.000000000000114
  0
CIRCLE
  5
D9
100
AcDbEntity
  8
0
  6
ByLayer
 62
  256
370
   -1
100
AcDbCircle
 10
453.8327267771841
 20
134.9221371078725
 40
1.000000000000114
  0
CIRCLE
  5
DA
100
AcDbEntity
  8
0
  6
ByLayer
 62
  256
370
   -1
100
AcDbCircle
 10
458.7283851425719
 20
124.884549954258
 40
1.000000000000114
  0
CIRCLE
  5
DB
100
AcDbEntity
  8
0
  6
ByLayer
 62
  256
370
   -1
100
AcDbCircle
 10
464.3123046149719
 20
115.2129177226877
 40
1.000000000000114
  0
CIRCLE
  5
DC
100
AcDbEntity
  8
0
  6
ByLayer
 62
  256
370
   -1
100
AcDbCircle
 10
470.5572809000085
 20
105.9543596332048
 40
1.000000000000114
  0
CIRCLE
  5
DD
100
AcDbEntity
  8
0
  6
ByLayer
 62
  256
370
   -1
100
AcDbCircle
 10
477.4328891009636
 20
97.15398245015422
 40
1.000000000000114
  0
CIRCLE
  5
DE
100
AcDbEntity
  8
0
  6
ByLayer
 62
  256
370
   -1
100
AcDbCircle
 10
484.9056319458159
 20
88.85466072656101
 40
1.000000000000114
  0
CIRCLE
  5
DF
100
AcDbEntity
  8
0
  6
ByLayer
 62
  256
370
   -1
100
AcDbCircle
 10
492.9391029825828
 20
81.09682792361741
 40
1.000000000000114
  0
CIRCLE
  5
E0
100
AcDbEntity
  8
0
  6
ByLayer
 62
  256
370
   -1
100
AcDbCircle
 10
501.4941639478947
 20
73.91827942292502
 40
1.000000000000114
  0
CIRCLE
  5
E1
100
AcDbEntity
  8
0
  6
ByLayer
 62
  256
370
   -1
100
AcDbCircle
 10
510.5291354446805
 20
67.35398839119381
 40
1.000000000000114
  0
CIRCLE
  5
E2
100
AcDbEntity
  8
0
  6
ByLayer
 62
  256
370
   -1
100
AcDbCircle
 10
519.9999999999999
 20
61.43593539449029
 40
1.000000000000114
  0
CIRCLE
  5
E3
100
AcDbEntity
  8
0
  6
ByLayer
 62
  256
370
   -1
100
AcDbCircle
 10
529.8606165137475
 20
56.19295259213379
 40
1.000000000000114
  0
CIRCLE
  5
E4
100
AcDbEntity
  8
0
  6
ByLayer
 62
  256
370
   -1
100
AcDbCircle
 10
540.0629450534539
 20
51.65058326931438
 40
1.000000000000114
  0
CIRCLE
  5
E5
100
AcDbEntity
  8
0
  6
ByLayer
 62
  256
370
   -1
100
AcDbCircle
 10
550.5572809000083
 20
47.83095739277587
 40
1.000000000000114
  0
CIRCLE
  5
E6
100
AcDbEntity
  8
0
  6
ByLayer
 62
  256
370
   -1
100
AcDbCircle
 10
561.2924967040531
 20
44.75268379584099
 40
1.000000000000114
  0
CIRCLE
  5
E7
100
AcDbEntity
  8
0
  6
ByLayer
 62
  256
370
   -1
100
AcDbCircle
 10
572.216291573291
 20
42.43075951804713
 40
1.000000000000114
  0
CIRCLE
  5
E8
100
AcDbEntity
  8
0
  6
ByLayer
 62
  256
370
   -1
100
AcDbCircle
 10
583.2754458771753
 20
40.87649674107661
 40
1.000000000000114
  0
CIRCLE
  5
E9
100
AcDbEntity
  8
0
  6
ByLayer
 62
  256
370
   -1
100
AcDbCircle
 10
594.4160805275997
 20
40.09746767694497
 40
1.000000000000114
  0
CIRCLE
  5
EA
100
AcDbEntity
  8
0
  6
ByLayer
 62
  256
370
   -1
100
AcDbCircle
 10
605.5839194724
 20
40.09746767694497
 40
1.000000000000114
  0
CIRCLE
  5
EB
100
AcDbEntity
  8
0
  6
ByLayer
 62
  256
370
   -1
100
AcDbCircle
 10
616.7245541228243
 20
40.87649674107661
 40
1.000000000000114
  0
CIRCLE
  5
EC
100
AcDbEntity
  8
0
  6
ByLayer
 62
  256
370
   -1
100
AcDbCircle
 10
627.7837084267086
 20
42.43075951804701
 40
1.000000000000114
  0
CIRCLE
  5
ED
100
AcDbEntity
  8
0
  6
ByLayer
 62
  256
370
   -1
100
AcDbCircle
 10
638.7075032959465
 20
44.75268379584082
 40
1.000000000000114
  0
CIRCLE
  5
EE
100
AcDbEntity
  8
0
  6
ByLayer
 62
  256
370
   -1
100
AcDbCircle
 10
649.4427190999913
 20
47.83095739277559
 40
1.000000000000114
  0
CIRCLE
  5
EF
100
AcDbEntity
  8
0
  6
ByLayer
 62
  256
370
   -1
100
AcDbCircle
 10
659.9370549465456
 20
51.65058326931421
 40
1.000000000000114
  0
CIRCLE
  5
F0
100
AcDbEntity
  8
0
  6
ByLayer
 62
  256
370
   -1
100
AcDbCircle
 10
670.1393834862521
 20
56.19295259213351
 40
1.000000000000114
  0
CIRCLE
  5
F1
100
AcDbEntity
  8
0
  6
ByLayer
 62
  256
370
   -1
100
AcDbCircle
 10
679.9999999999998
 20
61.43593539449
 40
1.000000000000114
  0
CIRCLE
  5
F2
100
AcDbEntity
  8
0
  6
ByLayer
 62
  256
370
   -1
100
AcDbCircle
 10
689.4708645553193
 20
67.35398839119352
 40
1.000000000000114
  0
CIRCLE
  5
F3
100
AcDbEntity
  8
0
  6
ByLayer
 62
  256
370
   -1
100
AcDbCircle
 10
698.5058360521051
 20
73.91827942292463
 40
1.000000000000114
  0
CIRCLE
  5
F4
100
AcDbEntity
  8
0
  6
ByLayer
 62
  256
370
   -1
100
AcDbCircle
 10
707.060897017417
 20
81.09682792361701
 40
1.000000000000114
  0
CIRCLE
  5
F5
100
AcDbEntity
  8
0
  6
ByLayer
 62
  256
370
   -1
100
AcDbCircle
 10
715.0943680541839
 20
88.85466072656038
 40
1.000000000000114
  0
CIRCLE
  5
F6
100
AcDbEntity
  8
0
  6
ByLayer
 62
  256
370
   -1
100
AcDbCircle
 10
722.5671108990362
 20
97.15398245015371
 40
1.000000000000114
  0
CIRCLE
  5
F7
100
AcDbEntity
  8
0
  6
ByLayer
 62
  256
370
   -1
100
AcDbCircle
 10
729.4427190999913
 20
105.9543596332043
 40
1.000000000000114
  0
CIRCLE
  5
F8
100
AcDbEntity
  8
0
  6
ByLayer
 62
  256
370
   -1
100
AcDbCircle
 10
735.6876953850278
 20
115.2129177226872
 40
1.000000000000114
  0
CIRCLE
  5
F9
100
AcDbEntity
  8
0
  6
ByLayer
 62
  256
370
   -1
100
AcDbCircle
 10
741.2716148574282
 20
124.8845499542574
 40
1.000000000000114
  0
CIRCLE
  5
FA
100
AcDbEntity
  8
0
  6
ByLayer
 62
  256
370
   -1
100
AcDbCircle
 10
746.1672732228159
 20
134.9221371078719
 40
1.000000000000114
  0
CIRCLE
  5
FB
100
AcDbEntity
  8
0
  6
ByLayer
 62
  256
370
   -1
100
AcDbCircle
 10
750.3508193257451
 20
145.2767770678929
 40
1.000000000000114
  0
CIRCLE
  5
FC
100
AcDbEntity
  8
0
  6
ByLayer
 62
  256
370
   -1
100
AcDbCircle
 10
753.8018713501308
 20
155.89802306928
 40
1.000000000000114
  0
CIRCLE
  5
FD
100
AcDbEntity
  8
0
  6
ByLayer
 62
  256
370
   -1
100
AcDbCircle
 10
756.5036161174087
 20
166.7341294691583
 40
1.000000000000114
  0
CIRCLE
  5
FE
100
AcDbEntity
  8
0
  6
ByLayer
 62
  256
370
   -1
100
AcDbCircle
 10
758.4428909986511
 20
177.7323038463893
 40
1.000000000000114
  0
CIRCLE
  5
FF
100
AcDbEntity
  8
0
  6
ByLayer
 62
  256
370
   -1
100
AcDbCircle
 10
759.6102480415717
 20
188.8389642009397
 40
1.000000000000114
  0
CIRCLE
  5
100
100
AcDbEntity
  8
0
  6
ByLayer
 62
  256
370
   -1
100
AcDbCircle
 10
600
 20
200
 40
155
  0
LINE
  5
101
100
AcDbEntity
  8
noname
  6
ByLayer
 62
  256
370
   -1
100
AcDbLine
 10
10.00000000000011
 20
199.9999999999999
 11
390.0000000000001
 21
199.9999999999999
  0
LINE
  5
102
100
AcDbEntity
  8
noname
  6
ByLayer
 62
  256
370
   -1
100
AcDbLine
 10
410.0000000000001
 20
199.9999999999999
 11
790.0000000000001
 21
199.9999999999999
  0
LINE
  5
103
100
AcDbEntity
  8
noname
  6
ByLayer
 62
  256
370
   -1
100
AcDbLine
 10
600.0000000000001
 20
24.99999999999989
 11
600.0000000000001
 21
374.9999999999999
  0
LINE
  5
104
100
AcDbEntity
  8
noname
  6
ByLayer
 62
  256
370
   -1
100
AcDbLine
 10
200.0000000000001
 20
24.99999999999989
 11
200.0000000000001
 21
374.9999999999999
  0
CIRCLE
  5
105
100
AcDbEntity
  8
0
  6
ByLayer
 62
  256
370
   -1
100
AcDbCircle
 10
200.0000000000001
 20
199.9999999999999
 40
170
  0
CIRCLE
  5
106
100
AcDbEntity
  8
0
  6
ByLayer
 62
  256
370
   -1
100
AcDbCircle
 10
200
 20
200
 40
155
  0
LINE
  5
107
100
AcDbEntity
  8
noname
  6
ByLayer
 62
  256
370
   -1
100
AcDbLine
 10
600.0000000000001
 20
199.9999999999999
 11
759.6102480415718
 21
211.1610357990598
  0
CIRCLE
  5
108
100
AcDbEntity
  8
0
  6
ByLayer
 62
  256
370
   -1
100
AcDbCircle
 10
283.0000000000002
 20
343.7602170282167
 40
2
  0
CIRCLE
  5
109
100
AcDbEntity
  8
0
  6
ByLayer
 62
  256
370
   -1
100
AcDbCircle
 10
117.0000000000004
 20
343.760217028217
 40
2
  0
CIRCLE
  5
10A
100
AcDbEntity
  8
0
  6
ByLayer
 62
  256
370
   -1
100
AcDbCircle
 10
512.0334021372884
 20
340.7759839619669
 40
2
  0
CIRCLE
  5
10B
100
AcDbEntity
  8
0
  6
ByLayer
 62
  256
370
   -1
100
AcDbCircle
 10
677.9322794224581
 20
346.5693004145818
 40
2
  0
CIRCLE
  5
10C
100
AcDbEntity
  8
0
  6
ByLayer
 62
  256
370
   -1
100
AcDbCircle
 10
434.1011227148304
 20
194.2066835473852
 40
2
  0
CIRCLE
  5
10D
100
AcDbEntity
  8
0
  6
ByLayer
 62
  256
370
   -1
100
AcDbCircle
 10
282.9999999999998
 20
56.23978297178334
 40
2
  0
CIRCLE
  5
10E
100
AcDbEntity
  8
0
  6
ByLayer
 62
  256
370
   -1
100
AcDbCircle
 10
522.0677205775421
 20
53.43069958541849
 40
2
  0
CIRCLE
  5
10F
100
AcDbEntity
  8
0
  6
ByLayer
 62
  256
370
   -1
100
AcDbCircle
 10
366
 20
199.9999999999999
 40
2
  0
CIRCLE
  5
110
100
AcDbEntity
  8
0
  6
ByLayer
 62
  256
370
   -1
100
AcDbCircle
 10
117
 20
56.23978297178354
 40
2
  0
CIRCLE
  5
111
100
AcDbEntity
  8
0
  6
ByLayer
 62
  256
370
   -1
100
AcDbCircle
 10
34
 20
200
 40
2
  0
CIRCLE
  5
112
100
AcDbEntity
  8
0
  6
ByLayer
 62
  256
370
   -1
100
AcDbCircle
 10
765.8988772851699
 20
205.7933164526151
 40
2
  0
CIRCLE
  5
113
100
AcDbEntity
  8
0
  6
ByLayer
 62
  256
370
   -1
100
AcDbCircle
 10
687.9665978627118
 20
59.22401603803343
 40
2
  0
DIMENSION
  5
114
100
AcDbEntity
  8
sizes
  6
ByLayer
 62
  256
370
   -1
100
AcDbDimension
  2
*D1
 10
370.0000000000003
 20
150
 30
0
 11
362.5000000000002
 21
157.8125
 31
0
 70
   32
 71
    5
  3
Standard
 53
0
210
0
220
0
230
1
100
AcDbAlignedDimension
 13
355
 23
199.9999999999999
 33
0
 14
370.0000000000003
 24
199.9999999999999
 34
0
100
AcDbRotatedDimension
  0
DIMENSION
  5
115
100
AcDbEntity
  8
sizes
  6
ByLayer
 62
  256
370
   -1
100
AcDbDimension
  2
*D2
 10
200
 20
200
 30
0
 11
243.6214167533558
 21
135.4673946234925
 31
0
 70
   36
 71
    5
  3
Standard
 53
0
210
0
220
0
230
1
100
AcDbRadialDimension
 15
273.4854725704276
 25
63.52697951206278
 35
0
 40
0
  0
DIMENSION
  5
116
100
AcDbEntity
  8
sizes
  6
ByLayer
 62
  256
370
   -1
100
AcDbDimension
  2
*D3
 10
200.0000000000001
 20
199.9999999999999
 30
0
 11
267.9372005773549
 21
148.3224232963437
 31
0
 70
   36
 71
    5
  3
Standard
 53
0
210
0
220
0
230
1
100
AcDbRadialDimension
 15
325.3162038341261
 25
85.12681315205096
 35
0
 40
0
  0
DIMENSION
  5
117
100
AcDbEntity
  8
sizes
  6
ByLayer
 62
  256
370
   -1
100
AcDbDimension
  2
*D4
 10
759.6102480415718
 20
211.1610357990598
 30
0
 11
0
 21
0
 31
0
 70
   34
 71
    5
 72
    0
  3
Standard
 53
0
210
0
220
0
230
1
100
AcDb2LineAngularDimension
 13
790.0000000000001
 23
199.9999999999999
 33
0
 14
410.0000000000001
 24
199.9999999999999
 34
0
 15
600.0000000000001
 25
199.9999999999999
 35
0
 16
790.0000000000001
 26
199.9999999999999
 36
0
  0
LEADER
  5
118
100
AcDbEntity
  8
sizes
  6
ByLayer
 62
  256
370
   -1
100
AcDbLeader
  3
Standard
 71
    1
 72
    0
 73
    3
 74
    0
 75
    0
 40
1
 41
10
 76
3
 76
3
 10
756.5036161174089
 20
233.2658705308413
 30
0
 10
770
 20
250
 30
0
 10
789
 20
250
 30
0
  0
MTEXT
  5
119
100
AcDbEntity
  8
sizes
  6
ByLayer
 62
  256
370
   -1
100
AcDbMText
 10
800
 20
270
 30
0
 40
10
 41
69.44444444444444
 71
    1
 72
    1
  1
наметки \Pмаленькой \Pфрезой
  7
unicode
210
0
220
0
230
1
 50
0
 73
    2
 44
1
  0
LEADER
  5
11A
100
AcDbEntity
  8
sizes
  6
ByLayer
 62
  256
370
   -1
100
AcDbLeader
  3
Standard
 71
    1
 72
    0
 73
    3
 74
    0
 75
    0
 40
1
 41
10
 76
3
 76
3
 10
283.0000000000002
 20
343.7602170282167
 30
0
 10
305.0677205775421
 20
367.1909166136349
 30
0
 10
345.0677205775421
 20
367.1909166136349
 30
0
  0
LEADER
  5
11B
100
AcDbEntity
  8
sizes
  6
ByLayer
 62
  256
370
   -1
100
AcDbLeader
  3
Standard
 71
    1
 72
    0
 73
    3
 74
    0
 75
    0
 40
1
 41
10
 76
3
 76
3
 10
677.9322794224581
 20
346.5693004145818
 30
0
 10
700
 20
370
 30
0
 10
740
 20
370
 30
0
  0
CIRCLE
  5
11C
100
AcDbEntity
  8
0
  6
ByLayer
 62
  256
370
   -1
100
AcDbCircle
 10
600
 20
-220
 40
6
  0
LINE
  5
11D
100
AcDbEntity
  8
noname
  6
ByLayer
 62
  256
370
   -1
100
AcDbLine
 10
410.0000000000001
 20
-220.0000000000001
 11
790.0000000000001
 21
-220.0000000000001
  0
LINE
  5
11E
100
AcDbEntity
  8
noname
  6
ByLayer
 62
  256
370
   -1
100
AcDbLine
 10
600
 20
-395
 11
600
 21
-45
  0
CIRCLE
  5
11F
100
AcDbEntity
  8
0
  6
ByLayer
 62
  256
370
   -1
100
AcDbCircle
 10
600.0000000000001
 20
-220.0000000000001
 40
154
  0
CIRCLE
  5
120
100
AcDbEntity
  8
noname
  6
ByLayer
 62
  256
370
   -1
100
AcDbCircle
 10
600.0000000000001
 20
-220.0000000000001
 40
35
  0
CIRCLE
  5
121
100
AcDbEntity
  8
0
  6
ByLayer
 62
  256
370
   -1
100
AcDbCircle
 10
677.9322794224581
 20
-73.43069958541821
 40
2
  0
CIRCLE
  5
122
100
AcDbEntity
  8
0
  6
ByLayer
 62
  256
370
   -1
100
AcDbCircle
 10
512.0334021372884
 20
-79.22401603803317
 40
2
  0
CIRCLE
  5
123
100
AcDbEntity
  8
0
  6
ByLayer
 62
  256
370
   -1
100
AcDbCircle
 10
434.1011227148304
 20
-225.7933164526148
 40
2
  0
CIRCLE
  5
124
100
AcDbEntity
  8
0
  6
ByLayer
 62
  256
370
   -1
100
AcDbCircle
 10
522.0677205775421
 20
-366.5693004145815
 40
2
  0
CIRCLE
  5
125
100
AcDbEntity
  8
0
  6
ByLayer
 62
  256
370
   -1
100
AcDbCircle
 10
687.9665978627118
 20
-360.7759839619666
 40
2
  0
CIRCLE
  5
126
100
AcDbEntity
  8
0
  6
ByLayer
 62
  256
370
   -1
100
AcDbCircle
 10
765.8988772851699
 20
-214.2066835473849
 40
2
  0
CIRCLE
  5
127
100
AcDbEntity
  8
0
  6
ByLayer
 62
  256
370
   -1
100
AcDbCircle
 10
635.0000000000005
 20
-220.0000000000002
 40
2
  0
CIRCLE
  5
128
100
AcDbEntity
  8
0
  6
ByLayer
 62
  256
370
   -1
100
AcDbCircle
 10
582.5000000000002
 20
-250.3108891324549
 40
2
  0
CIRCLE
  5
129
100
AcDbEntity
  8
0
  6
ByLayer
 62
  256
370
   -1
100
AcDbCircle
 10
582.4999999999994
 20
-189.6891108675445
 40
2
  0
CIRCLE
  5
12A
100
AcDbEntity
  8
0
  6
ByLayer
 62
  256
370
   -1
100
AcDbCircle
 10
617.5000000000003
 20
-189.6891108675445
 40
2
  0
CIRCLE
  5
12B
100
AcDbEntity
  8
0
  6
ByLayer
 62
  256
370
   -1
100
AcDbCircle
 10
617.4999999999997
 20
-250.3108891324551
 40
2
  0
CIRCLE
  5
12C
100
AcDbEntity
  8
0
  6
ByLayer
 62
  256
370
   -1
100
AcDbCircle
 10
564.9999999999995
 20
-220.0000000000006
 40
2
  0
DIMENSION
  5
12D
100
AcDbEntity
  8
sizes
  6
ByLayer
 62
  256
370
   -1
100
AcDbDimension
  2
*D8
 10
600.0000000000001
 20
-220.0000000000001
 30
0
 11
654.5798046728366
 21
-154.3716518711236
 31
0
 70
   36
 71
    5
 72
    0
  3
Standard
 53
0
210
0
220
0
230
1
100
AcDbRadialDimension
 15
720.2081528017131
 25
-99.79184719828693
 35
0
 40
0
  0
DIMENSION
  5
12E
100
AcDbEntity
  8
sizes
  6
ByLayer
 62
  256
370
   -1
100
AcDbDimension
  2
*D9
 10
600.0000000000001
 20
-220.0000000000001
 30
0
 11
669.8864990912544
 21
-186.7447387468073
 31
0
 70
   36
 71
    5
 72
    0
  3
Standard
 53
0
210
0
220
0
230
1
100
AcDbRadialDimension
 15
745.028254385605
 25
-168.2041948622839
 35
0
 40
0
  0
LEADER
  5
12F
100
AcDbEntity
  8
sizes
  6
ByLayer
 62
  256
370
   -1
100
AcDbLeader
  3
Standard
 71
    1
 72
    0
 73
    3
 74
    0
 75
    0
 40
1
 41
10
 76
3
 76
3
 10
740
 20
-130
 30
0
 10
790
 20
-80
 30
0
 10
810
 20
-80
 30
0
  0
LEADER
  5
130
100
AcDbEntity
  8
sizes
  6
ByLayer
 62
  256
370
   -1
100
AcDbLeader
  3
Standard
 71
    1
 72
    0
 73
    3
 74
    0
 75
    0
 40
1
 41
10
 76
3
 76
3
 10
677.9322794224581
 20
-73.43069958541821
 30
0
 10
700
 20
-50
 30
0
 10
740
 20
-50
 30
0
  0
DIMENSION
  5
131
100
AcDbEntity
  8
sizes
  6
ByLayer
 62
  256
370
   -1
100
AcDbDimension
  2
*D12
 10
595.7573593128807
 20
-215.7573593128807
 30
0
 11
605.5242717280199
 21
-214.4757282719801
 31
0
 70
   35
 71
    5
 72
    0
  3
Standard
 53
0
210
0
220
0
230
1
100
AcDbDiametricDimension
 15
604.2426406871193
 25
-224.2426406871193
 35
0
 40
0
  0
LEADER
  5
132
100
AcDbEntity
  8
sizes
  6
ByLayer
 62
  256
370
   -1
100
AcDbLeader
  3
Standard
 71
    1
 72
    0
 73
    3
 74
    0
 75
    0
 40
1
 41
10
 76
2
 76
2
 10
617.4999999999997
 20
-250.3108891324551
 30
0
 10
670
 20
-280
 30
0
  0
MTEXT
  5
133
100
AcDbEntity
  8
sizes
  6
ByLayer
 62
  256
370
   -1
100
AcDbMText
 10
389
 20
367
 30
0
 40
15
 41
75.83333333333334
 71
    5
 72
    1
  1
%%C 4 mm
  7
unicode
210
0
220
0
230
1
 50
0
 73
    2
 44
1
  0
MTEXT
  5
134
100
AcDbEntity
  8
sizes
  6
ByLayer
 62
  256
370
   -1
100
AcDbMText
 10
784
 20
370
 30
0
 40
15
 41
75.83333333333334
 71
    5
 72
    1
  1
%%C 4 mm
  7
unicode
210
0
220
0
230
1
 50
0
 73
    2
 44
1
  0
MTEXT
  5
135
100
AcDbEntity
  8
sizes
  6
ByLayer
 62
  256
370
   -1
100
AcDbMText
 10
784
 20
-50
 30
0
 40
15
 41
75.83333333333334
 71
    5
 72
    1
  1
%%C 4 mm
  7
unicode
210
0
220
0
230
1
 50
0
 73
    2
 44
1
  0
LWPOLYLINE
  5
136
100
AcDbEntity
  8
0
  6
ByLayer
 62
  256
370
   -1
100
AcDbPolyline
 90
    8
 70
    1
 43
0
 10
605.1
 20
-385.0000000000002
 42
0.9999999999999999
 10
594.8999999999997
 20
-385.0000000000002
 10
594.8999999999983
 20
-389.9234827797501
 42
-0.9704367948586451
 10
594.8999999999983
 20
-50.07651722025054
 10
594.9
 20
-54.99999999999995
 42
0.9999999999999992
 10
605.1
 20
-55
 10
605.1000000000016
 20
-50.07651722025014
 42
-0.9704367948586428
 10
605.1000000000016
 20
-389.92348277975
  0
MTEXT
  5
137
100
AcDbEntity
  8
sizes
  6
ByLayer
 62
  256
370
   -1
100
AcDbMText
 10
900
 20
-90
 30
0
 40
15
 41
174.1666666666667
 71
    5
 72
    1
  1
deepening 0.5 mm \P(optional)
  7
unicode
210
0
220
0
230
1
 50
0
 73
    2
 44
1
  0
MTEXT
  5
138
100
AcDbEntity
  8
sizes
  6
ByLayer
 62
  256
370
   -1
100
AcDbMText
 10
670
 20
-290
 30
0
 40
15
 41
75.83333333333334
 71
    5
 72
    1
  1
%%C 4 mm
  7
unicode
210
0
220
0
230
1
 50
0
 73
    2
 44
1
  0
MTEXT
  5
139
100
AcDbEntity
  8
sizes
  6
ByLayer
 62
  256
370
   -1
100
AcDbMText
 10
600
 20
0
 30
0
 40
20
 41
351.1022312168182
 71
    5
 72
    1
  1
PA-6 d=4 mm (2 samples)
  7
unicode
210
0
220
0
230
1
 50
0
 73
    2
 44
1
  0
MTEXT
  5
13A
100
AcDbEntity
  8
sizes
  6
ByLayer
 62
  256
370
   -1
100
AcDbMText
 10
600
 20
-420
 30
0
 40
20
 41
331.0955600528536
 71
    5
 72
    1
  1
PA-6 d=4 mm (1 sample)
  7
unicode
210
0
220
0
230
1
 50
0
 73
    2
 44
1
  0
MTEXT
  5
13B
100
AcDbEntity
  8
sizes
  6
ByLayer
 62
  256
370
   -1
100
AcDbMText
 10
200
 20
-20
 30
0
 40
20
 41
351.0955600528536
 71
    5
 72
    1
  1
PA-6 d=0.5 mm (1 sample)\P(optional)
  7
unicode
210
0
220
0
230
1
 50
0
 73
    2
 44
1
  0
ENDSEC
  0
SECTION
  2
OBJECTS
  0
DICTIONARY
  5
C
330
0
100
AcDbDictionary
281
    1
  3
ACAD_GROUP
350
D
  0
DICTIONARY
  5
D
330
C
100
AcDbDictionary
281
    1
  0
ENDSEC
  0
EOF
